<?xml version="1.0" encoding="utf-8"?>
<!-- Generator: Adobe Illustrator 24.0.2, SVG Export Plug-In . SVG Version: 6.00 Build 0)  -->
<svg version="1.1" id="PATTERN" xmlns="http://www.w3.org/2000/svg" xmlns:xlink="http://www.w3.org/1999/xlink" x="0px" y="0px"
	 viewBox="0 0 1920 1080" enable-background="new 0 0 1920 1080" xml:space="preserve">
<g opacity="0.22">
	<defs>
		<polygon id="SVGID_11_" opacity="0.22" points="34.28,128.25 119.14,43.38 21.22,30.32 		"/>
	</defs>
	<clipPath id="SVGID_12_">
		<use xlink:href="#SVGID_11_"  overflow="visible"/>
	</clipPath>
	<g clip-path="url(#SVGID_12_)">
		<g>
			<g>
				<g>
					
						<rect x="-219.16" y="-121.4" transform="matrix(0.7071 -0.7072 0.7072 0.7071 73.7775 -62.2415)" fill="#6A3DBF" width="361.85" height="2.46"/>
					
						<rect x="-204.7" y="-106.94" transform="matrix(0.7071 -0.7071 0.7071 0.7071 67.7847 -47.7746)" fill="#6A3DBF" width="361.86" height="2.45"/>
				</g>
				<g>
					
						<rect x="-190.25" y="-92.48" transform="matrix(0.7066 -0.7076 0.7076 0.7066 61.8386 -33.3711)" fill="#6A3DBF" width="361.85" height="2.45"/>
					
						<rect x="-175.79" y="-78.03" transform="matrix(0.7081 -0.7061 0.7061 0.7081 55.7296 -18.7943)" fill="#6A3DBF" width="361.85" height="2.45"/>
				</g>
			</g>
			<g>
				<g>
					
						<rect x="-161.34" y="-63.57" transform="matrix(0.7076 -0.7066 0.7066 0.7076 49.7792 -4.3862)" fill="#6A3DBF" width="361.85" height="2.45"/>
					
						<rect x="-146.88" y="-49.11" transform="matrix(0.7066 -0.7076 0.7076 0.7066 43.8753 10.0387)" fill="#6A3DBF" width="361.85" height="2.45"/>
				</g>
				<g>
					
						<rect x="-132.43" y="-34.66" transform="matrix(0.7065 -0.7077 0.7077 0.7065 37.8924 24.5121)" fill="#6A3DBF" width="361.85" height="2.45"/>
					
						<rect x="-117.97" y="-20.2" transform="matrix(0.7066 -0.7076 0.7076 0.7066 31.8957 38.9797)" fill="#6A3DBF" width="361.85" height="2.45"/>
				</g>
			</g>
		</g>
		<g>
			<g>
				<g>
					
						<rect x="-103.51" y="-5.75" transform="matrix(0.7066 -0.7076 0.7076 0.7066 25.9114 53.4514)" fill="#6A3DBF" width="361.85" height="2.45"/>
					
						<rect x="-89.06" y="8.71" transform="matrix(0.7071 -0.7072 0.7072 0.7071 19.8853 67.8757)" fill="#6A3DBF" width="361.85" height="2.46"/>
				</g>
				<g>
					
						<rect x="-74.6" y="23.16" transform="matrix(0.7066 -0.7076 0.7076 0.7066 13.9324 82.387)" fill="#6A3DBF" width="361.85" height="2.45"/>
					
						<rect x="-60.15" y="37.62" transform="matrix(0.7061 -0.7081 0.7081 0.7061 7.9909 96.9477)" fill="#6A3DBF" width="361.86" height="2.45"/>
				</g>
			</g>
			<g>
				<g>
					
						<rect x="-45.69" y="52.08" transform="matrix(0.7081 -0.7061 0.7061 0.7081 1.8339 111.0473)" fill="#6A3DBF" width="361.86" height="2.45"/>
					
						<rect x="-31.23" y="66.54" transform="matrix(0.7071 -0.7071 0.7071 0.7071 -4.0699 125.6969)" fill="#6A3DBF" width="361.85" height="2.45"/>
				</g>
				<g>
					
						<rect x="-16.78" y="80.99" transform="matrix(0.7071 -0.7071 0.7071 0.7071 -10.0575 140.1495)" fill="#6A3DBF" width="361.85" height="2.45"/>
					
						<rect x="-2.32" y="95.44" transform="matrix(0.7066 -0.7076 0.7076 0.7066 -16.0037 154.7474)" fill="#6A3DBF" width="361.86" height="2.45"/>
				</g>
			</g>
		</g>
	</g>
</g>
<path opacity="0.22" fill="#F7BAF4" d="M152.7,346.39l4.49-14.96c19.76,5.93,40.67-5.32,46.6-25.08
	c5.93-19.76-5.32-40.67-25.08-46.6l4.49-14.95c28.01,8.41,43.96,38.03,35.55,66.04C210.34,338.85,180.71,354.8,152.7,346.39z"/>
<g opacity="0.22">
	<defs>
		<polygon id="SVGID_13_" opacity="0.22" points="1782.71,888.83 1881.69,921.57 1853.62,840.49 		"/>
	</defs>
	<clipPath id="SVGID_14_">
		<use xlink:href="#SVGID_13_"  overflow="visible"/>
	</clipPath>
	<g clip-path="url(#SVGID_14_)">
		<g>
			<g>
				<g>
					
						<rect x="1946.14" y="578.47" transform="matrix(0.3158 -0.9488 0.9488 0.3158 634.2862 2350.8682)" fill="#6A3DBF" width="2.13" height="314.32"/>
					
						<rect x="1940.56" y="595.33" transform="matrix(0.3138 -0.9495 0.9495 0.3138 617.8755 2359.9209)" fill="#6A3DBF" width="2.13" height="314.32"/>
				</g>
				<g>
					<polygon fill="#6A3DBF" points="1786.51,720.99 1787.19,718.97 2085.58,817.71 2084.92,819.73 					"/>
					
						<rect x="1929.41" y="629.05" transform="matrix(0.3139 -0.9495 0.9495 0.3139 578.0449 2372.3257)" fill="#6A3DBF" width="2.13" height="314.32"/>
				</g>
			</g>
			<g>
				<g>
					
						<rect x="1923.83" y="645.9" transform="matrix(0.3138 -0.9495 0.9495 0.3138 558.3926 2378.7556)" fill="#6A3DBF" width="2.13" height="314.32"/>
					
						<rect x="1918.25" y="662.76" transform="matrix(0.3162 -0.9487 0.9487 0.3162 534.5251 2381.4624)" fill="#6A3DBF" width="2.13" height="314.32"/>
				</g>
				<g>
					
						<rect x="1912.67" y="679.63" transform="matrix(0.3117 -0.9502 0.9502 0.3117 522.089 2394.3196)" fill="#6A3DBF" width="2.13" height="314.32"/>
					<polygon fill="#6A3DBF" points="1758.62,805.28 1759.29,803.26 2057.69,902 2057.03,904.03 					"/>
				</g>
			</g>
		</g>
		<g>
			<g>
				<g>
					
						<rect x="1901.51" y="713.34" transform="matrix(0.3138 -0.9495 0.9495 0.3138 479.0494 2403.8425)" fill="#6A3DBF" width="2.13" height="314.32"/>
					
						<rect x="1895.93" y="730.2" transform="matrix(0.3137 -0.9495 0.9495 0.3137 459.264 2410.1655)" fill="#6A3DBF" width="2.13" height="314.32"/>
				</g>
				<g>
					<polygon fill="#6A3DBF" points="1741.88,855.86 1742.55,853.84 2040.96,952.58 2040.28,954.6 					"/>
					
						<rect x="1884.78" y="763.92" transform="matrix(0.3117 -0.9502 0.9502 0.3117 422.7643 2425.8044)" fill="#6A3DBF" width="2.13" height="314.32"/>
				</g>
			</g>
			<g>
				<g>
					
						<rect x="1879.2" y="780.78" transform="matrix(0.3159 -0.9488 0.9488 0.3159 396.3616 2425.6028)" fill="#6A3DBF" width="2.13" height="314.31"/>
					
						<rect x="1873.62" y="797.64" transform="matrix(0.3118 -0.9502 0.9502 0.3118 383.0106 2438.3691)" fill="#6A3DBF" width="2.13" height="314.31"/>
				</g>
				<g>
					
						<rect x="1868.04" y="814.5" transform="matrix(0.3139 -0.9495 0.9495 0.3139 359.8674 2441.3066)" fill="#6A3DBF" width="2.13" height="314.32"/>
					
						<rect x="1862.46" y="831.36" transform="matrix(0.3137 -0.9495 0.9495 0.3137 340.244 2447.7983)" fill="#6A3DBF" width="2.13" height="314.32"/>
				</g>
			</g>
		</g>
	</g>
</g>
<path opacity="0.22" fill="#6FE2D1" d="M56.64,524.57l-1.31-15.56c20.56-1.74,35.88-19.87,34.14-40.43
	c-1.74-20.56-19.88-35.88-40.43-34.14l-1.31-15.56c29.14-2.46,54.85,19.24,57.31,48.38C107.48,496.4,85.78,522.11,56.64,524.57z"/>
<g opacity="0.22">
	<g>
		<g>
			<g>
				<path fill="#6A3DBF" d="M1726.32,17.89c0,1.4-1.14,2.54-2.53,2.54c-1.4,0-2.54-1.14-2.54-2.54c0-1.4,1.14-2.53,2.54-2.53
					C1725.19,15.35,1726.32,16.49,1726.32,17.89z"/>
				<path fill="#6A3DBF" d="M1746.6,17.89c0,1.4-1.14,2.54-2.53,2.54c-1.4,0-2.54-1.14-2.54-2.54c0-1.4,1.14-2.53,2.54-2.53
					C1745.46,15.35,1746.6,16.49,1746.6,17.89z"/>
				<path fill="#6A3DBF" d="M1766.87,17.89c0,1.4-1.14,2.54-2.53,2.54c-1.4,0-2.54-1.14-2.54-2.54c0-1.4,1.14-2.53,2.54-2.53
					C1765.74,15.35,1766.87,16.49,1766.87,17.89z"/>
			</g>
			<g>
				<path fill="#6A3DBF" d="M1726.32,38.16c0,1.4-1.14,2.54-2.53,2.54c-1.4,0-2.54-1.14-2.54-2.54c0-1.4,1.14-2.53,2.54-2.53
					C1725.19,35.63,1726.32,36.76,1726.32,38.16z"/>
				<path fill="#6A3DBF" d="M1746.6,38.16c0,1.4-1.14,2.54-2.53,2.54c-1.4,0-2.54-1.14-2.54-2.54c0-1.4,1.14-2.53,2.54-2.53
					C1745.46,35.63,1746.6,36.76,1746.6,38.16z"/>
				<path fill="#6A3DBF" d="M1766.87,38.16c0,1.4-1.14,2.54-2.53,2.54c-1.4,0-2.54-1.14-2.54-2.54c0-1.4,1.14-2.53,2.54-2.53
					C1765.74,35.63,1766.87,36.76,1766.87,38.16z"/>
			</g>
		</g>
		<g>
			<g>
				<path fill="#6A3DBF" d="M1726.32,58.44c0,1.4-1.14,2.54-2.53,2.54c-1.4,0-2.54-1.14-2.54-2.54c0-1.4,1.14-2.53,2.54-2.53
					C1725.19,55.9,1726.32,57.04,1726.32,58.44z"/>
				<path fill="#6A3DBF" d="M1746.6,58.44c0,1.4-1.14,2.54-2.53,2.54c-1.4,0-2.54-1.14-2.54-2.54c0-1.4,1.14-2.53,2.54-2.53
					C1745.46,55.9,1746.6,57.04,1746.6,58.44z"/>
				<path fill="#6A3DBF" d="M1766.87,58.44c0,1.4-1.14,2.54-2.53,2.54c-1.4,0-2.54-1.14-2.54-2.54c0-1.4,1.14-2.53,2.54-2.53
					C1765.74,55.9,1766.87,57.04,1766.87,58.44z"/>
			</g>
			<g>
				<path fill="#6A3DBF" d="M1726.32,78.71c0,1.4-1.14,2.54-2.53,2.54c-1.4,0-2.54-1.14-2.54-2.54c0-1.4,1.14-2.53,2.54-2.53
					C1725.19,76.18,1726.32,77.31,1726.32,78.71z"/>
				<path fill="#6A3DBF" d="M1746.6,78.71c0,1.4-1.14,2.54-2.53,2.54c-1.4,0-2.54-1.14-2.54-2.54c0-1.4,1.14-2.53,2.54-2.53
					C1745.46,76.18,1746.6,77.31,1746.6,78.71z"/>
				<path fill="#6A3DBF" d="M1766.87,78.71c0,1.4-1.14,2.54-2.53,2.54c-1.4,0-2.54-1.14-2.54-2.54c0-1.4,1.14-2.53,2.54-2.53
					C1765.74,76.18,1766.87,77.31,1766.87,78.71z"/>
			</g>
		</g>
	</g>
	<g>
		<g>
			<g>
				<path fill="#6A3DBF" d="M1726.32,98.98c0,1.4-1.14,2.53-2.53,2.53c-1.4,0-2.54-1.13-2.54-2.53c0-1.4,1.14-2.53,2.54-2.53
					C1725.19,96.45,1726.32,97.59,1726.32,98.98z"/>
				<path fill="#6A3DBF" d="M1746.6,98.98c0,1.4-1.14,2.53-2.53,2.53c-1.4,0-2.54-1.13-2.54-2.53c0-1.4,1.14-2.53,2.54-2.53
					C1745.46,96.45,1746.6,97.59,1746.6,98.98z"/>
				<path fill="#6A3DBF" d="M1766.87,98.98c0,1.4-1.14,2.53-2.53,2.53c-1.4,0-2.54-1.13-2.54-2.53c0-1.4,1.14-2.53,2.54-2.53
					C1765.74,96.45,1766.87,97.59,1766.87,98.98z"/>
			</g>
			<g>
				<path fill="#6A3DBF" d="M1726.32,119.26c0,1.4-1.14,2.53-2.53,2.53c-1.4,0-2.54-1.13-2.54-2.53s1.14-2.54,2.54-2.54
					C1725.19,116.72,1726.32,117.86,1726.32,119.26z"/>
				<path fill="#6A3DBF" d="M1746.6,119.26c0,1.4-1.14,2.53-2.53,2.53c-1.4,0-2.54-1.13-2.54-2.53s1.14-2.54,2.54-2.54
					C1745.46,116.72,1746.6,117.86,1746.6,119.26z"/>
				<path fill="#6A3DBF" d="M1766.87,119.26c0,1.4-1.14,2.53-2.53,2.53c-1.4,0-2.54-1.13-2.54-2.53s1.14-2.54,2.54-2.54
					C1765.74,116.72,1766.87,117.86,1766.87,119.26z"/>
			</g>
		</g>
		<g>
			<g>
				<path fill="#6A3DBF" d="M1726.32,139.53c0,1.4-1.14,2.53-2.53,2.53c-1.4,0-2.54-1.13-2.54-2.53c0-1.4,1.14-2.54,2.54-2.54
					C1725.19,137,1726.32,138.13,1726.32,139.53z"/>
				<path fill="#6A3DBF" d="M1746.6,139.53c0,1.4-1.14,2.53-2.53,2.53c-1.4,0-2.54-1.13-2.54-2.53c0-1.4,1.14-2.54,2.54-2.54
					C1745.46,137,1746.6,138.13,1746.6,139.53z"/>
				<path fill="#6A3DBF" d="M1766.87,139.53c0,1.4-1.14,2.53-2.53,2.53c-1.4,0-2.54-1.13-2.54-2.53c0-1.4,1.14-2.54,2.54-2.54
					C1765.74,137,1766.87,138.13,1766.87,139.53z"/>
			</g>
			<g>
				<path fill="#6A3DBF" d="M1726.32,159.81c0,1.4-1.14,2.53-2.53,2.53c-1.4,0-2.54-1.13-2.54-2.53c0-1.4,1.14-2.54,2.54-2.54
					C1725.19,157.27,1726.32,158.41,1726.32,159.81z"/>
				<path fill="#6A3DBF" d="M1746.6,159.81c0,1.4-1.14,2.53-2.53,2.53c-1.4,0-2.54-1.13-2.54-2.53c0-1.4,1.14-2.54,2.54-2.54
					C1745.46,157.27,1746.6,158.41,1746.6,159.81z"/>
				<path fill="#6A3DBF" d="M1766.87,159.81c0,1.4-1.14,2.53-2.53,2.53c-1.4,0-2.54-1.13-2.54-2.53c0-1.4,1.14-2.54,2.54-2.54
					C1765.74,157.27,1766.87,158.41,1766.87,159.81z"/>
			</g>
		</g>
	</g>
</g>
<g opacity="0.22">
	<g>
		<g>
			<g>
				<path fill="#6A3DBF" d="M198.87,932.34c-1.4,0-2.53-1.14-2.53-2.53c0-1.4,1.14-2.54,2.53-2.54c1.4,0,2.53,1.14,2.53,2.54
					C201.4,931.2,200.27,932.34,198.87,932.34z"/>
				<path fill="#6A3DBF" d="M198.87,952.61c-1.4,0-2.53-1.14-2.53-2.53c0-1.4,1.14-2.54,2.53-2.54c1.4,0,2.53,1.14,2.53,2.54
					C201.4,951.48,200.27,952.61,198.87,952.61z"/>
				<path fill="#6A3DBF" d="M198.87,972.89c-1.4,0-2.53-1.14-2.53-2.53c0-1.4,1.14-2.54,2.53-2.54c1.4,0,2.53,1.14,2.53,2.54
					C201.4,971.75,200.27,972.89,198.87,972.89z"/>
			</g>
			<g>
				<path fill="#6A3DBF" d="M178.59,932.34c-1.4,0-2.53-1.14-2.53-2.53c0-1.4,1.14-2.54,2.53-2.54c1.4,0,2.53,1.14,2.53,2.54
					C181.13,931.2,179.99,932.34,178.59,932.34z"/>
				<path fill="#6A3DBF" d="M178.59,952.61c-1.4,0-2.53-1.14-2.53-2.53c0-1.4,1.14-2.54,2.53-2.54c1.4,0,2.53,1.14,2.53,2.54
					C181.13,951.48,179.99,952.61,178.59,952.61z"/>
				<path fill="#6A3DBF" d="M178.59,972.89c-1.4,0-2.53-1.14-2.53-2.53c0-1.4,1.14-2.54,2.53-2.54c1.4,0,2.53,1.14,2.53,2.54
					C181.13,971.75,179.99,972.89,178.59,972.89z"/>
			</g>
		</g>
		<g>
			<g>
				<path fill="#6A3DBF" d="M158.32,932.34c-1.4,0-2.53-1.14-2.53-2.53c0-1.4,1.14-2.54,2.53-2.54c1.4,0,2.53,1.14,2.53,2.54
					C160.85,931.2,159.72,932.34,158.32,932.34z"/>
				<path fill="#6A3DBF" d="M158.32,952.61c-1.4,0-2.53-1.14-2.53-2.53c0-1.4,1.14-2.54,2.53-2.54c1.4,0,2.53,1.14,2.53,2.54
					C160.85,951.48,159.72,952.61,158.32,952.61z"/>
				<path fill="#6A3DBF" d="M158.32,972.89c-1.4,0-2.53-1.14-2.53-2.53c0-1.4,1.14-2.54,2.53-2.54c1.4,0,2.53,1.14,2.53,2.54
					C160.85,971.75,159.72,972.89,158.32,972.89z"/>
			</g>
			<g>
				<path fill="#6A3DBF" d="M138.04,932.34c-1.4,0-2.53-1.14-2.53-2.53c0-1.4,1.14-2.54,2.53-2.54c1.4,0,2.53,1.14,2.53,2.54
					C140.58,931.2,139.45,932.34,138.04,932.34z"/>
				<path fill="#6A3DBF" d="M138.04,952.61c-1.4,0-2.53-1.14-2.53-2.53c0-1.4,1.14-2.54,2.53-2.54c1.4,0,2.53,1.14,2.53,2.54
					C140.58,951.48,139.45,952.61,138.04,952.61z"/>
				<path fill="#6A3DBF" d="M138.04,972.89c-1.4,0-2.53-1.14-2.53-2.53c0-1.4,1.14-2.54,2.53-2.54c1.4,0,2.53,1.14,2.53,2.54
					C140.58,971.75,139.45,972.89,138.04,972.89z"/>
			</g>
		</g>
	</g>
	<g>
		<g>
			<g>
				<path fill="#6A3DBF" d="M117.77,932.34c-1.4,0-2.53-1.14-2.53-2.53c0-1.4,1.14-2.54,2.53-2.54c1.4,0,2.53,1.14,2.53,2.54
					C120.3,931.2,119.17,932.34,117.77,932.34z"/>
				<path fill="#6A3DBF" d="M117.77,952.61c-1.4,0-2.53-1.14-2.53-2.53c0-1.4,1.14-2.54,2.53-2.54c1.4,0,2.53,1.14,2.53,2.54
					C120.3,951.48,119.17,952.61,117.77,952.61z"/>
				<path fill="#6A3DBF" d="M117.77,972.89c-1.4,0-2.53-1.14-2.53-2.53c0-1.4,1.14-2.54,2.53-2.54c1.4,0,2.53,1.14,2.53,2.54
					C120.3,971.75,119.17,972.89,117.77,972.89z"/>
			</g>
			<g>
				<path fill="#6A3DBF" d="M97.49,932.34c-1.4,0-2.53-1.14-2.53-2.53c0-1.4,1.14-2.54,2.53-2.54c1.4,0,2.54,1.14,2.54,2.54
					C100.03,931.2,98.9,932.34,97.49,932.34z"/>
				<path fill="#6A3DBF" d="M97.49,952.61c-1.4,0-2.53-1.14-2.53-2.53c0-1.4,1.14-2.54,2.53-2.54c1.4,0,2.54,1.14,2.54,2.54
					C100.03,951.48,98.9,952.61,97.49,952.61z"/>
				<path fill="#6A3DBF" d="M97.49,972.89c-1.4,0-2.53-1.14-2.53-2.53c0-1.4,1.14-2.54,2.53-2.54c1.4,0,2.54,1.14,2.54,2.54
					C100.03,971.75,98.9,972.89,97.49,972.89z"/>
			</g>
		</g>
		<g>
			<g>
				<path fill="#6A3DBF" d="M77.22,932.34c-1.4,0-2.53-1.14-2.53-2.53c0-1.4,1.14-2.54,2.53-2.54c1.4,0,2.54,1.14,2.54,2.54
					C79.76,931.2,78.62,932.34,77.22,932.34z"/>
				<path fill="#6A3DBF" d="M77.22,952.61c-1.4,0-2.53-1.14-2.53-2.53c0-1.4,1.14-2.54,2.53-2.54c1.4,0,2.54,1.14,2.54,2.54
					C79.76,951.48,78.62,952.61,77.22,952.61z"/>
				<path fill="#6A3DBF" d="M77.22,972.89c-1.4,0-2.53-1.14-2.53-2.53c0-1.4,1.14-2.54,2.53-2.54c1.4,0,2.54,1.14,2.54,2.54
					C79.76,971.75,78.62,972.89,77.22,972.89z"/>
			</g>
			<g>
				<path fill="#6A3DBF" d="M56.95,932.34c-1.4,0-2.53-1.14-2.53-2.53c0-1.4,1.14-2.54,2.53-2.54c1.4,0,2.54,1.14,2.54,2.54
					C59.48,931.2,58.35,932.34,56.95,932.34z"/>
				<path fill="#6A3DBF" d="M56.95,952.61c-1.4,0-2.53-1.14-2.53-2.53c0-1.4,1.14-2.54,2.53-2.54c1.4,0,2.54,1.14,2.54,2.54
					C59.48,951.48,58.35,952.61,56.95,952.61z"/>
				<path fill="#6A3DBF" d="M56.95,972.89c-1.4,0-2.53-1.14-2.53-2.53c0-1.4,1.14-2.54,2.53-2.54c1.4,0,2.54,1.14,2.54,2.54
					C59.48,971.75,58.35,972.89,56.95,972.89z"/>
			</g>
		</g>
	</g>
</g>
<path opacity="0.22" fill="#6FE2D1" d="M1892.4,91.36l-146.12-19.48L1765.76,218L1892.4,91.36z M1881.56,95.03l-112.13,112.13
	l-17.25-129.38L1881.56,95.03z"/>
<path opacity="0.22" fill="#F7BAF4" d="M118.25,976.43l79.91-123.88L57.67,807.9L118.25,976.43z M119.54,965.07L65.9,815.84
	l124.4,39.54L119.54,965.07z"/>
<g opacity="0.22">
	<g>
		<g>
			<g>
				<path fill="#6A3DBF" d="M1931.11,576.37c-1.4,0-2.53-1.14-2.53-2.53c0-1.4,1.14-2.54,2.53-2.54c1.4,0,2.53,1.14,2.53,2.54
					C1933.65,575.23,1932.52,576.37,1931.11,576.37z"/>
				<path fill="#6A3DBF" d="M1931.11,596.64c-1.4,0-2.53-1.14-2.53-2.53c0-1.4,1.14-2.54,2.53-2.54c1.4,0,2.53,1.14,2.53,2.54
					C1933.65,595.51,1932.52,596.64,1931.11,596.64z"/>
				<path fill="#6A3DBF" d="M1931.11,616.92c-1.4,0-2.53-1.14-2.53-2.53c0-1.4,1.14-2.54,2.53-2.54c1.4,0,2.53,1.14,2.53,2.54
					C1933.65,615.78,1932.52,616.92,1931.11,616.92z"/>
			</g>
			<g>
				<path fill="#6A3DBF" d="M1910.84,576.37c-1.4,0-2.53-1.14-2.53-2.53c0-1.4,1.14-2.54,2.53-2.54c1.4,0,2.53,1.14,2.53,2.54
					C1913.37,575.23,1912.24,576.37,1910.84,576.37z"/>
				<path fill="#6A3DBF" d="M1910.84,596.64c-1.4,0-2.53-1.14-2.53-2.53c0-1.4,1.14-2.54,2.53-2.54c1.4,0,2.53,1.14,2.53,2.54
					C1913.37,595.51,1912.24,596.64,1910.84,596.64z"/>
				<path fill="#6A3DBF" d="M1910.84,616.92c-1.4,0-2.53-1.14-2.53-2.53c0-1.4,1.14-2.54,2.53-2.54c1.4,0,2.53,1.14,2.53,2.54
					C1913.37,615.78,1912.24,616.92,1910.84,616.92z"/>
			</g>
		</g>
		<g>
			<g>
				<path fill="#6A3DBF" d="M1890.56,576.37c-1.4,0-2.53-1.14-2.53-2.53c0-1.4,1.14-2.54,2.53-2.54c1.4,0,2.53,1.14,2.53,2.54
					C1893.1,575.23,1891.97,576.37,1890.56,576.37z"/>
				<path fill="#6A3DBF" d="M1890.56,596.64c-1.4,0-2.53-1.14-2.53-2.53c0-1.4,1.14-2.54,2.53-2.54c1.4,0,2.53,1.14,2.53,2.54
					C1893.1,595.51,1891.97,596.64,1890.56,596.64z"/>
				<path fill="#6A3DBF" d="M1890.56,616.92c-1.4,0-2.53-1.14-2.53-2.53c0-1.4,1.14-2.54,2.53-2.54c1.4,0,2.53,1.14,2.53,2.54
					C1893.1,615.78,1891.97,616.92,1890.56,616.92z"/>
			</g>
			<g>
				<path fill="#6A3DBF" d="M1870.29,576.37c-1.4,0-2.53-1.14-2.53-2.53c0-1.4,1.14-2.54,2.53-2.54c1.4,0,2.53,1.14,2.53,2.54
					C1872.82,575.23,1871.69,576.37,1870.29,576.37z"/>
				<path fill="#6A3DBF" d="M1870.29,596.64c-1.4,0-2.53-1.14-2.53-2.53c0-1.4,1.14-2.54,2.53-2.54c1.4,0,2.53,1.14,2.53,2.54
					C1872.82,595.51,1871.69,596.64,1870.29,596.64z"/>
				<path fill="#6A3DBF" d="M1870.29,616.92c-1.4,0-2.53-1.14-2.53-2.53c0-1.4,1.14-2.54,2.53-2.54c1.4,0,2.53,1.14,2.53,2.54
					C1872.82,615.78,1871.69,616.92,1870.29,616.92z"/>
			</g>
		</g>
	</g>
	<g>
		<g>
			<g>
				<path fill="#6A3DBF" d="M1850.02,576.37c-1.4,0-2.53-1.14-2.53-2.53c0-1.4,1.14-2.54,2.53-2.54c1.4,0,2.53,1.14,2.53,2.54
					C1852.55,575.23,1851.42,576.37,1850.02,576.37z"/>
				<path fill="#6A3DBF" d="M1850.02,596.64c-1.4,0-2.53-1.14-2.53-2.53c0-1.4,1.14-2.54,2.53-2.54c1.4,0,2.53,1.14,2.53,2.54
					C1852.55,595.51,1851.42,596.64,1850.02,596.64z"/>
				<path fill="#6A3DBF" d="M1850.02,616.92c-1.4,0-2.53-1.14-2.53-2.53c0-1.4,1.14-2.54,2.53-2.54c1.4,0,2.53,1.14,2.53,2.54
					C1852.55,615.78,1851.42,616.92,1850.02,616.92z"/>
			</g>
			<g>
				<path fill="#6A3DBF" d="M1829.74,576.37c-1.4,0-2.53-1.14-2.53-2.53c0-1.4,1.14-2.54,2.53-2.54c1.4,0,2.54,1.14,2.54,2.54
					C1832.28,575.23,1831.14,576.37,1829.74,576.37z"/>
				<path fill="#6A3DBF" d="M1829.74,596.64c-1.4,0-2.53-1.14-2.53-2.53c0-1.4,1.14-2.54,2.53-2.54c1.4,0,2.54,1.14,2.54,2.54
					C1832.28,595.51,1831.14,596.64,1829.74,596.64z"/>
				<path fill="#6A3DBF" d="M1829.74,616.92c-1.4,0-2.53-1.14-2.53-2.53c0-1.4,1.14-2.54,2.53-2.54c1.4,0,2.54,1.14,2.54,2.54
					C1832.28,615.78,1831.14,616.92,1829.74,616.92z"/>
			</g>
		</g>
		<g>
			<g>
				<path fill="#6A3DBF" d="M1809.47,576.37c-1.4,0-2.53-1.14-2.53-2.53c0-1.4,1.14-2.54,2.53-2.54c1.4,0,2.54,1.14,2.54,2.54
					C1812,575.23,1810.87,576.37,1809.47,576.37z"/>
				<path fill="#6A3DBF" d="M1809.47,596.64c-1.4,0-2.53-1.14-2.53-2.53c0-1.4,1.14-2.54,2.53-2.54c1.4,0,2.54,1.14,2.54,2.54
					C1812,595.51,1810.87,596.64,1809.47,596.64z"/>
				<path fill="#6A3DBF" d="M1809.47,616.92c-1.4,0-2.53-1.14-2.53-2.53c0-1.4,1.14-2.54,2.53-2.54c1.4,0,2.54,1.14,2.54,2.54
					C1812,615.78,1810.87,616.92,1809.47,616.92z"/>
			</g>
			<g>
				<path fill="#6A3DBF" d="M1789.19,576.37c-1.4,0-2.53-1.14-2.53-2.53c0-1.4,1.14-2.54,2.53-2.54c1.4,0,2.54,1.14,2.54,2.54
					C1791.73,575.23,1790.59,576.37,1789.19,576.37z"/>
				<path fill="#6A3DBF" d="M1789.19,596.64c-1.4,0-2.53-1.14-2.53-2.53c0-1.4,1.14-2.54,2.53-2.54c1.4,0,2.54,1.14,2.54,2.54
					C1791.73,595.51,1790.59,596.64,1789.19,596.64z"/>
				<path fill="#6A3DBF" d="M1789.19,616.92c-1.4,0-2.53-1.14-2.53-2.53c0-1.4,1.14-2.54,2.53-2.54c1.4,0,2.54,1.14,2.54,2.54
					C1791.73,615.78,1790.59,616.92,1789.19,616.92z"/>
			</g>
		</g>
	</g>
</g>
<path opacity="0.22" fill="#F7BAF4" d="M1850.49,620.46l79.91-123.88l-140.49-44.65L1850.49,620.46z M1851.79,609.1l-53.64-149.23
	l124.4,39.54L1851.79,609.1z"/>
<path opacity="0.22" fill="#FABA12" d="M160.82,404.77c-4.79,5.68-13.28,6.39-18.96,1.6c-5.68-4.79-6.4-13.28-1.6-18.96
	c4.79-5.68,13.28-6.39,18.96-1.6C164.9,390.6,165.62,399.09,160.82,404.77z"/>
<path opacity="0.22" fill="#FABA12" d="M1864.84,59.85c0,5.55-4.49,10.04-10.04,10.04c-5.54,0-10.04-4.5-10.04-10.04
	c0-5.55,4.5-10.04,10.04-10.04C1860.34,49.81,1864.84,54.31,1864.84,59.85z"/>
<path opacity="0.22" fill="#9D51C0" d="M41.17,205.98c-5.84,3.38-10.93,4.37-15.59,5.28c-6.16,1.2-11.49,2.24-18.79,8.81L0,212.55
	c9.4-8.46,16.97-9.94,23.65-11.23c6.17-1.2,11.49-2.24,18.79-8.82c7.3-6.58,8.88-11.77,10.71-17.77
	c1.98-6.51,4.23-13.89,13.62-22.35c9.39-8.47,16.97-9.94,23.65-11.24c6.17-1.2,11.49-2.24,18.8-8.82
	c7.3-6.58,8.89-11.78,10.72-17.79c1.98-6.51,4.24-13.89,13.63-22.36l6.79,7.53c-7.31,6.58-8.89,11.78-10.72,17.79
	c-1.99,6.51-4.23,13.89-13.63,22.36c-9.39,8.47-16.97,9.94-23.65,11.24c-6.17,1.2-11.49,2.23-18.8,8.82
	c-7.3,6.58-8.88,11.77-10.71,17.77c-1.98,6.51-4.23,13.89-13.62,22.36C46.38,202.59,43.7,204.51,41.17,205.98z"/>
<path opacity="0.22" fill="#F7BAF4" d="M1847.74,242.06c-5.84,3.39-10.93,4.38-15.59,5.28c-6.17,1.2-11.49,2.23-18.79,8.81
	l-6.79-7.53c9.4-8.46,16.97-9.94,23.65-11.23c6.16-1.2,11.49-2.23,18.79-8.82c7.3-6.58,8.88-11.76,10.71-17.77
	c1.98-6.51,4.23-13.89,13.61-22.35c9.39-8.47,16.97-9.94,23.65-11.24c6.17-1.2,11.49-2.23,18.8-8.82
	c7.3-6.59,8.89-11.78,10.72-17.79c1.98-6.51,4.23-13.89,13.63-22.36l6.79,7.53c-7.31,6.59-8.89,11.78-10.72,17.79
	c-1.99,6.51-4.23,13.89-13.63,22.36c-9.39,8.47-16.97,9.94-23.65,11.24c-6.17,1.2-11.49,2.24-18.8,8.82
	c-7.3,6.58-8.88,11.77-10.71,17.77c-1.98,6.51-4.23,13.89-13.62,22.35C1852.95,238.67,1850.27,240.59,1847.74,242.06z"/>
<polygon opacity="0.22" fill="#F7BAF4" points="69.41,1039.5 47.51,1010.83 38.94,1040.09 "/>
<polygon opacity="0.22" fill="#F7BAF4" points="1868.81,1029.87 1896.11,983.22 1850.7,987.95 "/>
<path opacity="0.22" fill="#F7BAF4" d="M136.93,406.28c9.74-11.54,8.28-28.85-3.26-38.59c-11.54-9.74-28.85-8.28-38.59,3.26
	c-9.74,11.53-8.28,28.84,3.26,38.58C109.88,419.27,127.19,417.81,136.93,406.28z M134.35,404.1c-8.54,10.11-23.71,11.39-33.82,2.85
	c-10.11-8.54-11.4-23.71-2.86-33.82c8.54-10.11,23.71-11.4,33.83-2.86C141.61,378.81,142.89,393.99,134.35,404.1z"/>
<path opacity="0.22" fill="#6FE2D1" d="M1860.15,36.53c0-15.1-12.28-27.38-27.38-27.38c-15.1,0-27.38,12.28-27.38,27.38
	c0,15.1,12.28,27.38,27.38,27.38C1847.87,63.91,1860.15,51.62,1860.15,36.53z M1856.77,36.53c0,13.24-10.77,24-24,24
	c-13.24,0-24-10.76-24-24c0-13.24,10.77-24,24-24C1846.01,12.52,1856.77,23.29,1856.77,36.53z"/>
<g opacity="0.22">
	<defs>
		<path id="SVGID_15_" opacity="0.22" d="M250.01,69.49c-7.47,28.7-36.8,45.92-65.5,38.44c-28.7-7.47-45.92-36.8-38.44-65.5
			c7.47-28.7,36.8-45.92,65.5-38.45C240.27,11.46,257.48,40.78,250.01,69.49z"/>
	</defs>
	<clipPath id="SVGID_16_">
		<use xlink:href="#SVGID_15_"  overflow="visible"/>
	</clipPath>
	<g clip-path="url(#SVGID_16_)">
		<g>
			<g>
				<g>
					
						<rect x="32.5" y="36.34" transform="matrix(0.2519 -0.9678 0.9678 0.2519 64.9373 157.5326)" fill="#6A3DBF" width="203.71" height="0.85"/>
					
						<rect x="42.32" y="38.89" transform="matrix(0.2508 -0.968 0.968 0.2508 69.9498 169.0184)" fill="#6A3DBF" width="203.71" height="0.85"/>
				</g>
				<g>
					<polygon fill="#6A3DBF" points="128.74,140.55 127.92,140.34 179.22,-56.81 180.05,-56.59 					"/>
					<polygon fill="#6A3DBF" points="138.55,143.1 137.73,142.89 189.04,-54.25 189.85,-54.04 					"/>
				</g>
			</g>
			<g>
				<g>
					
						<rect x="71.75" y="46.56" transform="matrix(0.2508 -0.968 0.968 0.2508 84.5827 203.2475)" fill="#6A3DBF" width="203.71" height="0.85"/>
					<polygon fill="#6A3DBF" points="158.17,148.21 157.35,148 208.66,-49.15 209.47,-48.94 					"/>
				</g>
				<g>
					<polygon fill="#6A3DBF" points="167.98,150.76 167.16,150.55 218.47,-46.59 219.29,-46.38 					"/>
					<polygon fill="#6A3DBF" points="177.79,153.32 176.97,153.1 228.28,-44.04 229.1,-43.83 					"/>
				</g>
			</g>
		</g>
		<g>
			<g>
				<g>
					<polygon fill="#6A3DBF" points="187.6,155.87 186.78,155.66 238.09,-41.49 238.91,-41.27 					"/>
					
						<rect x="120.8" y="59.32" transform="matrix(0.2533 -0.9674 0.9674 0.2533 108.4529 260.0015)" fill="#6A3DBF" width="203.71" height="0.85"/>
				</g>
				<g>
					<polygon fill="#6A3DBF" points="207.22,160.98 206.4,160.76 257.71,-36.38 258.53,-36.17 					"/>
					<polygon fill="#6A3DBF" points="217.03,163.53 216.21,163.32 267.52,-33.83 268.34,-33.61 					"/>
				</g>
			</g>
			<g>
				<g>
					<polygon fill="#6A3DBF" points="226.84,166.08 226.02,165.87 277.33,-31.27 278.15,-31.06 					"/>
					<polygon fill="#6A3DBF" points="236.65,168.64 235.83,168.42 287.14,-28.72 287.96,-28.51 					"/>
				</g>
				<g>
					<polygon fill="#6A3DBF" points="246.46,171.19 245.64,170.98 296.95,-26.16 297.77,-25.95 					"/>
					
						<rect x="179.66" y="74.64" transform="matrix(0.2533 -0.9674 0.9674 0.2533 137.5828 328.3813)" fill="#6A3DBF" width="203.71" height="0.84"/>
				</g>
			</g>
		</g>
	</g>
</g>
<g opacity="0.22">
	<defs>
		<path id="SVGID_17_" opacity="0.22" d="M109.28,310.24c-7.47,28.7-36.79,45.91-65.5,38.44c-28.71-7.47-45.92-36.8-38.45-65.5
			c7.47-28.71,36.8-45.92,65.5-38.45C99.54,252.21,116.75,281.54,109.28,310.24z"/>
	</defs>
	<clipPath id="SVGID_18_">
		<use xlink:href="#SVGID_17_"  overflow="visible"/>
	</clipPath>
	<g clip-path="url(#SVGID_18_)">
		<g>
			<g>
				<g>
					
						<rect x="-108.23" y="277.1" transform="matrix(0.2452 -0.9695 0.9695 0.2452 -273.8574 203.2995)" fill="#6A3DBF" width="203.71" height="0.85"/>
					<polygon fill="#6A3DBF" points="-21.8,378.76 -22.62,378.54 28.69,181.4 29.51,181.61 					"/>
				</g>
				<g>
					
						<rect x="-88.6" y="282.21" transform="matrix(0.2561 -0.9667 0.9667 0.2561 -263.3461 223.0595)" fill="#6A3DBF" width="203.71" height="0.85"/>
					<polygon fill="#6A3DBF" points="-2.18,383.86 -3,383.65 48.31,186.5 49.13,186.72 					"/>
				</g>
			</g>
			<g>
				<g>
					<polygon fill="#6A3DBF" points="7.63,386.41 6.81,386.2 58.12,189.06 58.94,189.27 					"/>
					<polygon fill="#6A3DBF" points="17.44,388.97 16.62,388.76 67.93,191.61 68.75,191.82 					"/>
				</g>
				<g>
					<polygon fill="#6A3DBF" points="27.25,391.52 26.43,391.31 77.74,194.16 78.56,194.38 					"/>
					
						<rect x="-39.55" y="294.98" transform="matrix(0.2522 -0.9677 0.9677 0.2522 -239.2559 281.1882)" fill="#6A3DBF" width="203.71" height="0.84"/>
				</g>
			</g>
		</g>
		<g>
			<g>
				<g>
					<polygon fill="#6A3DBF" points="46.87,396.63 46.05,396.41 97.36,199.27 98.18,199.49 					"/>
					
						<rect x="-19.93" y="300.08" transform="matrix(0.2523 -0.9677 0.9677 0.2523 -229.5275 303.971)" fill="#6A3DBF" width="203.71" height="0.84"/>
				</g>
				<g>
					<polygon fill="#6A3DBF" points="66.49,401.74 65.67,401.52 116.98,204.38 117.8,204.59 					"/>
					<polygon fill="#6A3DBF" points="76.3,404.29 75.48,404.08 126.79,206.93 127.61,207.15 					"/>
				</g>
			</g>
			<g>
				<g>
					<polygon fill="#6A3DBF" points="86.11,406.84 85.29,406.63 136.6,209.48 137.42,209.7 					"/>
					<polygon fill="#6A3DBF" points="95.92,409.39 95.1,409.18 146.41,212.04 147.23,212.25 					"/>
				</g>
				<g>
					<polygon fill="#6A3DBF" points="105.73,411.95 104.91,411.74 156.23,214.59 157.04,214.8 					"/>
					<polygon fill="#6A3DBF" points="115.54,414.5 114.72,414.29 166.03,217.15 166.85,217.36 					"/>
				</g>
			</g>
		</g>
	</g>
</g>
<polygon opacity="0.22" fill="#F7BAF4" points="186.84,463.45 220.6,476.19 212.4,446.83 "/>
<polygon opacity="0.22" fill="#F7BAF4" points="1711.36,259.47 1729.01,283.01 1736.22,259.22 "/>
<path opacity="0.22" fill="#6FE2D1" d="M191.97,1099.66c-5.84,3.38-10.93,4.38-15.58,5.28c-6.17,1.21-11.49,2.23-18.79,8.81
	l-6.79-7.53c9.4-8.46,16.97-9.94,23.65-11.23c6.17-1.2,11.49-2.23,18.79-8.82c7.3-6.58,8.88-11.76,10.71-17.77
	c1.98-6.51,4.23-13.89,13.62-22.35c9.39-8.46,16.97-9.94,23.65-11.24c6.17-1.2,11.49-2.23,18.8-8.81
	c7.3-6.59,8.89-11.78,10.72-17.79c1.99-6.51,4.24-13.89,13.63-22.36l6.79,7.53c-7.31,6.59-8.89,11.78-10.73,17.79
	c-1.99,6.51-4.23,13.89-13.63,22.36c-9.39,8.46-16.97,9.94-23.65,11.24c-6.16,1.2-11.49,2.23-18.8,8.82
	c-7.3,6.58-8.88,11.76-10.71,17.77c-1.98,6.51-4.23,13.89-13.62,22.36C197.19,1096.27,194.51,1098.19,191.97,1099.66z"/>
<g opacity="0.22">
	<defs>
		<path id="SVGID_19_" opacity="0.22" d="M1874.47,1003.83c-9.81,37.67-48.3,60.26-85.97,50.46c-37.67-9.81-60.26-48.29-50.46-85.96
			c9.8-37.67,48.29-60.27,85.97-50.46C1861.67,927.67,1884.26,966.16,1874.47,1003.83z"/>
	</defs>
	<clipPath id="SVGID_20_">
		<use xlink:href="#SVGID_19_"  overflow="visible"/>
	</clipPath>
	<g clip-path="url(#SVGID_20_)">
		<g>
			<g>
				<g>
					<polygon fill="#6A3DBF" points="1689.55,1090.4 1688.46,1090.12 1755.81,831.38 1756.88,831.66 					"/>
					<polygon fill="#6A3DBF" points="1702.42,1093.75 1701.35,1093.47 1768.69,834.73 1769.76,835.01 					"/>
				</g>
				<g>
					<polygon fill="#6A3DBF" points="1715.3,1097.1 1714.22,1096.82 1781.56,838.08 1782.64,838.36 					"/>
					<polygon fill="#6A3DBF" points="1728.17,1100.45 1727.1,1100.17 1794.44,841.43 1795.51,841.71 					"/>
				</g>
			</g>
			<g>
				<g>
					<polygon fill="#6A3DBF" points="1741.04,1103.8 1739.97,1103.53 1807.31,844.79 1808.39,845.07 					"/>
					<polygon fill="#6A3DBF" points="1753.93,1107.15 1752.84,1106.88 1820.19,848.13 1821.26,848.42 					"/>
				</g>
				<g>
					<polygon fill="#6A3DBF" points="1766.79,1110.51 1765.73,1110.23 1833.06,851.49 1834.14,851.77 					"/>
					<polygon fill="#6A3DBF" points="1779.68,1113.86 1778.6,1113.58 1845.95,854.84 1847.01,855.12 					"/>
				</g>
			</g>
		</g>
		<g>
			<g>
				<g>
					<polygon fill="#6A3DBF" points="1792.55,1117.21 1791.48,1116.93 1858.82,858.18 1859.89,858.47 					"/>
					<polygon fill="#6A3DBF" points="1805.42,1120.56 1804.35,1120.28 1871.69,861.54 1872.77,861.82 					"/>
				</g>
				<g>
					
						<rect x="1717.75" y="993.85" transform="matrix(0.255 -0.9669 0.9669 0.255 417.7619 2531.0271)" fill="#6A3DBF" width="267.36" height="1.11"/>
					<polygon fill="#6A3DBF" points="1831.18,1127.26 1830.11,1126.98 1897.44,868.24 1898.52,868.52 					"/>
				</g>
			</g>
			<g>
				<g>
					<polygon fill="#6A3DBF" points="1844.05,1130.62 1842.97,1130.33 1910.32,871.59 1911.39,871.87 					"/>
					<polygon fill="#6A3DBF" points="1856.93,1133.96 1855.85,1133.68 1923.19,874.95 1924.27,875.23 					"/>
				</g>
				<g>
					<polygon fill="#6A3DBF" points="1869.8,1137.31 1868.73,1137.03 1936.07,878.3 1937.14,878.58 					"/>
					
						<rect x="1782.13" y="1010.61" transform="matrix(0.2519 -0.9678 0.9678 0.2519 454.7289 2610.5408)" fill="#6A3DBF" width="267.36" height="1.1"/>
				</g>
			</g>
		</g>
	</g>
</g>
<path opacity="0.22" fill="#FABA12" d="M1735.57,998.2c5.43-1.14,10.75,2.35,11.88,7.78c1.14,5.43-2.35,10.75-7.78,11.88
	c-5.43,1.13-10.75-2.35-11.88-7.78C1726.66,1004.66,1730.13,999.34,1735.57,998.2z"/>
<path opacity="0.22" fill="#6FE2D1" d="M1713.69,1007.56c-14.79,3.08-24.3,17.62-21.21,32.4c3.08,14.78,17.62,24.29,32.4,21.2
	c14.78-3.08,24.29-17.61,21.21-32.39C1743,1013.99,1728.47,1004.47,1713.69,1007.56z M1714.38,1010.87
	c12.96-2.71,25.7,5.64,28.4,18.59c2.71,12.96-5.64,25.69-18.59,28.4c-12.96,2.71-25.69-5.64-28.41-18.59
	C1693.08,1026.31,1701.42,1013.57,1714.38,1010.87z"/>
<path opacity="0.22" fill="#FABA12" d="M104.3,592c-1.54-7.27,3.1-14.41,10.37-15.95c7.27-1.55,14.41,3.09,15.96,10.36
	c1.55,7.27-3.1,14.42-10.37,15.96C112.99,603.91,105.85,599.27,104.3,592z"/>
<path opacity="0.22" fill="#F7BAF4" d="M88.05,569.26c3.14,14.76,17.7,24.23,32.48,21.1c14.77-3.14,24.23-17.7,21.09-32.47
	c-3.13-14.76-17.7-24.23-32.47-21.1C94.38,539.93,84.91,554.5,88.05,569.26z M91.35,568.56c-2.75-12.95,5.55-25.71,18.5-28.46
	c12.94-2.75,25.71,5.55,28.45,18.49c2.75,12.95-5.54,25.72-18.49,28.46C106.87,589.8,94.11,581.51,91.35,568.56z"/>
<polygon opacity="0.22" fill="#6A3DBF" points="180.91,514.06 175.5,509.49 180.07,504.08 175.6,500.3 171.03,505.71 165.62,501.14 
	161.84,505.62 167.25,510.19 162.68,515.6 167.16,519.38 171.73,513.97 177.13,518.53 "/>
<polygon opacity="0.22" fill="#6A3DBF" points="55.94,5.19 54.03,5.19 54.03,3.28 52.44,3.28 52.44,5.19 50.53,5.19 50.53,6.78 
	52.44,6.78 52.44,8.69 54.03,8.69 54.03,6.78 55.94,6.78 "/>
<polygon opacity="0.22" fill="#6A3DBF" points="127.78,1014.99 120.7,1014.99 120.7,1007.91 114.84,1007.91 114.84,1014.99 
	107.76,1014.99 107.76,1020.85 114.84,1020.85 114.84,1027.93 120.7,1027.93 120.7,1020.85 127.78,1020.85 "/>
<polygon opacity="0.22" fill="#6A3DBF" points="1826.16,111.36 1821.34,111.36 1821.34,106.54 1817.35,106.54 1817.35,111.36 
	1812.52,111.36 1812.52,115.36 1817.35,115.36 1817.35,120.18 1821.34,120.18 1821.34,115.36 1826.16,115.36 "/>
<g opacity="0.22">
	<g>
		<g>
			<g>
				<path fill="#6A3DBF" d="M1607.92,524.77c0,1.4-1.14,2.54-2.53,2.54c-1.4,0-2.54-1.14-2.54-2.54c0-1.4,1.14-2.53,2.54-2.53
					C1606.78,522.24,1607.92,523.38,1607.92,524.77z"/>
				<path fill="#6A3DBF" d="M1628.2,524.77c0,1.4-1.14,2.54-2.53,2.54c-1.4,0-2.54-1.14-2.54-2.54c0-1.4,1.14-2.53,2.54-2.53
					C1627.06,522.24,1628.2,523.38,1628.2,524.77z"/>
				<path fill="#6A3DBF" d="M1648.47,524.77c0,1.4-1.14,2.54-2.53,2.54c-1.4,0-2.54-1.14-2.54-2.54c0-1.4,1.14-2.53,2.54-2.53
					C1647.33,522.24,1648.47,523.38,1648.47,524.77z"/>
			</g>
			<g>
				<path fill="#6A3DBF" d="M1607.92,545.05c0,1.4-1.14,2.54-2.53,2.54c-1.4,0-2.54-1.14-2.54-2.54c0-1.4,1.14-2.53,2.54-2.53
					C1606.78,542.52,1607.92,543.65,1607.92,545.05z"/>
				<path fill="#6A3DBF" d="M1628.2,545.05c0,1.4-1.14,2.54-2.53,2.54c-1.4,0-2.54-1.14-2.54-2.54c0-1.4,1.14-2.53,2.54-2.53
					C1627.06,542.52,1628.2,543.65,1628.2,545.05z"/>
				<path fill="#6A3DBF" d="M1648.47,545.05c0,1.4-1.14,2.54-2.53,2.54c-1.4,0-2.54-1.14-2.54-2.54c0-1.4,1.14-2.53,2.54-2.53
					C1647.33,542.52,1648.47,543.65,1648.47,545.05z"/>
			</g>
		</g>
		<g>
			<g>
				<path fill="#6A3DBF" d="M1607.92,565.32c0,1.4-1.14,2.54-2.53,2.54c-1.4,0-2.54-1.14-2.54-2.54c0-1.4,1.14-2.53,2.54-2.53
					C1606.78,562.79,1607.92,563.92,1607.92,565.32z"/>
				<path fill="#6A3DBF" d="M1628.2,565.32c0,1.4-1.14,2.54-2.53,2.54c-1.4,0-2.54-1.14-2.54-2.54c0-1.4,1.14-2.53,2.54-2.53
					C1627.06,562.79,1628.2,563.92,1628.2,565.32z"/>
				<path fill="#6A3DBF" d="M1648.47,565.32c0,1.4-1.14,2.54-2.53,2.54c-1.4,0-2.54-1.14-2.54-2.54c0-1.4,1.14-2.53,2.54-2.53
					C1647.33,562.79,1648.47,563.92,1648.47,565.32z"/>
			</g>
			<g>
				<path fill="#6A3DBF" d="M1607.92,585.6c0,1.4-1.14,2.54-2.53,2.54c-1.4,0-2.54-1.14-2.54-2.54c0-1.4,1.14-2.53,2.54-2.53
					C1606.78,583.07,1607.92,584.2,1607.92,585.6z"/>
				<path fill="#6A3DBF" d="M1628.2,585.6c0,1.4-1.14,2.54-2.53,2.54c-1.4,0-2.54-1.14-2.54-2.54c0-1.4,1.14-2.53,2.54-2.53
					C1627.06,583.07,1628.2,584.2,1628.2,585.6z"/>
				<path fill="#6A3DBF" d="M1648.47,585.6c0,1.4-1.14,2.54-2.53,2.54c-1.4,0-2.54-1.14-2.54-2.54c0-1.4,1.14-2.53,2.54-2.53
					C1647.33,583.07,1648.47,584.2,1648.47,585.6z"/>
			</g>
		</g>
	</g>
	<g>
		<g>
			<g>
				<path fill="#6A3DBF" d="M1607.92,605.87c0,1.4-1.14,2.53-2.53,2.53c-1.4,0-2.54-1.13-2.54-2.53c0-1.4,1.14-2.53,2.54-2.53
					C1606.78,603.34,1607.92,604.47,1607.92,605.87z"/>
				<path fill="#6A3DBF" d="M1628.2,605.87c0,1.4-1.14,2.53-2.53,2.53c-1.4,0-2.54-1.13-2.54-2.53c0-1.4,1.14-2.53,2.54-2.53
					C1627.06,603.34,1628.2,604.47,1628.2,605.87z"/>
				<path fill="#6A3DBF" d="M1648.47,605.87c0,1.4-1.14,2.53-2.53,2.53c-1.4,0-2.54-1.13-2.54-2.53c0-1.4,1.14-2.53,2.54-2.53
					C1647.33,603.34,1648.47,604.47,1648.47,605.87z"/>
			</g>
			<g>
				<path fill="#6A3DBF" d="M1607.92,626.15c0,1.4-1.14,2.53-2.53,2.53c-1.4,0-2.54-1.13-2.54-2.53s1.14-2.54,2.54-2.54
					C1606.78,623.61,1607.92,624.75,1607.92,626.15z"/>
				<path fill="#6A3DBF" d="M1628.2,626.15c0,1.4-1.14,2.53-2.53,2.53c-1.4,0-2.54-1.13-2.54-2.53s1.14-2.54,2.54-2.54
					C1627.06,623.61,1628.2,624.75,1628.2,626.15z"/>
				<path fill="#6A3DBF" d="M1648.47,626.15c0,1.4-1.14,2.53-2.53,2.53c-1.4,0-2.54-1.13-2.54-2.53s1.14-2.54,2.54-2.54
					C1647.33,623.61,1648.47,624.75,1648.47,626.15z"/>
			</g>
		</g>
		<g>
			<g>
				<path fill="#6A3DBF" d="M1607.92,646.42c0,1.4-1.14,2.53-2.53,2.53c-1.4,0-2.54-1.13-2.54-2.53c0-1.4,1.14-2.54,2.54-2.54
					C1606.78,643.89,1607.92,645.02,1607.92,646.42z"/>
				<path fill="#6A3DBF" d="M1628.2,646.42c0,1.4-1.14,2.53-2.53,2.53c-1.4,0-2.54-1.13-2.54-2.53c0-1.4,1.14-2.54,2.54-2.54
					C1627.06,643.89,1628.2,645.02,1628.2,646.42z"/>
				<path fill="#6A3DBF" d="M1648.47,646.42c0,1.4-1.14,2.53-2.53,2.53c-1.4,0-2.54-1.13-2.54-2.53c0-1.4,1.14-2.54,2.54-2.54
					C1647.33,643.89,1648.47,645.02,1648.47,646.42z"/>
			</g>
			<g>
				<path fill="#6A3DBF" d="M1607.92,666.7c0,1.4-1.14,2.53-2.53,2.53c-1.4,0-2.54-1.13-2.54-2.53c0-1.4,1.14-2.54,2.54-2.54
					C1606.78,664.16,1607.92,665.3,1607.92,666.7z"/>
				<path fill="#6A3DBF" d="M1628.2,666.7c0,1.4-1.14,2.53-2.53,2.53c-1.4,0-2.54-1.13-2.54-2.53c0-1.4,1.14-2.54,2.54-2.54
					C1627.06,664.16,1628.2,665.3,1628.2,666.7z"/>
				<path fill="#6A3DBF" d="M1648.47,666.7c0,1.4-1.14,2.53-2.53,2.53c-1.4,0-2.54-1.13-2.54-2.53c0-1.4,1.14-2.54,2.54-2.54
					C1647.33,664.16,1648.47,665.3,1648.47,666.7z"/>
			</g>
		</g>
	</g>
</g>
<path opacity="0.22" fill="#6FE2D1" d="M1774,598.24l-146.12-19.48l19.48,146.12L1774,598.24z M1763.16,601.92l-112.13,112.13
	l-17.25-129.38L1763.16,601.92z"/>
<path opacity="0.22" fill="#FABA12" d="M1746.43,566.74c0,5.55-4.49,10.04-10.04,10.04c-5.54,0-10.04-4.5-10.04-10.04
	c0-5.55,4.5-10.04,10.04-10.04C1741.94,556.7,1746.43,561.2,1746.43,566.74z"/>
<path opacity="0.22" fill="#6FE2D1" d="M1741.75,543.41c0-15.1-12.28-27.38-27.38-27.38s-27.38,12.28-27.38,27.38
	c0,15.1,12.28,27.38,27.38,27.38S1741.75,558.51,1741.75,543.41z M1738.37,543.41c0,13.24-10.77,24-24,24c-13.24,0-24-10.76-24-24
	c0-13.24,10.77-24,24-24C1727.61,519.41,1738.37,530.18,1738.37,543.41z"/>
<polygon opacity="0.22" fill="#6A3DBF" points="1707.76,618.25 1702.93,618.25 1702.93,613.43 1698.95,613.43 1698.95,618.25 
	1694.12,618.25 1694.12,622.24 1698.95,622.24 1698.95,627.07 1702.93,627.07 1702.93,622.24 1707.76,622.24 "/>
<polygon opacity="0.22" fill="#6A3DBF" points="1893.56,1047.81 1888.74,1047.81 1888.74,1042.98 1884.74,1042.98 1884.74,1047.81 
	1879.92,1047.81 1879.92,1051.8 1884.74,1051.8 1884.74,1056.62 1888.74,1056.62 1888.74,1051.8 1893.56,1051.8 "/>
<g opacity="0.22">
	<defs>
		<polygon id="SVGID_10_" opacity="0.22" points="1521.42,255.59 1620.4,288.33 1592.33,207.25 		"/>
	</defs>
	<clipPath id="SVGID_21_">
		<use xlink:href="#SVGID_10_"  overflow="visible"/>
	</clipPath>
	<g clip-path="url(#SVGID_21_)">
		<g>
			<g>
				<g>
					
						<rect x="1684.85" y="-54.77" transform="matrix(0.3158 -0.9488 0.9488 0.3158 1056.3457 1669.693)" fill="#6A3DBF" width="2.13" height="314.32"/>
					
						<rect x="1679.27" y="-37.91" transform="matrix(0.3138 -0.9495 0.9495 0.3138 1039.8319 1677.2971)" fill="#6A3DBF" width="2.13" height="314.32"/>
				</g>
				<g>
					<polygon fill="#6A3DBF" points="1525.22,87.75 1525.9,85.73 1824.3,184.47 1823.63,186.49 					"/>
					
						<rect x="1668.12" y="-4.19" transform="matrix(0.3139 -0.9495 0.9495 0.3139 1000.0063 1689.7717)" fill="#6A3DBF" width="2.13" height="314.32"/>
				</g>
			</g>
			<g>
				<g>
					
						<rect x="1662.54" y="12.67" transform="matrix(0.3138 -0.9495 0.9495 0.3138 980.3483 1696.1226)" fill="#6A3DBF" width="2.13" height="314.32"/>
					
						<rect x="1656.96" y="29.53" transform="matrix(0.3162 -0.9487 0.9487 0.3162 956.6059 1700.5907)" fill="#6A3DBF" width="2.13" height="314.32"/>
				</g>
				<g>
					
						<rect x="1651.38" y="46.39" transform="matrix(0.3117 -0.9502 0.9502 0.3117 943.9361 1710.2065)" fill="#6A3DBF" width="2.13" height="314.32"/>
					<polygon fill="#6A3DBF" points="1497.33,172.04 1498,170.02 1796.4,268.77 1795.74,270.79 					"/>
				</g>
			</g>
		</g>
		<g>
			<g>
				<g>
					
						<rect x="1640.22" y="80.1" transform="matrix(0.3138 -0.9495 0.9495 0.3138 901.0051 1721.2095)" fill="#6A3DBF" width="2.13" height="314.32"/>
					
						<rect x="1634.65" y="96.96" transform="matrix(0.3137 -0.9495 0.9495 0.3137 881.2181 1727.5093)" fill="#6A3DBF" width="2.13" height="314.32"/>
				</g>
				<g>
					<polygon fill="#6A3DBF" points="1480.59,222.62 1481.27,220.6 1779.67,319.34 1778.99,321.37 					"/>
					
						<rect x="1623.49" y="130.68" transform="matrix(0.3117 -0.9502 0.9502 0.3117 844.6125 1741.7053)" fill="#6A3DBF" width="2.13" height="314.32"/>
				</g>
			</g>
			<g>
				<g>
					
						<rect x="1617.91" y="147.54" transform="matrix(0.3159 -0.9488 0.9488 0.3159 818.4265 1744.5037)" fill="#6A3DBF" width="2.13" height="314.31"/>
					
						<rect x="1612.33" y="164.4" transform="matrix(0.3118 -0.9502 0.9502 0.3118 804.8601 1754.2878)" fill="#6A3DBF" width="2.13" height="314.31"/>
				</g>
				<g>
					
						<rect x="1606.75" y="181.26" transform="matrix(0.3139 -0.9495 0.9495 0.3139 781.8287 1758.7502)" fill="#6A3DBF" width="2.13" height="314.32"/>
					
						<rect x="1601.17" y="198.12" transform="matrix(0.3137 -0.9495 0.9495 0.3137 762.1981 1765.1417)" fill="#6A3DBF" width="2.13" height="314.32"/>
				</g>
			</g>
		</g>
	</g>
</g>
<polygon opacity="0.22" fill="#F7BAF4" points="1476.55,314.89 1503.86,268.24 1458.44,272.97 "/>
<g opacity="0.22">
	<defs>
		<path id="SVGID_8_" opacity="0.22" d="M1482.22,288.85c-9.81,37.67-48.3,60.26-85.97,50.46c-37.67-9.81-60.26-48.29-50.46-85.96
			c9.8-37.67,48.29-60.27,85.97-50.46C1469.42,212.69,1492.01,251.17,1482.22,288.85z"/>
	</defs>
	<clipPath id="SVGID_22_">
		<use xlink:href="#SVGID_8_"  overflow="visible"/>
	</clipPath>
	<g clip-path="url(#SVGID_22_)">
		<g>
			<g>
				<g>
					<polygon fill="#6A3DBF" points="1297.3,375.42 1296.21,375.14 1363.56,116.39 1364.63,116.67 					"/>
					<polygon fill="#6A3DBF" points="1310.17,378.77 1309.09,378.48 1376.44,119.75 1377.51,120.03 					"/>
				</g>
				<g>
					<polygon fill="#6A3DBF" points="1323.04,382.12 1321.97,381.84 1389.31,123.1 1390.39,123.38 					"/>
					<polygon fill="#6A3DBF" points="1335.92,385.47 1334.84,385.19 1402.19,126.45 1403.26,126.73 					"/>
				</g>
			</g>
			<g>
				<g>
					<polygon fill="#6A3DBF" points="1348.79,388.82 1347.72,388.54 1415.06,129.81 1416.14,130.08 					"/>
					<polygon fill="#6A3DBF" points="1361.67,392.17 1360.59,391.89 1427.94,133.15 1429.01,133.43 					"/>
				</g>
				<g>
					<polygon fill="#6A3DBF" points="1374.54,395.53 1373.47,395.25 1440.81,136.5 1441.89,136.78 					"/>
					<polygon fill="#6A3DBF" points="1387.42,398.88 1386.35,398.6 1453.7,139.86 1454.76,140.13 					"/>
				</g>
			</g>
		</g>
		<g>
			<g>
				<g>
					<polygon fill="#6A3DBF" points="1400.3,402.23 1399.22,401.95 1466.57,143.2 1467.64,143.49 					"/>
					<polygon fill="#6A3DBF" points="1413.17,405.58 1412.1,405.3 1479.44,146.56 1480.52,146.84 					"/>
				</g>
				<g>
					
						<rect x="1325.5" y="278.86" transform="matrix(0.255 -0.9669 0.9669 0.255 816.8861 1619.0952)" fill="#6A3DBF" width="267.36" height="1.11"/>
					<polygon fill="#6A3DBF" points="1438.93,412.28 1437.85,412 1505.19,153.26 1506.27,153.54 					"/>
				</g>
			</g>
			<g>
				<g>
					<polygon fill="#6A3DBF" points="1451.8,415.63 1450.72,415.35 1518.07,156.61 1519.14,156.89 					"/>
					<polygon fill="#6A3DBF" points="1464.68,418.98 1463.6,418.7 1530.94,159.97 1532.02,160.24 					"/>
				</g>
				<g>
					<polygon fill="#6A3DBF" points="1477.55,422.33 1476.48,422.05 1543.82,163.32 1544.89,163.59 					"/>
					
						<rect x="1389.88" y="295.62" transform="matrix(0.2519 -0.9678 0.9678 0.2519 853.2062 1696.0275)" fill="#6A3DBF" width="267.36" height="1.1"/>
				</g>
			</g>
		</g>
	</g>
</g>
<polygon opacity="0.22" fill="#6A3DBF" points="1501.31,332.82 1496.48,332.82 1496.48,328 1492.49,328 1492.49,332.82 
	1487.67,332.82 1487.67,336.81 1492.49,336.81 1492.49,341.64 1496.48,341.64 1496.48,336.81 1501.31,336.81 "/>
<g opacity="0.22">
	<defs>
		<polygon id="SVGID_2_" opacity="0.22" points="1489.05,62.06 1582.5,15.86 1505.56,-22.15 		"/>
	</defs>
	<clipPath id="SVGID_23_">
		<use xlink:href="#SVGID_2_"  overflow="visible"/>
	</clipPath>
	<g clip-path="url(#SVGID_23_)">
		<g>
			<g>
				<g>
					
						<rect x="1341.38" y="-163.59" transform="matrix(0.8972 -0.4416 0.4416 0.8972 225.8145 645.0681)" fill="#6A3DBF" width="314.32" height="2.13"/>
					
						<rect x="1349.25" y="-147.67" transform="matrix(0.8963 -0.4435 0.4435 0.8963 221.2848 652.9067)" fill="#6A3DBF" width="314.32" height="2.13"/>
				</g>
				<g>
					<polygon fill="#6A3DBF" points="1373.87,-60.08 1372.93,-61.99 1654.69,-201.29 1655.63,-199.38 					"/>
					
						<rect x="1364.99" y="-115.83" transform="matrix(0.8963 -0.4434 0.4434 0.8963 208.7185 663.0556)" fill="#6A3DBF" width="314.32" height="2.13"/>
				</g>
			</g>
			<g>
				<g>
					
						<rect x="1372.86" y="-99.91" transform="matrix(0.8963 -0.4435 0.4435 0.8963 202.5646 668.35)" fill="#6A3DBF" width="314.32" height="2.13"/>
					
						<rect x="1380.73" y="-83.99" transform="matrix(0.8974 -0.4412 0.4412 0.8974 194.3743 670.0311)" fill="#6A3DBF" width="314.32" height="2.13"/>
				</g>
				<g>
					
						<rect x="1388.6" y="-68.07" transform="matrix(0.8953 -0.4455 0.4455 0.8953 191.6942 681.5701)" fill="#6A3DBF" width="314.32" height="2.13"/>
					<polygon fill="#6A3DBF" points="1413.22,19.51 1412.28,17.6 1694.04,-121.69 1694.99,-119.78 					"/>
				</g>
			</g>
		</g>
		<g>
			<g>
				<g>
					
						<rect x="1404.34" y="-36.24" transform="matrix(0.8963 -0.4435 0.4435 0.8963 177.5882 688.9174)" fill="#6A3DBF" width="314.32" height="2.13"/>
					
						<rect x="1412.21" y="-20.32" transform="matrix(0.8962 -0.4436 0.4436 0.8962 171.3682 694.1078)" fill="#6A3DBF" width="314.32" height="2.13"/>
				</g>
				<g>
					<polygon fill="#6A3DBF" points="1436.83,67.27 1435.89,65.36 1717.65,-73.94 1718.59,-72.02 					"/>
					
						<rect x="1427.95" y="11.52" transform="matrix(0.8953 -0.4454 0.4454 0.8953 160.343 707.4037)" fill="#6A3DBF" width="314.32" height="2.13"/>
				</g>
			</g>
			<g>
				<g>
					
						<rect x="1435.82" y="27.44" transform="matrix(0.8973 -0.4415 0.4415 0.8973 151.0864 706.2503)" fill="#6A3DBF" width="314.31" height="2.13"/>
					
						<rect x="1443.69" y="43.36" transform="matrix(0.8953 -0.4454 0.4454 0.8953 147.7916 717.7097)" fill="#6A3DBF" width="314.31" height="2.13"/>
				</g>
				<g>
					
						<rect x="1451.56" y="59.28" transform="matrix(0.8963 -0.4434 0.4434 0.8963 140.0493 719.6053)" fill="#6A3DBF" width="314.32" height="2.13"/>
					
						<rect x="1459.43" y="75.2" transform="matrix(0.8962 -0.4436 0.4436 0.8962 133.9002 724.9625)" fill="#6A3DBF" width="314.32" height="2.13"/>
				</g>
			</g>
		</g>
	</g>
</g>
<polygon opacity="0.22" fill="#F7BAF4" points="1649.39,101.99 1636.06,49.61 1607.06,84.87 "/>
<g opacity="0.22">
	<defs>
		<path id="SVGID_1_" opacity="0.22" d="M1635.13,79.48c19.48,33.71,7.94,76.82-25.76,96.3c-33.7,19.48-76.81,7.95-96.29-25.75
			c-19.48-33.7-7.95-76.82,25.75-96.3C1572.54,34.25,1615.65,45.78,1635.13,79.48z"/>
	</defs>
	<clipPath id="SVGID_24_">
		<use xlink:href="#SVGID_1_"  overflow="visible"/>
	</clipPath>
	<g clip-path="url(#SVGID_24_)">
		<g>
			<g>
				<g>
					<polygon fill="#6A3DBF" points="1564.31,270.98 1563.34,271.54 1429.55,40.06 1430.51,39.51 					"/>
					<polygon fill="#6A3DBF" points="1575.82,264.33 1574.86,264.88 1441.07,33.41 1442.03,32.85 					"/>
				</g>
				<g>
					<polygon fill="#6A3DBF" points="1587.34,257.67 1586.38,258.23 1452.58,26.75 1453.55,26.19 					"/>
					<polygon fill="#6A3DBF" points="1598.86,251.01 1597.9,251.57 1464.11,20.09 1465.06,19.54 					"/>
				</g>
			</g>
			<g>
				<g>
					<polygon fill="#6A3DBF" points="1610.37,244.35 1609.42,244.91 1475.63,13.44 1476.59,12.88 					"/>
					<polygon fill="#6A3DBF" points="1621.9,237.69 1620.93,238.25 1487.15,6.77 1488.11,6.22 					"/>
				</g>
				<g>
					<polygon fill="#6A3DBF" points="1633.41,231.05 1632.46,231.59 1498.66,0.12 1499.63,-0.44 					"/>
					<polygon fill="#6A3DBF" points="1644.94,224.38 1643.98,224.94 1510.19,-6.55 1511.14,-7.09 					"/>
				</g>
			</g>
		</g>
		<g>
			<g>
				<g>
					<polygon fill="#6A3DBF" points="1656.45,217.72 1655.49,218.28 1521.7,-13.21 1522.66,-13.75 					"/>
					<polygon fill="#6A3DBF" points="1667.97,211.06 1667.01,211.62 1533.22,-19.86 1534.18,-20.42 					"/>
				</g>
				<g>
					
						<rect x="1611.56" y="-44.74" transform="matrix(0.8674 -0.4976 0.4976 0.8674 169.5012 813.9898)" fill="#6A3DBF" width="1.11" height="267.36"/>
					<polygon fill="#6A3DBF" points="1691.01,197.74 1690.05,198.3 1556.26,-33.17 1557.22,-33.73 					"/>
				</g>
			</g>
			<g>
				<g>
					<polygon fill="#6A3DBF" points="1702.53,191.09 1701.57,191.65 1567.78,-39.83 1568.73,-40.39 					"/>
					<polygon fill="#6A3DBF" points="1714.05,184.43 1713.09,184.99 1579.3,-46.48 1580.26,-47.04 					"/>
				</g>
				<g>
					<polygon fill="#6A3DBF" points="1725.56,177.77 1724.6,178.33 1590.82,-53.15 1591.78,-53.7 					"/>
					
						<rect x="1669.16" y="-78.02" transform="matrix(0.8658 -0.5004 0.5004 0.8658 196.264 843.0499)" fill="#6A3DBF" width="1.1" height="267.36"/>
				</g>
			</g>
		</g>
	</g>
</g>
<polygon opacity="0.22" fill="#F7BAF4" points="248.95,692.52 235.62,640.14 206.62,675.4 "/>
<g opacity="0.22">
	<defs>
		<path id="SVGID_5_" opacity="0.22" d="M234.69,670.01c19.48,33.71,7.94,76.82-25.76,96.3c-33.7,19.48-76.81,7.95-96.29-25.75
			c-19.48-33.7-7.95-76.82,25.75-96.3C172.09,624.78,215.21,636.31,234.69,670.01z"/>
	</defs>
	<clipPath id="SVGID_25_">
		<use xlink:href="#SVGID_5_"  overflow="visible"/>
	</clipPath>
	<g clip-path="url(#SVGID_25_)">
		<g>
			<g>
				<g>
					<polygon fill="#6A3DBF" points="163.86,861.51 162.9,862.07 29.1,630.59 30.07,630.04 					"/>
					<polygon fill="#6A3DBF" points="175.38,854.85 174.42,855.41 40.63,623.93 41.59,623.38 					"/>
				</g>
				<g>
					<polygon fill="#6A3DBF" points="186.9,848.2 185.94,848.75 52.14,617.28 53.11,616.72 					"/>
					<polygon fill="#6A3DBF" points="198.41,841.54 197.46,842.1 63.67,610.62 64.62,610.06 					"/>
				</g>
			</g>
			<g>
				<g>
					<polygon fill="#6A3DBF" points="209.93,834.88 208.98,835.44 75.19,603.97 76.15,603.41 					"/>
					<polygon fill="#6A3DBF" points="221.46,828.22 220.49,828.78 86.7,597.3 87.66,596.75 					"/>
				</g>
				<g>
					<polygon fill="#6A3DBF" points="232.97,821.57 232.02,822.12 98.22,590.65 99.18,590.09 					"/>
					<polygon fill="#6A3DBF" points="244.5,814.91 243.53,815.47 109.75,583.98 110.7,583.43 					"/>
				</g>
			</g>
		</g>
		<g>
			<g>
				<g>
					<polygon fill="#6A3DBF" points="256.01,808.25 255.05,808.81 121.26,577.32 122.22,576.78 					"/>
					<polygon fill="#6A3DBF" points="267.53,801.59 266.57,802.15 132.78,570.67 133.74,570.11 					"/>
				</g>
				<g>
					
						<rect x="211.12" y="545.79" transform="matrix(0.8674 -0.4976 0.4976 0.8674 -310.0423 195.4246)" fill="#6A3DBF" width="1.11" height="267.36"/>
					<polygon fill="#6A3DBF" points="290.57,788.27 289.61,788.83 155.82,557.36 156.78,556.8 					"/>
				</g>
			</g>
			<g>
				<g>
					<polygon fill="#6A3DBF" points="302.09,781.62 301.12,782.18 167.33,550.7 168.29,550.14 					"/>
					<polygon fill="#6A3DBF" points="313.61,774.96 312.65,775.51 178.85,544.05 179.82,543.48 					"/>
				</g>
				<g>
					<polygon fill="#6A3DBF" points="325.12,768.3 324.16,768.86 190.38,537.38 191.33,536.83 					"/>
					
						<rect x="268.72" y="512.51" transform="matrix(0.8658 -0.5004 0.5004 0.8658 -287.2299 221.4861)" fill="#6A3DBF" width="1.1" height="267.36"/>
				</g>
			</g>
		</g>
	</g>
</g>
<polygon opacity="0.22" fill="#6A3DBF" points="1679.61,97.37 1676.18,100.76 1672.79,97.33 1669.95,100.13 1673.33,103.57 
	1669.9,106.96 1672.7,109.8 1676.14,106.41 1679.53,109.84 1682.37,107.04 1678.98,103.6 1682.41,100.21 "/>
<polygon opacity="0.22" fill="#6A3DBF" points="17.23,167.11 12.41,167.11 12.41,162.29 8.42,162.29 8.42,167.11 3.6,167.11 
	3.6,171.1 8.42,171.1 8.42,175.93 12.41,175.93 12.41,171.1 17.23,171.1 "/>
<path opacity="0.22" fill="#F7BAF4" d="M50.96,581.74c-3.71,4.39-10.28,4.94-14.67,1.23c-4.39-3.71-4.95-10.28-1.24-14.67
	c3.71-4.4,10.28-4.95,14.68-1.24C54.11,570.77,54.67,577.34,50.96,581.74z"/>
<path opacity="0.22" fill="#F7BAF4" d="M1442.2,994.8h15.62c0,20.63,16.79,37.42,37.42,37.42c20.63,0,37.42-16.79,37.42-37.42
	l15.61,0c0,29.24-23.79,53.03-53.03,53.03C1465.99,1047.84,1442.2,1024.05,1442.2,994.8z"/>
<path opacity="0.22" fill="#6FE2D1" d="M1732.83,886.52l-6.5,14.2c-18.76-8.59-41.01-0.31-49.6,18.45
	c-8.59,18.76-0.31,41.01,18.45,49.6l-6.5,14.19c-26.59-12.17-38.32-43.7-26.15-70.29C1674.7,886.08,1706.23,874.35,1732.83,886.52z"
	/>
<path opacity="0.22" fill="#FABA12" d="M1575.64,1000.29c5.26-5.26,13.77-5.25,19.03,0c5.26,5.26,5.26,13.77,0,19.03
	c-5.26,5.26-13.77,5.25-19.03,0C1570.38,1014.07,1570.38,1005.55,1575.64,1000.29z"/>
<path opacity="0.22" fill="#F7BAF4" d="M1599.57,1000.79c-10.68,10.68-10.68,28.05,0,38.73c10.68,10.68,28.05,10.68,38.73,0
	c10.67-10.67,10.67-28.04,0-38.72C1627.61,990.12,1610.24,990.12,1599.57,1000.79z M1601.96,1003.18c9.36-9.36,24.58-9.36,33.94,0
	c9.36,9.36,9.36,24.58,0,33.94c-9.36,9.36-24.59,9.36-33.95,0C1592.59,1027.77,1592.6,1012.54,1601.96,1003.18z"/>
<polygon opacity="0.22" fill="#F7BAF4" points="1554.64,939.63 1522.08,924.09 1527.78,954.03 "/>
<polygon opacity="0.22" fill="#F7BAF4" points="1821.67,809.47 1789.11,793.93 1794.81,823.88 "/>
<path opacity="0.22" fill="#FABA12" d="M1647.7,818.47c0.93,7.37-4.3,14.1-11.67,15.02c-7.38,0.93-14.1-4.3-15.03-11.67
	c-0.93-7.38,4.3-14.11,11.67-15.03C1640.05,805.88,1646.78,811.1,1647.7,818.47z"/>
<path opacity="0.22" fill="#F7BAF4" d="M1661.99,842.5c-1.89-14.98-15.6-25.63-30.59-23.75c-14.98,1.88-25.63,15.6-23.75,30.58
	c1.88,14.97,15.6,25.63,30.58,23.75C1653.21,871.19,1663.87,857.48,1661.99,842.5z M1658.63,842.92
	c1.65,13.13-7.69,25.15-20.83,26.8c-13.13,1.65-25.15-7.69-26.8-20.82c-1.65-13.14,7.69-25.16,20.82-26.81
	C1644.96,820.45,1656.98,829.78,1658.63,842.92z"/>
<polygon opacity="0.22" fill="#6A3DBF" points="1564.81,889.69 1569.81,894.7 1564.81,899.71 1568.95,903.85 1573.96,898.84 
	1578.96,903.85 1583.1,899.71 1578.1,894.7 1583.1,889.69 1578.96,885.55 1573.95,890.56 1568.95,885.55 "/>
<path opacity="0.22" fill="#6FE2D1" d="M1418.09,108.97c-14.79,3.08-24.3,17.62-21.21,32.4c3.08,14.78,17.62,24.29,32.4,21.2
	c14.78-3.08,24.29-17.61,21.21-32.39C1447.4,115.4,1432.86,105.88,1418.09,108.97z M1418.77,112.28c12.96-2.71,25.7,5.64,28.4,18.59
	c2.71,12.96-5.64,25.69-18.59,28.4c-12.96,2.71-25.69-5.64-28.41-18.59C1397.48,127.72,1405.82,114.98,1418.77,112.28z"/>
<path opacity="0.22" fill="#F7BAF4" d="M1120.4-1.02l15.62,0c0,20.63,16.79,37.42,37.42,37.42c20.63,0,37.42-16.79,37.42-37.42
	l15.61,0c0,29.24-23.79,53.03-53.03,53.03C1144.2,52.01,1120.4,28.22,1120.4-1.02z"/>
<path opacity="0.22" fill="#6FE2D1" d="M1437.23-12.07l-6.5,14.2c-18.76-8.59-41.01-0.31-49.6,18.45
	c-8.59,18.76-0.31,41.01,18.45,49.6l-6.5,14.19c-26.59-12.17-38.32-43.7-26.15-70.29C1379.1-12.51,1410.63-24.24,1437.23-12.07z"/>
<path opacity="0.22" fill="#FABA12" d="M1280.03,101.7c5.26-5.26,13.77-5.25,19.03,0c5.26,5.26,5.26,13.77,0,19.03
	c-5.26,5.26-13.77,5.25-19.03,0C1274.78,115.48,1274.78,106.96,1280.03,101.7z"/>
<path opacity="0.22" fill="#F7BAF4" d="M1303.96,102.2c-10.68,10.68-10.68,28.05,0,38.73c10.68,10.68,28.05,10.68,38.73,0
	c10.67-10.67,10.67-28.04,0-38.72C1332.01,91.53,1314.64,91.53,1303.96,102.2z M1306.35,104.59c9.36-9.36,24.58-9.36,33.94,0
	c9.36,9.36,9.36,24.58,0,33.94c-9.36,9.36-24.59,9.36-33.95,0C1296.99,129.18,1296.99,113.95,1306.35,104.59z"/>
<polygon opacity="0.22" fill="#F7BAF4" points="1259.04,84.94 1226.47,69.4 1232.17,99.35 "/>
<path opacity="0.22" fill="#F7BAF4" d="M-38.99,705.51h15.62c0,20.63,16.79,37.42,37.42,37.42c20.63,0,37.42-16.79,37.42-37.42
	l15.61,0c0,29.24-23.79,53.03-53.03,53.03C-15.19,758.54-38.99,734.75-38.99,705.51z"/>
<polygon opacity="0.22" fill="#F7BAF4" points="73.46,650.33 40.89,634.79 46.59,664.74 "/>
<path opacity="0.22" fill="#FABA12" d="M1339.61-33.52c0.93,7.37-4.3,14.1-11.67,15.02c-7.38,0.93-14.1-4.3-15.03-11.67
	c-0.93-7.38,4.3-14.11,11.67-15.03C1331.96-46.12,1338.69-40.9,1339.61-33.52z"/>
<path opacity="0.22" fill="#F7BAF4" d="M1353.9-9.5c-1.89-14.98-15.6-25.63-30.59-23.75c-14.98,1.88-25.63,15.6-23.75,30.58
	c1.88,14.97,15.6,25.63,30.58,23.75C1345.12,19.2,1355.78,5.48,1353.9-9.5z M1350.54-9.08c1.65,13.13-7.69,25.15-20.83,26.8
	c-13.13,1.65-25.15-7.69-26.8-20.82c-1.65-13.14,7.69-25.16,20.82-26.81C1336.87-31.55,1348.89-22.21,1350.54-9.08z"/>
<polygon opacity="0.22" fill="#6A3DBF" points="1256.72,37.7 1261.72,42.7 1256.72,47.71 1260.86,51.85 1265.87,46.85 
	1270.87,51.85 1275.01,47.71 1270.01,42.7 1275.01,37.7 1270.87,33.55 1265.86,38.56 1260.86,33.56 "/>
<path opacity="0.22" fill="#F7BAF4" d="M1717.59,811.95c4.06-4.06,10.66-4.06,14.72,0c4.07,4.07,4.07,10.66,0,14.72
	c-4.07,4.07-10.66,4.07-14.73,0C1713.52,822.61,1713.52,816.02,1717.59,811.95z"/>
<path opacity="0.22" fill="#F7BAF4" d="M158.43,14.39c0,2.28-1.85,4.13-4.13,4.13c-2.28,0-4.13-1.85-4.13-4.13
	c0-2.28,1.85-4.13,4.13-4.13C156.58,10.26,158.43,12.11,158.43,14.39z"/>
<g opacity="0.22">
	<defs>
		<polygon id="SVGID_9_" opacity="0.22" points="444.49,1056.66 359.63,971.8 346.57,1069.72 		"/>
	</defs>
	<clipPath id="SVGID_26_">
		<use xlink:href="#SVGID_9_"  overflow="visible"/>
	</clipPath>
	<g clip-path="url(#SVGID_26_)">
		<g>
			<g>
				<g>
					
						<rect x="194.85" y="948.25" transform="matrix(0.7071 -0.7072 0.7072 0.7071 -741.0708 469.451)" fill="#6A3DBF" width="2.46" height="361.85"/>
					
						<rect x="209.31" y="933.79" transform="matrix(0.7071 -0.7071 0.7071 0.7071 -726.5615 475.3667)" fill="#6A3DBF" width="2.45" height="361.86"/>
				</g>
				<g>
					
						<rect x="223.77" y="919.34" transform="matrix(0.7066 -0.7076 0.7076 0.7066 -712.5524 482.0298)" fill="#6A3DBF" width="2.45" height="361.85"/>
					
						<rect x="238.22" y="904.89" transform="matrix(0.7081 -0.7061 0.7061 0.7081 -696.8243 486.0493)" fill="#6A3DBF" width="2.45" height="361.85"/>
				</g>
			</g>
			<g>
				<g>
					
						<rect x="252.68" y="890.43" transform="matrix(0.7076 -0.7066 0.7066 0.7076 -682.7747 492.6492)" fill="#6A3DBF" width="2.45" height="361.85"/>
					
						<rect x="267.13" y="875.98" transform="matrix(0.7066 -0.7076 0.7076 0.7066 -669.1454 499.9983)" fill="#6A3DBF" width="2.45" height="361.85"/>
				</g>
				<g>
					
						<rect x="281.59" y="861.52" transform="matrix(0.7065 -0.7077 0.7077 0.7065 -654.7158 506.0609)" fill="#6A3DBF" width="2.45" height="361.85"/>
					
						<rect x="296.05" y="847.06" transform="matrix(0.7066 -0.7076 0.7076 0.7066 -640.1648 511.9057)" fill="#6A3DBF" width="2.45" height="361.85"/>
				</g>
			</g>
		</g>
		<g>
			<g>
				<g>
					
						<rect x="310.5" y="832.61" transform="matrix(0.7066 -0.7076 0.7076 0.7066 -625.7288 517.955)" fill="#6A3DBF" width="2.45" height="361.85"/>
					
						<rect x="324.96" y="818.15" transform="matrix(0.7071 -0.7072 0.7072 0.7071 -610.9508 523.3383)" fill="#6A3DBF" width="2.46" height="361.85"/>
				</g>
				<g>
					
						<rect x="339.41" y="803.69" transform="matrix(0.7066 -0.7076 0.7076 0.7066 -596.7613 529.8761)" fill="#6A3DBF" width="2.45" height="361.85"/>
					
						<rect x="353.87" y="789.23" transform="matrix(0.7061 -0.7081 0.7081 0.7061 -582.6338 536.6063)" fill="#6A3DBF" width="2.45" height="361.86"/>
				</g>
			</g>
			<g>
				<g>
					
						<rect x="368.33" y="774.78" transform="matrix(0.7081 -0.7061 0.7061 0.7081 -566.9429 539.8729)" fill="#6A3DBF" width="2.45" height="361.86"/>
					
						<rect x="382.79" y="760.32" transform="matrix(0.7071 -0.7071 0.7071 0.7071 -553.0934 547.2277)" fill="#6A3DBF" width="2.45" height="361.85"/>
				</g>
				<g>
					
						<rect x="397.24" y="745.87" transform="matrix(0.7071 -0.7071 0.7071 0.7071 -538.6373 553.2089)" fill="#6A3DBF" width="2.45" height="361.85"/>
					
						<rect x="411.69" y="731.41" transform="matrix(0.7066 -0.7076 0.7076 0.7066 -524.4331 559.8708)" fill="#6A3DBF" width="2.45" height="361.86"/>
				</g>
			</g>
		</g>
	</g>
</g>
<polygon opacity="0.22" fill="#6A3DBF" points="321.44,1035 321.44,1036.92 319.52,1036.92 319.52,1038.5 321.44,1038.5 
	321.44,1040.42 323.02,1040.42 323.02,1038.5 324.94,1038.5 324.94,1036.92 323.02,1036.92 323.02,1035 "/>
<path opacity="0.22" fill="#F7BAF4" d="M330.64,932.51c2.28,0,4.13,1.85,4.13,4.13c0,2.28-1.85,4.13-4.13,4.13
	c-2.28,0-4.13-1.85-4.13-4.13C326.5,934.36,328.36,932.51,330.64,932.51z"/>
<g opacity="0.22">
	<defs>
		<polygon id="SVGID_7_" opacity="0.22" points="1695.94,437.58 1780.8,352.71 1682.88,339.65 		"/>
	</defs>
	<clipPath id="SVGID_27_">
		<use xlink:href="#SVGID_7_"  overflow="visible"/>
	</clipPath>
	<g clip-path="url(#SVGID_27_)">
		<g>
			<g>
				<g>
					
						<rect x="1442.5" y="187.94" transform="matrix(0.7071 -0.7072 0.7072 0.7071 341.8098 1203.4379)" fill="#6A3DBF" width="361.85" height="2.46"/>
					
						<rect x="1456.95" y="202.39" transform="matrix(0.7071 -0.7071 0.7071 0.7071 335.7428 1217.7966)" fill="#6A3DBF" width="361.86" height="2.45"/>
				</g>
				<g>
					
						<rect x="1471.41" y="216.85" transform="matrix(0.7066 -0.7076 0.7076 0.7066 330.4861 1233.2041)" fill="#6A3DBF" width="361.85" height="2.45"/>
					
						<rect x="1485.87" y="231.3" transform="matrix(0.7081 -0.7061 0.7061 0.7081 322.3695 1244.8529)" fill="#6A3DBF" width="361.85" height="2.45"/>
				</g>
			</g>
			<g>
				<g>
					
						<rect x="1500.32" y="245.76" transform="matrix(0.7076 -0.7066 0.7066 0.7076 317.0428 1260.1719)" fill="#6A3DBF" width="361.85" height="2.45"/>
					
						<rect x="1514.78" y="260.22" transform="matrix(0.7066 -0.7076 0.7076 0.7066 312.5277 1276.6211)" fill="#6A3DBF" width="361.85" height="2.45"/>
				</g>
				<g>
					
						<rect x="1529.23" y="274.67" transform="matrix(0.7065 -0.7077 0.7077 0.7065 306.6216 1291.2061)" fill="#6A3DBF" width="361.85" height="2.45"/>
					
						<rect x="1543.69" y="289.13" transform="matrix(0.7066 -0.7076 0.7076 0.7066 300.4788 1305.4611)" fill="#6A3DBF" width="361.85" height="2.45"/>
				</g>
			</g>
		</g>
		<g>
			<g>
				<g>
					
						<rect x="1558.14" y="303.58" transform="matrix(0.7066 -0.7076 0.7076 0.7066 294.5569 1320.0236)" fill="#6A3DBF" width="361.85" height="2.45"/>
					
						<rect x="1572.6" y="318.04" transform="matrix(0.7071 -0.7072 0.7072 0.7071 287.9128 1333.5481)" fill="#6A3DBF" width="361.85" height="2.46"/>
				</g>
				<g>
					
						<rect x="1587.06" y="332.5" transform="matrix(0.7066 -0.7076 0.7076 0.7066 282.5222 1348.8782)" fill="#6A3DBF" width="361.85" height="2.45"/>
					
						<rect x="1601.51" y="346.95" transform="matrix(0.7061 -0.7081 0.7081 0.7061 277.3394 1364.5421)" fill="#6A3DBF" width="361.86" height="2.45"/>
				</g>
			</g>
			<g>
				<g>
					
						<rect x="1615.97" y="361.41" transform="matrix(0.7081 -0.7061 0.7061 0.7081 268.4046 1374.5933)" fill="#6A3DBF" width="361.86" height="2.45"/>
					
						<rect x="1630.42" y="375.87" transform="matrix(0.7071 -0.7071 0.7071 0.7071 263.8943 1391.2771)" fill="#6A3DBF" width="361.85" height="2.45"/>
				</g>
				<g>
					
						<rect x="1644.88" y="390.32" transform="matrix(0.7071 -0.7071 0.7071 0.7071 257.9006 1405.7208)" fill="#6A3DBF" width="361.85" height="2.45"/>
					
						<rect x="1659.34" y="404.78" transform="matrix(0.7066 -0.7076 0.7076 0.7066 252.6424 1421.3207)" fill="#6A3DBF" width="361.86" height="2.45"/>
				</g>
			</g>
		</g>
	</g>
</g>
<g opacity="0.22">
	<defs>
		<path id="SVGID_6_" opacity="0.22" d="M1911.67,378.82c-7.47,28.7-36.8,45.92-65.5,38.44c-28.7-7.47-45.92-36.8-38.44-65.5
			c7.47-28.7,36.8-45.92,65.5-38.45C1901.93,320.79,1919.14,350.11,1911.67,378.82z"/>
	</defs>
	<clipPath id="SVGID_28_">
		<use xlink:href="#SVGID_6_"  overflow="visible"/>
	</clipPath>
	<g clip-path="url(#SVGID_28_)">
		<g>
			<g>
				<g>
					
						<rect x="1694.16" y="345.67" transform="matrix(0.2519 -0.9678 0.9678 0.2519 1008.7017 1997.0352)" fill="#6A3DBF" width="203.71" height="0.85"/>
					
						<rect x="1703.97" y="348.23" transform="matrix(0.2508 -0.968 0.968 0.2508 1015.3925 2009.3073)" fill="#6A3DBF" width="203.71" height="0.85"/>
				</g>
				<g>
					<polygon fill="#6A3DBF" points="1790.39,449.88 1789.58,449.67 1840.88,252.53 1841.7,252.74 					"/>
					<polygon fill="#6A3DBF" points="1800.21,452.43 1799.39,452.22 1850.7,255.08 1851.51,255.29 					"/>
				</g>
			</g>
			<g>
				<g>
					
						<rect x="1733.41" y="355.89" transform="matrix(0.2508 -0.968 0.968 0.2508 1030.0255 2043.5363)" fill="#6A3DBF" width="203.71" height="0.85"/>
					<polygon fill="#6A3DBF" points="1819.83,457.54 1819.01,457.33 1870.32,260.18 1871.13,260.4 					"/>
				</g>
				<g>
					<polygon fill="#6A3DBF" points="1829.63,460.09 1828.82,459.88 1880.13,262.74 1880.95,262.95 					"/>
					<polygon fill="#6A3DBF" points="1839.45,462.65 1838.63,462.44 1889.94,265.29 1890.76,265.51 					"/>
				</g>
			</g>
		</g>
		<g>
			<g>
				<g>
					<polygon fill="#6A3DBF" points="1849.25,465.2 1848.44,464.99 1899.75,267.85 1900.57,268.06 					"/>
					
						<rect x="1782.46" y="368.65" transform="matrix(0.2533 -0.9674 0.9674 0.2533 1049.9181 2098.4233)" fill="#6A3DBF" width="203.71" height="0.85"/>
				</g>
				<g>
					<polygon fill="#6A3DBF" points="1868.88,470.31 1868.06,470.09 1919.37,272.95 1920.19,273.16 					"/>
					<polygon fill="#6A3DBF" points="1878.69,472.86 1877.87,472.65 1929.18,275.51 1930,275.72 					"/>
				</g>
			</g>
			<g>
				<g>
					<polygon fill="#6A3DBF" points="1888.5,475.42 1887.68,475.2 1938.99,278.06 1939.81,278.27 					"/>
					<polygon fill="#6A3DBF" points="1898.31,477.97 1897.49,477.75 1948.8,280.61 1949.62,280.83 					"/>
				</g>
				<g>
					<polygon fill="#6A3DBF" points="1908.12,480.52 1907.3,480.31 1958.61,283.17 1959.43,283.38 					"/>
					
						<rect x="1841.32" y="383.98" transform="matrix(0.2533 -0.9674 0.9674 0.2533 1079.048 2166.803)" fill="#6A3DBF" width="203.71" height="0.84"/>
				</g>
			</g>
		</g>
	</g>
</g>
<polygon opacity="0.22" fill="#6A3DBF" points="1717.6,314.52 1715.68,314.52 1715.68,312.61 1714.1,312.61 1714.1,314.52 
	1712.18,314.52 1712.18,316.11 1714.1,316.11 1714.1,318.02 1715.68,318.02 1715.68,316.11 1717.6,316.11 "/>
<path opacity="0.22" fill="#F7BAF4" d="M1820.09,323.72c0,2.28-1.85,4.13-4.13,4.13c-2.28,0-4.13-1.85-4.13-4.13
	c0-2.28,1.85-4.13,4.13-4.13C1818.24,319.59,1820.09,321.44,1820.09,323.72z"/>
<g opacity="0.22">
	<defs>
		<polygon id="SVGID_4_" opacity="0.22" points="1731.68,774.64 1840.05,723.06 1752.14,677.99 		"/>
	</defs>
	<clipPath id="SVGID_29_">
		<use xlink:href="#SVGID_4_"  overflow="visible"/>
	</clipPath>
	<g clip-path="url(#SVGID_29_)">
		<g>
			<g>
				<g>
					
						<rect x="1565.54" y="515.05" transform="matrix(0.9029 -0.4298 0.4298 0.9029 -52.3497 800.7938)" fill="#6A3DBF" width="361.85" height="2.46"/>
					
						<rect x="1574.32" y="533.51" transform="matrix(0.9029 -0.4298 0.4298 0.9029 -59.453 806.2226)" fill="#6A3DBF" width="361.86" height="2.45"/>
				</g>
				<g>
					
						<rect x="1583.11" y="551.97" transform="matrix(0.9026 -0.4304 0.4304 0.9026 -66.3462 813.1082)" fill="#6A3DBF" width="361.85" height="2.45"/>
					
						<rect x="1591.9" y="570.43" transform="matrix(0.9035 -0.4285 0.4285 0.9035 -73.9504 814.8085)" fill="#6A3DBF" width="361.85" height="2.45"/>
				</g>
			</g>
			<g>
				<g>
					
						<rect x="1600.68" y="588.89" transform="matrix(0.9033 -0.4291 0.4291 0.9033 -80.8624 821.5703)" fill="#6A3DBF" width="361.85" height="2.45"/>
					
						<rect x="1609.46" y="607.35" transform="matrix(0.9026 -0.4304 0.4304 0.9026 -87.6136 829.853)" fill="#6A3DBF" width="361.85" height="2.45"/>
				</g>
				<g>
					
						<rect x="1618.25" y="625.81" transform="matrix(0.9026 -0.4305 0.4305 0.9026 -94.687 835.5845)" fill="#6A3DBF" width="361.85" height="2.45"/>
					
						<rect x="1627.04" y="644.27" transform="matrix(0.9027 -0.4303 0.4303 0.9027 -101.8076 840.873)" fill="#6A3DBF" width="361.85" height="2.45"/>
				</g>
			</g>
		</g>
		<g>
			<g>
				<g>
					
						<rect x="1635.82" y="662.73" transform="matrix(0.9026 -0.4304 0.4304 0.9026 -108.8843 846.5757)" fill="#6A3DBF" width="361.85" height="2.45"/>
					
						<rect x="1644.61" y="681.19" transform="matrix(0.9029 -0.4298 0.4298 0.9029 -116.0837 850.9003)" fill="#6A3DBF" width="361.85" height="2.46"/>
				</g>
				<g>
					
						<rect x="1653.39" y="699.65" transform="matrix(0.9027 -0.4303 0.4303 0.9027 -123.0727 857.6191)" fill="#6A3DBF" width="361.85" height="2.45"/>
					
						<rect x="1662.18" y="718.11" transform="matrix(0.9023 -0.4311 0.4311 0.9023 -130.0473 864.7611)" fill="#6A3DBF" width="361.86" height="2.45"/>
				</g>
			</g>
			<g>
				<g>
					
						<rect x="1670.97" y="736.57" transform="matrix(0.9036 -0.4284 0.4284 0.9036 -137.5239 864.5734)" fill="#6A3DBF" width="361.86" height="2.45"/>
					
						<rect x="1679.75" y="755.03" transform="matrix(0.9029 -0.4298 0.4298 0.9029 -144.4172 873.0422)" fill="#6A3DBF" width="361.85" height="2.45"/>
				</g>
				<g>
					
						<rect x="1688.54" y="773.49" transform="matrix(0.9029 -0.4298 0.4298 0.9029 -151.4974 878.5957)" fill="#6A3DBF" width="361.85" height="2.45"/>
					
						<rect x="1697.32" y="791.95" transform="matrix(0.9026 -0.4304 0.4304 0.9026 -158.5124 885.6287)" fill="#6A3DBF" width="361.86" height="2.45"/>
				</g>
			</g>
		</g>
	</g>
</g>
<g opacity="0.22">
	<defs>
		<path id="SVGID_3_" opacity="0.22" d="M1954.64,791.45c-16.64,24.55-50.04,30.96-74.59,14.31
			c-24.55-16.64-30.96-50.04-14.31-74.59c16.64-24.55,50.04-30.96,74.59-14.32C1964.87,733.5,1971.28,766.9,1954.64,791.45z"/>
	</defs>
	<clipPath id="SVGID_30_">
		<use xlink:href="#SVGID_3_"  overflow="visible"/>
	</clipPath>
	<g clip-path="url(#SVGID_30_)">
		<g>
			<g>
				<g>
					
						<rect x="1754.74" y="721.49" transform="matrix(0.5612 -0.8277 0.8277 0.5612 217.2001 1853.5056)" fill="#6A3DBF" width="203.71" height="0.85"/>
					
						<rect x="1763.14" y="727.18" transform="matrix(0.5603 -0.8283 0.8283 0.5603 217.4208 1864.7549)" fill="#6A3DBF" width="203.71" height="0.85"/>
				</g>
				<g>
					<polygon fill="#6A3DBF" points="1816.57,817.84 1815.88,817.36 1930.19,648.75 1930.89,649.22 					"/>
					<polygon fill="#6A3DBF" points="1824.97,823.53 1824.26,823.05 1938.59,654.44 1939.28,654.91 					"/>
				</g>
			</g>
			<g>
				<g>
					
						<rect x="1788.31" y="744.25" transform="matrix(0.5603 -0.8283 0.8283 0.5603 214.3528 1893.1091)" fill="#6A3DBF" width="203.71" height="0.85"/>
					<polygon fill="#6A3DBF" points="1841.75,834.9 1841.04,834.43 1955.37,665.82 1956.06,666.29 					"/>
				</g>
				<g>
					<polygon fill="#6A3DBF" points="1850.14,840.59 1849.44,840.12 1963.75,671.5 1964.45,671.98 					"/>
					<polygon fill="#6A3DBF" points="1858.53,846.28 1857.82,845.81 1972.15,677.2 1972.84,677.67 					"/>
				</g>
			</g>
		</g>
		<g>
			<g>
				<g>
					<polygon fill="#6A3DBF" points="1866.92,851.97 1866.22,851.49 1980.54,682.88 1981.23,683.36 					"/>
					
						<rect x="1830.26" y="772.69" transform="matrix(0.5624 -0.8269 0.8269 0.5624 206.2122 1935.8856)" fill="#6A3DBF" width="203.71" height="0.85"/>
				</g>
				<g>
					<polygon fill="#6A3DBF" points="1883.7,863.35 1883,862.87 1997.32,694.26 1998.01,694.73 					"/>
					<polygon fill="#6A3DBF" points="1892.09,869.03 1891.39,868.56 2005.7,699.95 2006.41,700.42 					"/>
				</g>
			</g>
			<g>
				<g>
					<polygon fill="#6A3DBF" points="1900.48,874.72 1899.78,874.25 2014.1,705.64 2014.8,706.11 					"/>
					<polygon fill="#6A3DBF" points="1908.87,880.41 1908.17,879.94 2022.49,711.33 2023.19,711.8 					"/>
				</g>
				<g>
					<polygon fill="#6A3DBF" points="1917.26,886.1 1916.56,885.63 2030.88,717.02 2031.58,717.49 					"/>
					
						<rect x="1880.6" y="806.83" transform="matrix(0.5624 -0.8269 0.8269 0.5624 200.0196 1992.4471)" fill="#6A3DBF" width="203.71" height="0.84"/>
				</g>
			</g>
		</g>
	</g>
</g>
<polygon opacity="0.22" fill="#6A3DBF" points="1793.27,665.92 1791.46,665.28 1792.1,663.48 1790.61,662.95 1789.97,664.75 
	1788.16,664.11 1787.63,665.6 1789.44,666.25 1788.8,668.05 1790.29,668.58 1790.93,666.78 1792.74,667.42 "/>
<polygon opacity="0.22" fill="#6A3DBF" points="1702.61,805.56 1698.07,803.95 1699.68,799.4 1695.92,798.07 1694.31,802.61 
	1689.76,801 1688.42,804.76 1692.97,806.37 1691.36,810.92 1695.12,812.25 1696.73,807.71 1701.28,809.32 "/>
<path opacity="0.22" fill="#F7BAF4" d="M1886.77,708.88c-0.76,2.15-3.13,3.28-5.28,2.51c-2.15-0.76-3.28-3.13-2.51-5.28
	c0.76-2.15,3.13-3.28,5.28-2.51C1886.41,704.37,1887.53,706.73,1886.77,708.88z"/>
<g>
</g>
<g>
</g>
<g>
</g>
<g>
</g>
<g>
</g>
<g>
</g>
</svg>
