<?xml version="1.0" encoding="utf-8"?>
<!-- Generator: Adobe Illustrator 24.0.2, SVG Export Plug-In . SVG Version: 6.00 Build 0)  -->
<svg version="1.1" id="PATTERN" xmlns="http://www.w3.org/2000/svg" xmlns:xlink="http://www.w3.org/1999/xlink" x="0px" y="0px"
	 viewBox="0 0 768 1280" enable-background="new 0 0 768 1280" xml:space="preserve">
<g opacity="0.22">
	<defs>
		<polygon id="SVGID_11_" opacity="0.22" points="-64.57,130.12 36.11,29.43 -80.07,13.93 		"/>
	</defs>
	<clipPath id="SVGID_8_">
		<use xlink:href="#SVGID_11_"  overflow="visible"/>
	</clipPath>
	<g clip-path="url(#SVGID_8_)">
		<g>
			<g>
				<g>
					
						<rect x="-365.27" y="-166.07" transform="matrix(0.7071 -0.7072 0.7072 0.7071 72.2889 -154.7314)" fill="#6A3DBF" width="429.32" height="2.91"/>
					
						<rect x="-348.12" y="-148.92" transform="matrix(0.7071 -0.7071 0.7071 0.7071 65.1832 -137.5601)" fill="#6A3DBF" width="429.33" height="2.91"/>
				</g>
				<g>
					
						<rect x="-330.97" y="-131.77" transform="matrix(0.7066 -0.7076 0.7076 0.7066 58.086 -120.5357)" fill="#6A3DBF" width="429.32" height="2.91"/>
					
						<rect x="-313.82" y="-114.62" transform="matrix(0.7081 -0.7061 0.7061 0.7081 50.9614 -103.0519)" fill="#6A3DBF" width="429.32" height="2.91"/>
				</g>
			</g>
			<g>
				<g>
					
						<rect x="-296.67" y="-97.46" transform="matrix(0.7076 -0.7066 0.7066 0.7076 43.8631 -86.0162)" fill="#6A3DBF" width="429.32" height="2.91"/>
					
						<rect x="-279.52" y="-80.31" transform="matrix(0.7066 -0.7076 0.7076 0.7066 36.773 -69.0323)" fill="#6A3DBF" width="429.32" height="2.91"/>
				</g>
				<g>
					
						<rect x="-262.37" y="-63.16" transform="matrix(0.7065 -0.7077 0.7077 0.7065 29.6698 -51.8674)" fill="#6A3DBF" width="429.32" height="2.91"/>
					
						<rect x="-245.21" y="-46.01" transform="matrix(0.7066 -0.7076 0.7076 0.7066 22.564 -34.6885)" fill="#6A3DBF" width="429.32" height="2.91"/>
				</g>
			</g>
		</g>
		<g>
			<g>
				<g>
					
						<rect x="-228.06" y="-28.86" transform="matrix(0.7066 -0.7076 0.7076 0.7066 15.46 -17.5244)" fill="#6A3DBF" width="429.32" height="2.91"/>
					
						<rect x="-210.91" y="-11.71" transform="matrix(0.7071 -0.7072 0.7072 0.7071 8.3483 -0.3523)" fill="#6A3DBF" width="429.32" height="2.91"/>
				</g>
				<g>
					
						<rect x="-193.76" y="5.44" transform="matrix(0.7066 -0.7076 0.7076 0.7066 1.2508 16.8118)" fill="#6A3DBF" width="429.32" height="2.91"/>
					
						<rect x="-176.61" y="22.59" transform="matrix(0.7061 -0.7081 0.7081 0.7061 -5.8452 34.0162)" fill="#6A3DBF" width="429.33" height="2.91"/>
				</g>
			</g>
			<g>
				<g>
					
						<rect x="-159.46" y="39.75" transform="matrix(0.7081 -0.7061 0.7061 0.7081 -12.9793 51.0063)" fill="#6A3DBF" width="429.33" height="2.91"/>
					
						<rect x="-142.31" y="56.9" transform="matrix(0.7071 -0.7071 0.7071 0.7071 -20.0697 68.2561)" fill="#6A3DBF" width="429.32" height="2.91"/>
				</g>
				<g>
					
						<rect x="-125.16" y="74.05" transform="matrix(0.7071 -0.7071 0.7071 0.7071 -27.1733 85.4041)" fill="#6A3DBF" width="429.32" height="2.91"/>
					
						<rect x="-108" y="91.2" transform="matrix(0.7066 -0.7076 0.7076 0.7066 -34.2706 102.6591)" fill="#6A3DBF" width="429.33" height="2.91"/>
				</g>
			</g>
		</g>
	</g>
</g>
<path opacity="0.22" fill="#F7BAF4" d="M75.92,388.93l5.33-17.75c23.45,7.04,48.25-6.31,55.29-29.76
	c7.04-23.45-6.31-48.25-29.76-55.29l5.33-17.74c33.23,9.98,52.15,45.13,42.18,78.36C144.31,379.99,109.15,398.91,75.92,388.93z"/>
<g opacity="0.22">
	<defs>
		<polygon id="SVGID_13_" opacity="0.22" points="857.97,1055.04 974.71,1093.66 941.6,998.02 		"/>
	</defs>
	<clipPath id="SVGID_12_">
		<use xlink:href="#SVGID_13_"  overflow="visible"/>
	</clipPath>
	<g clip-path="url(#SVGID_12_)">
		<g>
			<g>
				<g>
					
						<rect x="1050.72" y="688.99" transform="matrix(0.3158 -0.9488 0.9488 0.3158 -109.8457 1596.3712)" fill="#6A3DBF" width="2.51" height="370.71"/>
					
						<rect x="1044.15" y="708.88" transform="matrix(0.3138 -0.9495 0.9495 0.3138 -131.7094 1606.231)" fill="#6A3DBF" width="2.51" height="370.72"/>
				</g>
				<g>
					<polygon fill="#6A3DBF" points="862.46,857.08 863.25,854.7 1215.19,971.16 1214.4,973.54 					"/>
					
						<rect x="1030.99" y="748.65" transform="matrix(0.3139 -0.9495 0.9495 0.3139 -178.5655 1620.9008)" fill="#6A3DBF" width="2.52" height="370.71"/>
				</g>
			</g>
			<g>
				<g>
					
						<rect x="1024.41" y="768.53" transform="matrix(0.3138 -0.9495 0.9495 0.3138 -201.8807 1628.4398)" fill="#6A3DBF" width="2.51" height="370.71"/>
					
						<rect x="1017.83" y="788.42" transform="matrix(0.3162 -0.9487 0.9487 0.3162 -226.9799 1632.6263)" fill="#6A3DBF" width="2.52" height="370.71"/>
				</g>
				<g>
					
						<rect x="1011.25" y="808.3" transform="matrix(0.3117 -0.9502 0.9502 0.3117 -247.2633 1645.9669)" fill="#6A3DBF" width="2.51" height="370.71"/>
					<polygon fill="#6A3DBF" points="829.56,956.5 830.35,954.12 1182.29,1070.58 1181.5,1072.97 					"/>
				</g>
			</g>
		</g>
		<g>
			<g>
				<g>
					
						<rect x="998.09" y="848.07" transform="matrix(0.3138 -0.9495 0.9495 0.3138 -295.4594 1658.0277)" fill="#6A3DBF" width="2.51" height="370.71"/>
					
						<rect x="991.51" y="867.95" transform="matrix(0.3137 -0.9495 0.9495 0.3137 -318.8348 1665.4722)" fill="#6A3DBF" width="2.51" height="370.71"/>
				</g>
				<g>
					<polygon fill="#6A3DBF" points="809.82,1016.16 810.61,1013.77 1162.55,1130.23 1161.76,1132.62 					"/>
					
						<rect x="978.35" y="907.72" transform="matrix(0.3117 -0.9502 0.9502 0.3117 -364.3842 1683.1084)" fill="#6A3DBF" width="2.51" height="370.71"/>
				</g>
			</g>
			<g>
				<g>
					
						<rect x="971.77" y="927.6" transform="matrix(0.3159 -0.9488 0.9488 0.3159 -390.3263 1684.5575)" fill="#6A3DBF" width="2.52" height="370.71"/>
					
						<rect x="965.19" y="947.49" transform="matrix(0.3118 -0.9502 0.9502 0.3118 -411.2397 1697.9374)" fill="#6A3DBF" width="2.51" height="370.71"/>
				</g>
				<g>
					
						<rect x="958.61" y="967.37" transform="matrix(0.3139 -0.9495 0.9495 0.3139 -435.8918 1702.2567)" fill="#6A3DBF" width="2.51" height="370.71"/>
					
						<rect x="952.03" y="987.26" transform="matrix(0.3137 -0.9495 0.9495 0.3137 -459.2094 1709.8567)" fill="#6A3DBF" width="2.52" height="370.71"/>
				</g>
			</g>
		</g>
	</g>
</g>
<path opacity="0.22" fill="#6FE2D1" d="M-38.05,600.34l-1.56-18.46c24.39-2.06,42.57-23.58,40.51-47.97
	c-2.06-24.39-23.58-42.56-47.97-40.51l-1.55-18.46c34.57-2.92,65.07,22.83,67.99,57.41C22.28,566.91-3.48,597.41-38.05,600.34z"/>
<g opacity="0.22">
	<g>
		<g>
			<g>
				<path fill="#6A3DBF" d="M791.47,27.84c0,1.65-1.34,2.99-2.99,2.99c-1.65,0-2.99-1.34-2.99-2.99s1.34-2.99,2.99-2.99
					C790.13,24.85,791.47,26.18,791.47,27.84z"/>
				<path fill="#6A3DBF" d="M815.38,27.84c0,1.65-1.34,2.99-2.99,2.99c-1.65,0-2.99-1.34-2.99-2.99s1.34-2.99,2.99-2.99
					C814.04,24.85,815.38,26.18,815.38,27.84z"/>
				<path fill="#6A3DBF" d="M839.29,27.84c0,1.65-1.34,2.99-2.99,2.99c-1.65,0-2.99-1.34-2.99-2.99s1.34-2.99,2.99-2.99
					C837.95,24.85,839.29,26.18,839.29,27.84z"/>
			</g>
			<g>
				<path fill="#6A3DBF" d="M791.47,51.75c0,1.65-1.34,2.99-2.99,2.99c-1.65,0-2.99-1.34-2.99-2.99c0-1.65,1.34-2.99,2.99-2.99
					C790.13,48.76,791.47,50.1,791.47,51.75z"/>
				<path fill="#6A3DBF" d="M815.38,51.75c0,1.65-1.34,2.99-2.99,2.99c-1.65,0-2.99-1.34-2.99-2.99c0-1.65,1.34-2.99,2.99-2.99
					C814.04,48.76,815.38,50.1,815.38,51.75z"/>
				<path fill="#6A3DBF" d="M839.29,51.75c0,1.65-1.34,2.99-2.99,2.99c-1.65,0-2.99-1.34-2.99-2.99c0-1.65,1.34-2.99,2.99-2.99
					C837.95,48.76,839.29,50.1,839.29,51.75z"/>
			</g>
		</g>
		<g>
			<g>
				<path fill="#6A3DBF" d="M791.47,75.66c0,1.65-1.34,2.99-2.99,2.99c-1.65,0-2.99-1.34-2.99-2.99c0-1.65,1.34-2.99,2.99-2.99
					C790.13,72.67,791.47,74.01,791.47,75.66z"/>
				<path fill="#6A3DBF" d="M815.38,75.66c0,1.65-1.34,2.99-2.99,2.99c-1.65,0-2.99-1.34-2.99-2.99c0-1.65,1.34-2.99,2.99-2.99
					C814.04,72.67,815.38,74.01,815.38,75.66z"/>
				<path fill="#6A3DBF" d="M839.29,75.66c0,1.65-1.34,2.99-2.99,2.99c-1.65,0-2.99-1.34-2.99-2.99c0-1.65,1.34-2.99,2.99-2.99
					C837.95,72.67,839.29,74.01,839.29,75.66z"/>
			</g>
			<g>
				<path fill="#6A3DBF" d="M791.47,99.57c0,1.65-1.34,2.99-2.99,2.99c-1.65,0-2.99-1.34-2.99-2.99c0-1.65,1.34-2.99,2.99-2.99
					C790.13,96.58,791.47,97.92,791.47,99.57z"/>
				<path fill="#6A3DBF" d="M815.38,99.57c0,1.65-1.34,2.99-2.99,2.99c-1.65,0-2.99-1.34-2.99-2.99c0-1.65,1.34-2.99,2.99-2.99
					C814.04,96.58,815.38,97.92,815.38,99.57z"/>
				<path fill="#6A3DBF" d="M839.29,99.57c0,1.65-1.34,2.99-2.99,2.99c-1.65,0-2.99-1.34-2.99-2.99c0-1.65,1.34-2.99,2.99-2.99
					C837.95,96.58,839.29,97.92,839.29,99.57z"/>
			</g>
		</g>
	</g>
	<g>
		<g>
			<g>
				<path fill="#6A3DBF" d="M791.47,123.48c0,1.65-1.34,2.99-2.99,2.99c-1.65,0-2.99-1.34-2.99-2.99c0-1.65,1.34-2.99,2.99-2.99
					C790.13,120.5,791.47,121.83,791.47,123.48z"/>
				<path fill="#6A3DBF" d="M815.38,123.48c0,1.65-1.34,2.99-2.99,2.99c-1.65,0-2.99-1.34-2.99-2.99c0-1.65,1.34-2.99,2.99-2.99
					C814.04,120.5,815.38,121.83,815.38,123.48z"/>
				<path fill="#6A3DBF" d="M839.29,123.48c0,1.65-1.34,2.99-2.99,2.99c-1.65,0-2.99-1.34-2.99-2.99c0-1.65,1.34-2.99,2.99-2.99
					C837.95,120.5,839.29,121.83,839.29,123.48z"/>
			</g>
			<g>
				<path fill="#6A3DBF" d="M791.47,147.4c0,1.65-1.34,2.99-2.99,2.99c-1.65,0-2.99-1.34-2.99-2.99c0-1.65,1.34-2.99,2.99-2.99
					C790.13,144.41,791.47,145.75,791.47,147.4z"/>
				<path fill="#6A3DBF" d="M815.38,147.4c0,1.65-1.34,2.99-2.99,2.99c-1.65,0-2.99-1.34-2.99-2.99c0-1.65,1.34-2.99,2.99-2.99
					C814.04,144.41,815.38,145.75,815.38,147.4z"/>
				<path fill="#6A3DBF" d="M839.29,147.4c0,1.65-1.34,2.99-2.99,2.99c-1.65,0-2.99-1.34-2.99-2.99c0-1.65,1.34-2.99,2.99-2.99
					C837.95,144.41,839.29,145.75,839.29,147.4z"/>
			</g>
		</g>
		<g>
			<g>
				<path fill="#6A3DBF" d="M791.47,171.31c0,1.65-1.34,2.99-2.99,2.99c-1.65,0-2.99-1.34-2.99-2.99c0-1.65,1.34-2.99,2.99-2.99
					C790.13,168.32,791.47,169.66,791.47,171.31z"/>
				<path fill="#6A3DBF" d="M815.38,171.31c0,1.65-1.34,2.99-2.99,2.99c-1.65,0-2.99-1.34-2.99-2.99c0-1.65,1.34-2.99,2.99-2.99
					C814.04,168.32,815.38,169.66,815.38,171.31z"/>
				<path fill="#6A3DBF" d="M839.29,171.31c0,1.65-1.34,2.99-2.99,2.99c-1.65,0-2.99-1.34-2.99-2.99c0-1.65,1.34-2.99,2.99-2.99
					C837.95,168.32,839.29,169.66,839.29,171.31z"/>
			</g>
			<g>
				<path fill="#6A3DBF" d="M791.47,195.22c0,1.65-1.34,2.99-2.99,2.99c-1.65,0-2.99-1.34-2.99-2.99c0-1.65,1.34-2.99,2.99-2.99
					C790.13,192.23,791.47,193.57,791.47,195.22z"/>
				<path fill="#6A3DBF" d="M815.38,195.22c0,1.65-1.34,2.99-2.99,2.99c-1.65,0-2.99-1.34-2.99-2.99c0-1.65,1.34-2.99,2.99-2.99
					C814.04,192.23,815.38,193.57,815.38,195.22z"/>
				<path fill="#6A3DBF" d="M839.29,195.22c0,1.65-1.34,2.99-2.99,2.99c-1.65,0-2.99-1.34-2.99-2.99c0-1.65,1.34-2.99,2.99-2.99
					C837.95,192.23,839.29,193.57,839.29,195.22z"/>
			</g>
		</g>
	</g>
</g>
<g opacity="0.22">
	<g>
		<g>
			<g>
				<path fill="#6A3DBF" d="M130.7,1084.14c-1.66,0-3.01-1.35-3.01-3.01c0-1.66,1.35-3.01,3.01-3.01c1.66,0,3.01,1.35,3.01,3.01
					C133.7,1082.79,132.36,1084.14,130.7,1084.14z"/>
				<path fill="#6A3DBF" d="M130.7,1108.19c-1.66,0-3.01-1.35-3.01-3.01c0-1.66,1.35-3.01,3.01-3.01c1.66,0,3.01,1.35,3.01,3.01
					C133.7,1106.84,132.36,1108.19,130.7,1108.19z"/>
				<path fill="#6A3DBF" d="M130.7,1132.25c-1.66,0-3.01-1.35-3.01-3.01c0-1.66,1.35-3.01,3.01-3.01c1.66,0,3.01,1.35,3.01,3.01
					C133.7,1130.9,132.36,1132.25,130.7,1132.25z"/>
			</g>
			<g>
				<path fill="#6A3DBF" d="M106.64,1084.14c-1.66,0-3.01-1.35-3.01-3.01c0-1.66,1.35-3.01,3.01-3.01c1.66,0,3.01,1.35,3.01,3.01
					C109.65,1082.79,108.31,1084.14,106.64,1084.14z"/>
				<path fill="#6A3DBF" d="M106.64,1108.19c-1.66,0-3.01-1.35-3.01-3.01c0-1.66,1.35-3.01,3.01-3.01c1.66,0,3.01,1.35,3.01,3.01
					C109.65,1106.84,108.31,1108.19,106.64,1108.19z"/>
				<path fill="#6A3DBF" d="M106.64,1132.25c-1.66,0-3.01-1.35-3.01-3.01c0-1.66,1.35-3.01,3.01-3.01c1.66,0,3.01,1.35,3.01,3.01
					C109.65,1130.9,108.31,1132.25,106.64,1132.25z"/>
			</g>
		</g>
		<g>
			<g>
				<path fill="#6A3DBF" d="M82.59,1084.14c-1.66,0-3.01-1.35-3.01-3.01c0-1.66,1.35-3.01,3.01-3.01c1.66,0,3.01,1.35,3.01,3.01
					C85.59,1082.79,84.25,1084.14,82.59,1084.14z"/>
				<path fill="#6A3DBF" d="M82.59,1108.19c-1.66,0-3.01-1.35-3.01-3.01c0-1.66,1.35-3.01,3.01-3.01c1.66,0,3.01,1.35,3.01,3.01
					C85.59,1106.84,84.25,1108.19,82.59,1108.19z"/>
				<path fill="#6A3DBF" d="M82.59,1132.25c-1.66,0-3.01-1.35-3.01-3.01c0-1.66,1.35-3.01,3.01-3.01c1.66,0,3.01,1.35,3.01,3.01
					C85.59,1130.9,84.25,1132.25,82.59,1132.25z"/>
			</g>
			<g>
				<path fill="#6A3DBF" d="M58.53,1084.14c-1.66,0-3.01-1.35-3.01-3.01c0-1.66,1.35-3.01,3.01-3.01c1.66,0,3.01,1.35,3.01,3.01
					C61.54,1082.79,60.2,1084.14,58.53,1084.14z"/>
				<path fill="#6A3DBF" d="M58.53,1108.19c-1.66,0-3.01-1.35-3.01-3.01c0-1.66,1.35-3.01,3.01-3.01c1.66,0,3.01,1.35,3.01,3.01
					C61.54,1106.84,60.2,1108.19,58.53,1108.19z"/>
				<path fill="#6A3DBF" d="M58.53,1132.25c-1.66,0-3.01-1.35-3.01-3.01c0-1.66,1.35-3.01,3.01-3.01c1.66,0,3.01,1.35,3.01,3.01
					C61.54,1130.9,60.2,1132.25,58.53,1132.25z"/>
			</g>
		</g>
	</g>
	<g>
		<g>
			<g>
				<path fill="#6A3DBF" d="M34.48,1084.14c-1.66,0-3.01-1.35-3.01-3.01c0-1.66,1.35-3.01,3.01-3.01c1.66,0,3.01,1.35,3.01,3.01
					C37.49,1082.79,36.14,1084.14,34.48,1084.14z"/>
				<path fill="#6A3DBF" d="M34.48,1108.19c-1.66,0-3.01-1.35-3.01-3.01c0-1.66,1.35-3.01,3.01-3.01c1.66,0,3.01,1.35,3.01,3.01
					C37.49,1106.84,36.14,1108.19,34.48,1108.19z"/>
				<path fill="#6A3DBF" d="M34.48,1132.25c-1.66,0-3.01-1.35-3.01-3.01c0-1.66,1.35-3.01,3.01-3.01c1.66,0,3.01,1.35,3.01,3.01
					C37.49,1130.9,36.14,1132.25,34.48,1132.25z"/>
			</g>
			<g>
				<path fill="#6A3DBF" d="M10.42,1084.14c-1.66,0-3.01-1.35-3.01-3.01c0-1.66,1.35-3.01,3.01-3.01c1.66,0,3.01,1.35,3.01,3.01
					C13.44,1082.79,12.09,1084.14,10.42,1084.14z"/>
				<path fill="#6A3DBF" d="M10.42,1108.19c-1.66,0-3.01-1.35-3.01-3.01c0-1.66,1.35-3.01,3.01-3.01c1.66,0,3.01,1.35,3.01,3.01
					C13.44,1106.84,12.09,1108.19,10.42,1108.19z"/>
				<path fill="#6A3DBF" d="M10.42,1132.25c-1.66,0-3.01-1.35-3.01-3.01c0-1.66,1.35-3.01,3.01-3.01c1.66,0,3.01,1.35,3.01,3.01
					C13.44,1130.9,12.09,1132.25,10.42,1132.25z"/>
			</g>
		</g>
		<g>
			<g>
				<path fill="#6A3DBF" d="M-13.63,1084.14c-1.66,0-3.01-1.35-3.01-3.01c0-1.66,1.35-3.01,3.01-3.01c1.66,0,3.01,1.35,3.01,3.01
					C-10.62,1082.79-11.97,1084.14-13.63,1084.14z"/>
				<path fill="#6A3DBF" d="M-13.63,1108.19c-1.66,0-3.01-1.35-3.01-3.01c0-1.66,1.35-3.01,3.01-3.01c1.66,0,3.01,1.35,3.01,3.01
					C-10.62,1106.84-11.97,1108.19-13.63,1108.19z"/>
				<path fill="#6A3DBF" d="M-13.63,1132.25c-1.66,0-3.01-1.35-3.01-3.01c0-1.66,1.35-3.01,3.01-3.01c1.66,0,3.01,1.35,3.01,3.01
					C-10.62,1130.9-11.97,1132.25-13.63,1132.25z"/>
			</g>
			<g>
				<path fill="#6A3DBF" d="M-37.68,1084.14c-1.66,0-3.01-1.35-3.01-3.01c0-1.66,1.35-3.01,3.01-3.01c1.66,0,3.01,1.35,3.01,3.01
					C-34.67,1082.79-36.02,1084.14-37.68,1084.14z"/>
				<path fill="#6A3DBF" d="M-37.68,1108.19c-1.66,0-3.01-1.35-3.01-3.01c0-1.66,1.35-3.01,3.01-3.01c1.66,0,3.01,1.35,3.01,3.01
					C-34.67,1106.84-36.02,1108.19-37.68,1108.19z"/>
				<path fill="#6A3DBF" d="M-37.68,1132.25c-1.66,0-3.01-1.35-3.01-3.01c0-1.66,1.35-3.01,3.01-3.01c1.66,0,3.01,1.35,3.01,3.01
					C-34.67,1130.9-36.02,1132.25-37.68,1132.25z"/>
			</g>
		</g>
	</g>
</g>
<path opacity="0.22" fill="#6FE2D1" d="M987.34,114.49L815,91.51l22.98,172.34L987.34,114.49z M974.56,118.82L842.31,251.06
	l-20.34-152.6L974.56,118.82z"/>
<path opacity="0.22" fill="#F7BAF4" d="M35.05,1136.45l94.81-146.97L-36.83,936.5L35.05,1136.45z M36.59,1122.97l-63.64-177.05
	l147.59,46.91L36.59,1122.97z"/>
<g opacity="0.22">
	<g>
		<g>
			<g>
				<path fill="#6A3DBF" d="M1033,686.52c-1.65,0-2.99-1.34-2.99-2.99c0-1.65,1.34-2.99,2.99-2.99c1.65,0,2.99,1.34,2.99,2.99
					C1035.99,685.18,1034.65,686.52,1033,686.52z"/>
				<path fill="#6A3DBF" d="M1033,710.43c-1.65,0-2.99-1.34-2.99-2.99c0-1.65,1.34-2.99,2.99-2.99c1.65,0,2.99,1.34,2.99,2.99
					C1035.99,709.09,1034.65,710.43,1033,710.43z"/>
				<path fill="#6A3DBF" d="M1033,734.34c-1.65,0-2.99-1.34-2.99-2.99c0-1.65,1.34-2.99,2.99-2.99c1.65,0,2.99,1.34,2.99,2.99
					C1035.99,733,1034.65,734.34,1033,734.34z"/>
			</g>
			<g>
				<path fill="#6A3DBF" d="M1009.09,686.52c-1.65,0-2.99-1.34-2.99-2.99c0-1.65,1.34-2.99,2.99-2.99c1.65,0,2.99,1.34,2.99,2.99
					C1012.08,685.18,1010.74,686.52,1009.09,686.52z"/>
				<path fill="#6A3DBF" d="M1009.09,710.43c-1.65,0-2.99-1.34-2.99-2.99c0-1.65,1.34-2.99,2.99-2.99c1.65,0,2.99,1.34,2.99,2.99
					C1012.08,709.09,1010.74,710.43,1009.09,710.43z"/>
				<path fill="#6A3DBF" d="M1009.09,734.34c-1.65,0-2.99-1.34-2.99-2.99c0-1.65,1.34-2.99,2.99-2.99c1.65,0,2.99,1.34,2.99,2.99
					C1012.08,733,1010.74,734.34,1009.09,734.34z"/>
			</g>
		</g>
		<g>
			<g>
				<path fill="#6A3DBF" d="M985.18,686.52c-1.65,0-2.99-1.34-2.99-2.99c0-1.65,1.34-2.99,2.99-2.99c1.65,0,2.99,1.34,2.99,2.99
					C988.16,685.18,986.83,686.52,985.18,686.52z"/>
				<path fill="#6A3DBF" d="M985.18,710.43c-1.65,0-2.99-1.34-2.99-2.99c0-1.65,1.34-2.99,2.99-2.99c1.65,0,2.99,1.34,2.99,2.99
					C988.16,709.09,986.83,710.43,985.18,710.43z"/>
				<path fill="#6A3DBF" d="M985.18,734.34c-1.65,0-2.99-1.34-2.99-2.99c0-1.65,1.34-2.99,2.99-2.99c1.65,0,2.99,1.34,2.99,2.99
					C988.16,733,986.83,734.34,985.18,734.34z"/>
			</g>
			<g>
				<path fill="#6A3DBF" d="M961.27,686.52c-1.65,0-2.99-1.34-2.99-2.99c0-1.65,1.34-2.99,2.99-2.99c1.65,0,2.99,1.34,2.99,2.99
					C964.25,685.18,962.92,686.52,961.27,686.52z"/>
				<path fill="#6A3DBF" d="M961.27,710.43c-1.65,0-2.99-1.34-2.99-2.99c0-1.65,1.34-2.99,2.99-2.99c1.65,0,2.99,1.34,2.99,2.99
					C964.25,709.09,962.92,710.43,961.27,710.43z"/>
				<path fill="#6A3DBF" d="M961.27,734.34c-1.65,0-2.99-1.34-2.99-2.99c0-1.65,1.34-2.99,2.99-2.99c1.65,0,2.99,1.34,2.99,2.99
					C964.25,733,962.92,734.34,961.27,734.34z"/>
			</g>
		</g>
	</g>
	<g>
		<g>
			<g>
				<path fill="#6A3DBF" d="M937.35,686.52c-1.65,0-2.99-1.34-2.99-2.99c0-1.65,1.34-2.99,2.99-2.99c1.65,0,2.99,1.34,2.99,2.99
					C940.34,685.18,939.01,686.52,937.35,686.52z"/>
				<path fill="#6A3DBF" d="M937.35,710.43c-1.65,0-2.99-1.34-2.99-2.99c0-1.65,1.34-2.99,2.99-2.99c1.65,0,2.99,1.34,2.99,2.99
					C940.34,709.09,939.01,710.43,937.35,710.43z"/>
				<path fill="#6A3DBF" d="M937.35,734.34c-1.65,0-2.99-1.34-2.99-2.99c0-1.65,1.34-2.99,2.99-2.99c1.65,0,2.99,1.34,2.99,2.99
					C940.34,733,939.01,734.34,937.35,734.34z"/>
			</g>
			<g>
				<path fill="#6A3DBF" d="M913.44,686.52c-1.65,0-2.99-1.34-2.99-2.99c0-1.65,1.34-2.99,2.99-2.99c1.65,0,2.99,1.34,2.99,2.99
					C916.43,685.18,915.09,686.52,913.44,686.52z"/>
				<path fill="#6A3DBF" d="M913.44,710.43c-1.65,0-2.99-1.34-2.99-2.99c0-1.65,1.34-2.99,2.99-2.99c1.65,0,2.99,1.34,2.99,2.99
					C916.43,709.09,915.09,710.43,913.44,710.43z"/>
				<path fill="#6A3DBF" d="M913.44,734.34c-1.65,0-2.99-1.34-2.99-2.99c0-1.65,1.34-2.99,2.99-2.99c1.65,0,2.99,1.34,2.99,2.99
					C916.43,733,915.09,734.34,913.44,734.34z"/>
			</g>
		</g>
		<g>
			<g>
				<path fill="#6A3DBF" d="M889.53,686.52c-1.65,0-2.99-1.34-2.99-2.99c0-1.65,1.34-2.99,2.99-2.99c1.65,0,2.99,1.34,2.99,2.99
					C892.52,685.18,891.18,686.52,889.53,686.52z"/>
				<path fill="#6A3DBF" d="M889.53,710.43c-1.65,0-2.99-1.34-2.99-2.99c0-1.65,1.34-2.99,2.99-2.99c1.65,0,2.99,1.34,2.99,2.99
					C892.52,709.09,891.18,710.43,889.53,710.43z"/>
				<path fill="#6A3DBF" d="M889.53,734.34c-1.65,0-2.99-1.34-2.99-2.99c0-1.65,1.34-2.99,2.99-2.99c1.65,0,2.99,1.34,2.99,2.99
					C892.52,733,891.18,734.34,889.53,734.34z"/>
			</g>
			<g>
				<path fill="#6A3DBF" d="M865.62,686.52c-1.65,0-2.99-1.34-2.99-2.99c0-1.65,1.34-2.99,2.99-2.99c1.65,0,2.99,1.34,2.99,2.99
					C868.61,685.18,867.27,686.52,865.62,686.52z"/>
				<path fill="#6A3DBF" d="M865.62,710.43c-1.65,0-2.99-1.34-2.99-2.99c0-1.65,1.34-2.99,2.99-2.99c1.65,0,2.99,1.34,2.99,2.99
					C868.61,709.09,867.27,710.43,865.62,710.43z"/>
				<path fill="#6A3DBF" d="M865.62,734.34c-1.65,0-2.99-1.34-2.99-2.99c0-1.65,1.34-2.99,2.99-2.99c1.65,0,2.99,1.34,2.99,2.99
					C868.61,733,867.27,734.34,865.62,734.34z"/>
			</g>
		</g>
	</g>
</g>
<path opacity="0.22" fill="#F7BAF4" d="M937.92,738.52l94.24-146.1l-165.69-52.67L937.92,738.52z M939.45,725.12l-63.27-176
	l146.72,46.63L939.45,725.12z"/>
<path opacity="0.22" fill="#FABA12" d="M85.56,458.2c-5.69,6.74-15.76,7.59-22.5,1.9c-6.74-5.69-7.59-15.76-1.9-22.5
	s15.76-7.59,22.5-1.9C90.4,441.39,91.25,451.46,85.56,458.2z"/>
<path opacity="0.22" fill="#FABA12" d="M954.83,77.33c0,6.54-5.3,11.84-11.84,11.84c-6.54,0-11.85-5.3-11.85-11.84
	c0-6.54,5.31-11.84,11.85-11.84C949.53,65.49,954.83,70.79,954.83,77.33z"/>
<path opacity="0.22" fill="#9D51C0" d="M-56.4,222.35c-6.93,4.01-12.97,5.19-18.49,6.26c-7.31,1.42-13.63,2.66-22.3,10.46
	l-8.05-8.93c11.15-10.04,20.13-11.79,28.06-13.32c7.32-1.42,13.63-2.66,22.3-10.46c8.66-7.81,10.54-13.96,12.71-21.09
	c2.35-7.73,5.02-16.48,16.16-26.52c11.14-10.05,20.13-11.79,28.06-13.34c7.32-1.43,13.64-2.65,22.31-10.47
	c8.67-7.81,10.55-13.97,12.72-21.1c2.35-7.72,5.02-16.48,16.17-26.53l8.05,8.93c-8.67,7.81-10.55,13.97-12.72,21.1
	c-2.36,7.72-5.02,16.48-16.17,26.53c-11.14,10.05-20.14,11.79-28.06,13.34c-7.32,1.42-13.64,2.65-22.3,10.47
	c-8.66,7.81-10.54,13.96-12.71,21.08c-2.35,7.73-5.02,16.48-16.17,26.52C-50.22,218.32-53.4,220.61-56.4,222.35z"/>
<path opacity="0.22" fill="#F7BAF4" d="M934.67,292.23c-6.89,4-12.89,5.16-18.38,6.23c-7.27,1.42-13.55,2.63-22.17,10.4l-8.01-8.88
	c11.09-9.98,20.01-11.72,27.89-13.25c7.27-1.42,13.55-2.63,22.17-10.4c8.61-7.76,10.48-13.87,12.63-20.96
	c2.33-7.68,4.99-16.38,16.06-26.36c11.08-9.99,20.02-11.72,27.9-13.26c7.27-1.42,13.56-2.63,22.18-10.4
	c8.61-7.77,10.48-13.89,12.65-20.98c2.34-7.68,4.99-16.38,16.07-26.37l8.01,8.88c-8.62,7.77-10.48,13.89-12.65,20.98
	c-2.34,7.68-4.99,16.39-16.07,26.37c-11.07,9.99-20.02,11.72-27.9,13.26c-7.27,1.42-13.56,2.64-22.18,10.41
	c-8.61,7.76-10.47,13.88-12.63,20.96c-2.34,7.67-4.99,16.38-16.07,26.36C940.82,288.24,937.66,290.5,934.67,292.23z"/>
<polygon opacity="0.22" fill="#F7BAF4" points="-22.89,1211.29 -48.88,1177.27 -59.05,1211.98 "/>
<polygon opacity="0.22" fill="#F7BAF4" points="959.51,1221.39 991.72,1166.37 938.15,1171.95 "/>
<path opacity="0.22" fill="#F7BAF4" d="M57.22,459.99c11.56-13.69,9.82-34.23-3.86-45.78c-13.69-11.56-34.23-9.82-45.78,3.87
	c-11.55,13.68-9.82,34.22,3.87,45.78C25.12,475.41,45.66,473.68,57.22,459.99z M54.15,457.41c-10.13,12-28.13,13.51-40.13,3.38
	c-12-10.13-13.52-28.13-3.39-40.13c10.13-12,28.13-13.52,40.13-3.39C62.77,427.4,64.28,445.41,54.15,457.41z"/>
<path opacity="0.22" fill="#6FE2D1" d="M949.31,49.82c0-17.81-14.49-32.29-32.29-32.29c-17.81,0-32.29,14.49-32.29,32.29
	c0,17.81,14.49,32.29,32.29,32.29C934.82,82.11,949.31,67.63,949.31,49.82z M945.32,49.82c0,15.61-12.7,28.31-28.31,28.31
	c-15.61,0-28.31-12.7-28.31-28.31c0-15.61,12.7-28.31,28.31-28.31C932.62,21.51,945.32,34.21,945.32,49.82z"/>
<g opacity="0.22">
	<defs>
		<path id="SVGID_15_" opacity="0.22" d="M191.38,60.4c-8.86,34.05-43.66,54.48-77.71,45.61C79.62,97.15,59.19,62.35,68.06,28.3
			c8.86-34.05,43.66-54.48,77.71-45.62C179.82-8.45,200.24,26.34,191.38,60.4z"/>
	</defs>
	<clipPath id="SVGID_14_">
		<use xlink:href="#SVGID_15_"  overflow="visible"/>
	</clipPath>
	<g clip-path="url(#SVGID_14_)">
		<g>
			<g>
				<g>
					
						<rect x="-66.68" y="21.08" transform="matrix(0.2519 -0.9678 0.9678 0.2519 19.6382 68.5611)" fill="#6A3DBF" width="241.7" height="1.01"/>
					
						<rect x="-55.04" y="24.1" transform="matrix(0.2508 -0.968 0.968 0.2508 25.4797 82.1362)" fill="#6A3DBF" width="241.69" height="1"/>
				</g>
				<g>
					<polygon fill="#6A3DBF" points="47.49,144.71 46.52,144.46 107.39,-89.44 108.37,-89.19 					"/>
					<polygon fill="#6A3DBF" points="59.13,147.74 58.16,147.49 119.04,-86.41 120.01,-86.16 					"/>
				</g>
			</g>
			<g>
				<g>
					
						<rect x="-20.12" y="33.19" transform="matrix(0.2508 -0.968 0.968 0.2508 42.8411 122.7476)" fill="#6A3DBF" width="241.69" height="1"/>
					<polygon fill="#6A3DBF" points="82.41,153.8 81.44,153.55 142.32,-80.35 143.28,-80.1 					"/>
				</g>
				<g>
					<polygon fill="#6A3DBF" points="94.05,156.83 93.08,156.58 153.96,-77.32 154.93,-77.07 					"/>
					<polygon fill="#6A3DBF" points="105.69,159.86 104.72,159.61 165.6,-74.29 166.57,-74.04 					"/>
				</g>
			</g>
		</g>
		<g>
			<g>
				<g>
					<polygon fill="#6A3DBF" points="117.33,162.89 116.36,162.64 177.24,-71.26 178.21,-71.01 					"/>
					
						<rect x="38.08" y="48.34" transform="matrix(0.2533 -0.9674 0.9674 0.2533 71.4124 190.2083)" fill="#6A3DBF" width="241.69" height="1"/>
				</g>
				<g>
					<polygon fill="#6A3DBF" points="140.61,168.95 139.64,168.7 200.52,-65.21 201.48,-64.95 					"/>
					<polygon fill="#6A3DBF" points="152.25,171.98 151.28,171.73 212.15,-62.17 213.13,-61.92 					"/>
				</g>
			</g>
			<g>
				<g>
					<polygon fill="#6A3DBF" points="163.88,175.01 162.92,174.76 223.79,-59.15 224.76,-58.89 					"/>
					<polygon fill="#6A3DBF" points="175.53,178.04 174.56,177.79 235.44,-56.12 236.41,-55.86 					"/>
				</g>
				<g>
					<polygon fill="#6A3DBF" points="187.16,181.07 186.19,180.82 247.07,-53.09 248.05,-52.83 					"/>
					
						<rect x="107.91" y="66.52" transform="matrix(0.2533 -0.9674 0.9674 0.2533 105.9738 271.3381)" fill="#6A3DBF" width="241.69" height="1"/>
				</g>
			</g>
		</g>
	</g>
</g>
<g opacity="0.22">
	<defs>
		<path id="SVGID_17_" opacity="0.22" d="M24.41,346.05c-8.86,34.05-43.65,54.47-77.71,45.61c-34.06-8.86-54.48-43.66-45.62-77.71
			c8.86-34.06,43.66-54.48,77.71-45.62C12.86,277.19,33.27,311.99,24.41,346.05z"/>
	</defs>
	<clipPath id="SVGID_16_">
		<use xlink:href="#SVGID_17_"  overflow="visible"/>
	</clipPath>
	<g clip-path="url(#SVGID_16_)">
		<g>
			<g>
				<g>
					
						<rect x="-233.65" y="306.73" transform="matrix(0.2452 -0.9695 0.9695 0.2452 -382.9925 122.5342)" fill="#6A3DBF" width="241.7" height="1"/>
					<polygon fill="#6A3DBF" points="-131.12,427.34 -132.09,427.08 -71.21,193.18 -70.24,193.43 					"/>
				</g>
				<g>
					
						<rect x="-210.37" y="312.78" transform="matrix(0.2561 -0.9667 0.9667 0.2561 -369.437 146.5156)" fill="#6A3DBF" width="241.69" height="1"/>
					<polygon fill="#6A3DBF" points="-107.83,433.39 -108.81,433.14 -47.93,199.24 -46.96,199.49 					"/>
				</g>
			</g>
			<g>
				<g>
					<polygon fill="#6A3DBF" points="-96.2,436.42 -97.17,436.17 -36.29,202.27 -35.32,202.52 					"/>
					<polygon fill="#6A3DBF" points="-84.56,439.45 -85.53,439.2 -24.65,205.3 -23.68,205.55 					"/>
				</g>
				<g>
					<polygon fill="#6A3DBF" points="-72.92,442.48 -73.89,442.23 -13.01,208.33 -12.04,208.58 					"/>
					
						<rect x="-152.17" y="327.93" transform="matrix(0.2522 -0.9677 0.9677 0.2522 -341.2421 215.2894)" fill="#6A3DBF" width="241.69" height="1"/>
				</g>
			</g>
		</g>
		<g>
			<g>
				<g>
					<polygon fill="#6A3DBF" points="-49.64,448.54 -50.61,448.29 10.27,214.38 11.24,214.64 					"/>
					
						<rect x="-128.89" y="334" transform="matrix(0.2523 -0.9677 0.9677 0.2523 -329.6926 242.3239)" fill="#6A3DBF" width="241.7" height="1"/>
				</g>
				<g>
					<polygon fill="#6A3DBF" points="-26.36,454.6 -27.33,454.34 33.55,220.44 34.52,220.7 					"/>
					<polygon fill="#6A3DBF" points="-14.72,457.63 -15.69,457.38 45.19,223.47 46.15,223.73 					"/>
				</g>
			</g>
			<g>
				<g>
					<polygon fill="#6A3DBF" points="-3.08,460.66 -4.05,460.41 56.83,226.5 57.8,226.75 					"/>
					<polygon fill="#6A3DBF" points="8.56,463.69 7.59,463.43 68.46,229.53 69.43,229.78 					"/>
				</g>
				<g>
					<polygon fill="#6A3DBF" points="20.2,466.72 19.23,466.47 80.11,232.56 81.08,232.81 					"/>
					<polygon fill="#6A3DBF" points="31.84,469.74 30.86,469.49 91.74,235.59 92.71,235.84 					"/>
				</g>
			</g>
		</g>
	</g>
</g>
<polygon opacity="0.22" fill="#F7BAF4" points="116.43,527.82 156.48,542.94 146.76,508.1 "/>
<polygon opacity="0.22" fill="#F7BAF4" points="773.82,312.76 794.64,340.53 803.14,312.47 "/>
<path opacity="0.22" fill="#6FE2D1" d="M122.52,1282.66c-6.93,4.01-12.97,5.19-18.49,6.26c-7.32,1.43-13.63,2.65-22.3,10.46
	l-8.06-8.93c11.15-10.04,20.13-11.79,28.06-13.33c7.32-1.42,13.64-2.65,22.3-10.46c8.66-7.8,10.54-13.95,12.71-21.08
	c2.35-7.72,5.02-16.47,16.16-26.52c11.15-10.04,20.13-11.79,28.06-13.34c7.32-1.42,13.63-2.64,22.3-10.46
	c8.67-7.81,10.55-13.98,12.72-21.11c2.36-7.73,5.03-16.48,16.18-26.52l8.05,8.93c-8.67,7.82-10.55,13.97-12.73,21.11
	c-2.36,7.72-5.02,16.47-16.17,26.53c-11.14,10.04-20.14,11.79-28.06,13.33c-7.31,1.42-13.64,2.65-22.3,10.47
	c-8.66,7.8-10.53,13.95-12.71,21.08c-2.35,7.72-5.01,16.47-16.16,26.52C128.71,1278.64,125.53,1280.92,122.52,1282.66z"/>
<g opacity="0.22">
	<defs>
		<path id="SVGID_19_" opacity="0.22" d="M966.19,1190.68c-11.57,44.43-56.97,71.08-101.39,59.51
			c-44.42-11.56-71.07-56.96-59.51-101.38c11.56-44.43,56.96-71.08,101.39-59.52C951.1,1100.85,977.75,1146.24,966.19,1190.68z"/>
	</defs>
	<clipPath id="SVGID_18_">
		<use xlink:href="#SVGID_19_"  overflow="visible"/>
	</clipPath>
	<g clip-path="url(#SVGID_18_)">
		<g>
			<g>
				<g>
					<polygon fill="#6A3DBF" points="748.09,1292.78 746.82,1292.45 826.25,987.28 827.51,987.61 					"/>
					<polygon fill="#6A3DBF" points="763.27,1296.73 762.01,1296.39 841.43,991.24 842.7,991.57 					"/>
				</g>
				<g>
					<polygon fill="#6A3DBF" points="778.46,1300.68 777.19,1300.35 856.61,995.19 857.88,995.52 					"/>
					<polygon fill="#6A3DBF" points="793.64,1304.63 792.38,1304.3 871.81,999.14 873.07,999.47 					"/>
				</g>
			</g>
			<g>
				<g>
					<polygon fill="#6A3DBF" points="808.83,1308.58 807.57,1308.26 886.99,1003.1 888.26,1003.43 					"/>
					<polygon fill="#6A3DBF" points="824.02,1312.54 822.75,1312.21 902.18,1007.04 903.44,1007.38 					"/>
				</g>
				<g>
					<polygon fill="#6A3DBF" points="839.19,1316.49 837.94,1316.17 917.36,1011 918.63,1011.33 					"/>
					<polygon fill="#6A3DBF" points="854.39,1320.44 853.12,1320.12 932.56,1014.95 933.81,1015.28 					"/>
				</g>
			</g>
		</g>
		<g>
			<g>
				<g>
					<polygon fill="#6A3DBF" points="869.57,1324.4 868.31,1324.07 947.74,1018.9 949,1019.23 					"/>
					<polygon fill="#6A3DBF" points="884.76,1328.35 883.49,1328.02 962.92,1022.86 964.19,1023.18 					"/>
				</g>
				<g>
					
						<rect x="781.36" y="1178.9" transform="matrix(0.255 -0.9669 0.9669 0.255 -440.9956 1786.7208)" fill="#6A3DBF" width="315.33" height="1.31"/>
					<polygon fill="#6A3DBF" points="915.14,1336.25 913.87,1335.92 993.29,1030.76 994.56,1031.09 					"/>
				</g>
			</g>
			<g>
				<g>
					<polygon fill="#6A3DBF" points="930.32,1340.21 929.05,1339.88 1008.48,1034.71 1009.74,1035.04 					"/>
					<polygon fill="#6A3DBF" points="945.5,1344.15 944.24,1343.83 1023.66,1038.67 1024.93,1039 					"/>
				</g>
				<g>
					<polygon fill="#6A3DBF" points="960.69,1348.1 959.42,1347.78 1038.85,1042.62 1040.11,1042.95 					"/>
					
						<rect x="857.29" y="1198.67" transform="matrix(0.2519 -0.9678 0.9678 0.2519 -401.3304 1879.4924)" fill="#6A3DBF" width="315.33" height="1.3"/>
				</g>
			</g>
		</g>
	</g>
</g>
<path opacity="0.22" fill="#FABA12" d="M802.37,1184.04c6.4-1.34,12.68,2.77,14.01,9.17c1.34,6.4-2.77,12.68-9.17,14.02
	c-6.4,1.33-12.68-2.77-14.02-9.18C791.86,1191.65,795.96,1185.38,802.37,1184.04z"/>
<path opacity="0.22" fill="#6FE2D1" d="M776.57,1195.07c-17.44,3.64-28.66,20.78-25.02,38.21c3.64,17.43,20.78,28.65,38.21,25.01
	c17.43-3.64,28.65-20.77,25.01-38.21C811.14,1202.65,794,1191.43,776.57,1195.07z M777.38,1198.98c15.28-3.19,30.31,6.65,33.5,21.92
	c3.19,15.28-6.65,30.3-21.92,33.5c-15.29,3.19-30.3-6.65-33.5-21.93C752.26,1217.19,762.1,1202.16,777.38,1198.98z"/>
<path opacity="0.22" fill="#FABA12" d="M18.5,680.34c-1.83-8.62,3.68-17.1,12.3-18.93c8.63-1.83,17.1,3.67,18.93,12.3
	c1.83,8.63-3.67,17.11-12.3,18.94C28.81,694.47,20.33,688.97,18.5,680.34z"/>
<path opacity="0.22" fill="#F7BAF4" d="M-0.78,653.37c3.72,17.52,21,28.75,38.53,25.03c17.52-3.72,28.75-21,25.03-38.53
	c-3.72-17.51-21-28.75-38.52-25.03C6.73,618.56-4.5,635.84-0.78,653.37z M3.14,652.53c-3.26-15.36,6.59-30.5,21.95-33.77
	c15.35-3.26,30.5,6.59,33.76,21.94c3.26,15.37-6.58,30.51-21.94,33.77C21.55,677.74,6.4,667.9,3.14,652.53z"/>
<polygon opacity="0.22" fill="#6A3DBF" points="109.4,587.87 102.98,582.45 108.4,576.03 103.09,571.55 97.67,577.97 91.25,572.55 
	86.77,577.85 93.19,583.28 87.77,589.7 93.08,594.18 98.5,587.76 104.91,593.18 "/>
<polygon opacity="0.22" fill="#6A3DBF" points="-38.88,-15.88 -41.15,-15.88 -41.15,-18.16 -43.03,-18.16 -43.03,-15.88 
	-45.3,-15.88 -45.3,-14 -43.03,-14 -43.03,-11.73 -41.15,-11.73 -41.15,-14 -38.88,-14 "/>
<polygon opacity="0.22" fill="#6A3DBF" points="46.36,1182.2 37.96,1182.2 37.96,1173.8 31,1173.8 31,1182.2 22.6,1182.2 
	22.6,1189.15 31,1189.15 31,1197.55 37.96,1197.55 37.96,1189.15 46.36,1189.15 "/>
<polygon opacity="0.22" fill="#6A3DBF" points="909.22,138.09 903.53,138.09 903.53,132.4 898.82,132.4 898.82,138.09 
	893.13,138.09 893.13,142.79 898.82,142.79 898.82,148.48 903.53,148.48 903.53,142.79 909.22,142.79 "/>
<g opacity="0.22">
	<g>
		<g>
			<g>
				<path fill="#6A3DBF" d="M651.82,625.67c0,1.65-1.34,2.99-2.99,2.99c-1.65,0-2.99-1.34-2.99-2.99s1.34-2.99,2.99-2.99
					C650.48,622.68,651.82,624.02,651.82,625.67z"/>
				<path fill="#6A3DBF" d="M675.73,625.67c0,1.65-1.34,2.99-2.99,2.99c-1.65,0-2.99-1.34-2.99-2.99s1.34-2.99,2.99-2.99
					C674.39,622.68,675.73,624.02,675.73,625.67z"/>
				<path fill="#6A3DBF" d="M699.65,625.67c0,1.65-1.34,2.99-2.99,2.99c-1.65,0-2.99-1.34-2.99-2.99s1.34-2.99,2.99-2.99
					C698.31,622.68,699.65,624.02,699.65,625.67z"/>
			</g>
			<g>
				<path fill="#6A3DBF" d="M651.82,649.58c0,1.65-1.34,2.99-2.99,2.99c-1.65,0-2.99-1.34-2.99-2.99c0-1.65,1.34-2.99,2.99-2.99
					C650.48,646.59,651.82,647.93,651.82,649.58z"/>
				<path fill="#6A3DBF" d="M675.73,649.58c0,1.65-1.34,2.99-2.99,2.99c-1.65,0-2.99-1.34-2.99-2.99c0-1.65,1.34-2.99,2.99-2.99
					C674.39,646.59,675.73,647.93,675.73,649.58z"/>
				<path fill="#6A3DBF" d="M699.65,649.58c0,1.65-1.34,2.99-2.99,2.99c-1.65,0-2.99-1.34-2.99-2.99c0-1.65,1.34-2.99,2.99-2.99
					C698.31,646.59,699.65,647.93,699.65,649.58z"/>
			</g>
		</g>
		<g>
			<g>
				<path fill="#6A3DBF" d="M651.82,673.49c0,1.65-1.34,2.99-2.99,2.99c-1.65,0-2.99-1.34-2.99-2.99c0-1.65,1.34-2.99,2.99-2.99
					C650.48,670.51,651.82,671.84,651.82,673.49z"/>
				<path fill="#6A3DBF" d="M675.73,673.49c0,1.65-1.34,2.99-2.99,2.99c-1.65,0-2.99-1.34-2.99-2.99c0-1.65,1.34-2.99,2.99-2.99
					C674.39,670.51,675.73,671.84,675.73,673.49z"/>
				<path fill="#6A3DBF" d="M699.65,673.49c0,1.65-1.34,2.99-2.99,2.99c-1.65,0-2.99-1.34-2.99-2.99c0-1.65,1.34-2.99,2.99-2.99
					C698.31,670.51,699.65,671.84,699.65,673.49z"/>
			</g>
			<g>
				<path fill="#6A3DBF" d="M651.82,697.4c0,1.65-1.34,2.99-2.99,2.99c-1.65,0-2.99-1.34-2.99-2.99c0-1.65,1.34-2.99,2.99-2.99
					C650.48,694.42,651.82,695.75,651.82,697.4z"/>
				<path fill="#6A3DBF" d="M675.73,697.4c0,1.65-1.34,2.99-2.99,2.99c-1.65,0-2.99-1.34-2.99-2.99c0-1.65,1.34-2.99,2.99-2.99
					C674.39,694.42,675.73,695.75,675.73,697.4z"/>
				<path fill="#6A3DBF" d="M699.65,697.4c0,1.65-1.34,2.99-2.99,2.99c-1.65,0-2.99-1.34-2.99-2.99c0-1.65,1.34-2.99,2.99-2.99
					C698.31,694.42,699.65,695.75,699.65,697.4z"/>
			</g>
		</g>
	</g>
	<g>
		<g>
			<g>
				<path fill="#6A3DBF" d="M651.82,721.32c0,1.65-1.34,2.99-2.99,2.99c-1.65,0-2.99-1.34-2.99-2.99c0-1.65,1.34-2.99,2.99-2.99
					C650.48,718.33,651.82,719.67,651.82,721.32z"/>
				<path fill="#6A3DBF" d="M675.73,721.32c0,1.65-1.34,2.99-2.99,2.99c-1.65,0-2.99-1.34-2.99-2.99c0-1.65,1.34-2.99,2.99-2.99
					C674.39,718.33,675.73,719.67,675.73,721.32z"/>
				<path fill="#6A3DBF" d="M699.65,721.32c0,1.65-1.34,2.99-2.99,2.99c-1.65,0-2.99-1.34-2.99-2.99c0-1.65,1.34-2.99,2.99-2.99
					C698.31,718.33,699.65,719.67,699.65,721.32z"/>
			</g>
			<g>
				<path fill="#6A3DBF" d="M651.82,745.23c0,1.65-1.34,2.99-2.99,2.99c-1.65,0-2.99-1.34-2.99-2.99s1.34-2.99,2.99-2.99
					C650.48,742.24,651.82,743.58,651.82,745.23z"/>
				<path fill="#6A3DBF" d="M675.73,745.23c0,1.65-1.34,2.99-2.99,2.99c-1.65,0-2.99-1.34-2.99-2.99s1.34-2.99,2.99-2.99
					C674.39,742.24,675.73,743.58,675.73,745.23z"/>
				<path fill="#6A3DBF" d="M699.65,745.23c0,1.65-1.34,2.99-2.99,2.99c-1.65,0-2.99-1.34-2.99-2.99s1.34-2.99,2.99-2.99
					C698.31,742.24,699.65,743.58,699.65,745.23z"/>
			</g>
		</g>
		<g>
			<g>
				<path fill="#6A3DBF" d="M651.82,769.14c0,1.65-1.34,2.99-2.99,2.99c-1.65,0-2.99-1.34-2.99-2.99c0-1.65,1.34-2.99,2.99-2.99
					C650.48,766.15,651.82,767.49,651.82,769.14z"/>
				<path fill="#6A3DBF" d="M675.73,769.14c0,1.65-1.34,2.99-2.99,2.99c-1.65,0-2.99-1.34-2.99-2.99c0-1.65,1.34-2.99,2.99-2.99
					C674.39,766.15,675.73,767.49,675.73,769.14z"/>
				<path fill="#6A3DBF" d="M699.65,769.14c0,1.65-1.34,2.99-2.99,2.99c-1.65,0-2.99-1.34-2.99-2.99c0-1.65,1.34-2.99,2.99-2.99
					C698.31,766.15,699.65,767.49,699.65,769.14z"/>
			</g>
			<g>
				<path fill="#6A3DBF" d="M651.82,793.05c0,1.65-1.34,2.99-2.99,2.99c-1.65,0-2.99-1.34-2.99-2.99c0-1.65,1.34-2.99,2.99-2.99
					C650.48,790.06,651.82,791.4,651.82,793.05z"/>
				<path fill="#6A3DBF" d="M675.73,793.05c0,1.65-1.34,2.99-2.99,2.99c-1.65,0-2.99-1.34-2.99-2.99c0-1.65,1.34-2.99,2.99-2.99
					C674.39,790.06,675.73,791.4,675.73,793.05z"/>
				<path fill="#6A3DBF" d="M699.65,793.05c0,1.65-1.34,2.99-2.99,2.99c-1.65,0-2.99-1.34-2.99-2.99c0-1.65,1.34-2.99,2.99-2.99
					C698.31,790.06,699.65,791.4,699.65,793.05z"/>
			</g>
		</g>
	</g>
</g>
<path opacity="0.22" fill="#6FE2D1" d="M847.7,712.32l-172.34-22.98l22.98,172.34L847.7,712.32z M834.91,716.65L702.66,848.9
	l-20.34-152.6L834.91,716.65z"/>
<path opacity="0.22" fill="#FABA12" d="M815.19,675.17c0,6.54-5.3,11.84-11.84,11.84c-6.54,0-11.85-5.3-11.85-11.84
	c0-6.54,5.31-11.84,11.85-11.84C809.89,663.32,815.19,668.63,815.19,675.17z"/>
<path opacity="0.22" fill="#6FE2D1" d="M809.66,647.65c0-17.81-14.49-32.29-32.29-32.29c-17.81,0-32.29,14.49-32.29,32.29
	c0,17.81,14.49,32.29,32.29,32.29C795.18,679.94,809.66,665.46,809.66,647.65z M805.68,647.65c0,15.61-12.7,28.31-28.31,28.31
	c-15.61,0-28.31-12.7-28.31-28.31c0-15.61,12.7-28.31,28.31-28.31C792.98,619.34,805.68,632.04,805.68,647.65z"/>
<polygon opacity="0.22" fill="#6A3DBF" points="769.57,735.92 763.88,735.92 763.88,730.23 759.18,730.23 759.18,735.92 
	753.49,735.92 753.49,740.63 759.18,740.63 759.18,746.31 763.88,746.31 763.88,740.63 769.57,740.63 "/>
<polygon opacity="0.22" fill="#6A3DBF" points="988.71,1242.54 983.02,1242.54 983.02,1236.85 978.31,1236.85 978.31,1242.54 
	972.62,1242.54 972.62,1247.25 978.31,1247.25 978.31,1252.94 983.02,1252.94 983.02,1247.25 988.71,1247.25 "/>
<g opacity="0.22">
	<defs>
		<polygon id="SVGID_10_" opacity="0.22" points="549.8,308.19 666.54,346.81 633.43,251.17 		"/>
	</defs>
	<clipPath id="SVGID_20_">
		<use xlink:href="#SVGID_10_"  overflow="visible"/>
	</clipPath>
	<g clip-path="url(#SVGID_20_)">
		<g>
			<g>
				<g>
					
						<rect x="742.56" y="-57.86" transform="matrix(0.3158 -0.9488 0.9488 0.3158 387.9384 792.9818)" fill="#6A3DBF" width="2.51" height="370.71"/>
					
						<rect x="735.98" y="-37.97" transform="matrix(0.3138 -0.9495 0.9495 0.3138 365.9531 801.1332)" fill="#6A3DBF" width="2.51" height="370.72"/>
				</g>
				<g>
					<polygon fill="#6A3DBF" points="554.29,110.23 555.08,107.85 907.02,224.3 906.23,226.69 					"/>
					
						<rect x="722.82" y="1.79" transform="matrix(0.3139 -0.9495 0.9495 0.3139 319.1029 815.8853)" fill="#6A3DBF" width="2.52" height="370.71"/>
				</g>
			</g>
			<g>
				<g>
					
						<rect x="716.24" y="21.68" transform="matrix(0.3138 -0.9495 0.9495 0.3138 295.7809 823.3311)" fill="#6A3DBF" width="2.51" height="370.71"/>
					
						<rect x="709.66" y="41.56" transform="matrix(0.3162 -0.9487 0.9487 0.3162 270.8292 829.595)" fill="#6A3DBF" width="2.52" height="370.71"/>
				</g>
				<g>
					
						<rect x="703.08" y="61.45" transform="matrix(0.3117 -0.9502 0.9502 0.3117 250.2702 839.1125)" fill="#6A3DBF" width="2.51" height="370.71"/>
					<polygon fill="#6A3DBF" points="521.39,209.65 522.18,207.27 874.12,323.73 873.34,326.11 					"/>
				</g>
			</g>
		</g>
		<g>
			<g>
				<g>
					
						<rect x="689.92" y="101.21" transform="matrix(0.3138 -0.9495 0.9495 0.3138 202.2023 852.9189)" fill="#6A3DBF" width="2.51" height="370.71"/>
					
						<rect x="683.34" y="121.1" transform="matrix(0.3137 -0.9495 0.9495 0.3137 178.8249 860.3361)" fill="#6A3DBF" width="2.51" height="370.71"/>
				</g>
				<g>
					<polygon fill="#6A3DBF" points="501.65,269.3 502.44,266.92 854.38,383.38 853.59,385.76 					"/>
					
						<rect x="670.18" y="160.87" transform="matrix(0.3117 -0.9502 0.9502 0.3117 133.1506 876.2706)" fill="#6A3DBF" width="2.51" height="370.71"/>
				</g>
			</g>
			<g>
				<g>
					
						<rect x="663.6" y="180.75" transform="matrix(0.3159 -0.9488 0.9488 0.3159 107.4641 881.2578)" fill="#6A3DBF" width="2.52" height="370.71"/>
					
						<rect x="657.02" y="200.64" transform="matrix(0.3118 -0.9502 0.9502 0.3118 86.2967 891.1205)" fill="#6A3DBF" width="2.51" height="370.71"/>
				</g>
				<g>
					
						<rect x="650.44" y="220.52" transform="matrix(0.3139 -0.9495 0.9495 0.3139 61.7764 897.2383)" fill="#6A3DBF" width="2.51" height="370.71"/>
					
						<rect x="643.86" y="240.4" transform="matrix(0.3137 -0.9495 0.9495 0.3137 38.4502 904.7203)" fill="#6A3DBF" width="2.52" height="370.71"/>
				</g>
			</g>
		</g>
	</g>
</g>
<polygon opacity="0.22" fill="#6A3DBF" points="526.08,399.28 520.39,399.28 520.39,393.59 515.68,393.59 515.68,399.28 
	509.99,399.28 509.99,403.98 515.68,403.98 515.68,409.67 520.39,409.67 520.39,403.98 526.08,403.98 "/>
<g opacity="0.22">
	<defs>
		<polygon id="SVGID_2_" opacity="0.22" points="511.62,79.94 621.84,25.44 531.1,-19.38 		"/>
	</defs>
	<clipPath id="SVGID_21_">
		<use xlink:href="#SVGID_2_"  overflow="visible"/>
	</clipPath>
	<g clip-path="url(#SVGID_21_)">
		<g>
			<g>
				<g>
					
						<rect x="337.46" y="-186.2" transform="matrix(0.8972 -0.4416 0.4416 0.8972 135.416 211.8703)" fill="#6A3DBF" width="370.71" height="2.51"/>
					
						<rect x="346.74" y="-167.42" transform="matrix(0.8963 -0.4435 0.4435 0.8963 128.8932 218.7558)" fill="#6A3DBF" width="370.72" height="2.51"/>
				</g>
				<g>
					<polygon fill="#6A3DBF" points="375.78,-64.12 374.67,-66.37 706.98,-230.66 708.1,-228.41 					"/>
					
						<rect x="365.3" y="-129.88" transform="matrix(0.8963 -0.4434 0.4434 0.8963 114.1292 230.8391)" fill="#6A3DBF" width="370.71" height="2.52"/>
				</g>
			</g>
			<g>
				<g>
					
						<rect x="374.59" y="-111.1" transform="matrix(0.8963 -0.4435 0.4435 0.8963 106.8067 236.9547)" fill="#6A3DBF" width="370.71" height="2.51"/>
					
						<rect x="383.87" y="-92.32" transform="matrix(0.8974 -0.4412 0.4412 0.8974 98.5818 241.8071)" fill="#6A3DBF" width="370.71" height="2.52"/>
				</g>
				<g>
					
						<rect x="393.15" y="-73.55" transform="matrix(0.8953 -0.4455 0.4455 0.8953 92.7744 250.1379)" fill="#6A3DBF" width="370.71" height="2.51"/>
					<polygon fill="#6A3DBF" points="422.19,29.76 421.08,27.5 753.39,-136.78 754.51,-134.54 					"/>
				</g>
			</g>
		</g>
		<g>
			<g>
				<g>
					
						<rect x="411.71" y="-36" transform="matrix(0.8963 -0.4435 0.4435 0.8963 77.3491 261.2122)" fill="#6A3DBF" width="370.71" height="2.51"/>
					
						<rect x="421" y="-17.22" transform="matrix(0.8962 -0.4436 0.4436 0.8962 69.9942 267.2962)" fill="#6A3DBF" width="370.71" height="2.51"/>
				</g>
				<g>
					<polygon fill="#6A3DBF" points="450.03,86.08 448.92,83.83 781.24,-80.46 782.35,-78.21 					"/>
					
						<rect x="439.56" y="20.33" transform="matrix(0.8953 -0.4454 0.4454 0.8953 55.8098 280.6294)" fill="#6A3DBF" width="370.71" height="2.51"/>
				</g>
			</g>
			<g>
				<g>
					
						<rect x="448.84" y="39.1" transform="matrix(0.8973 -0.4415 0.4415 0.8973 47.3423 284.1537)" fill="#6A3DBF" width="370.71" height="2.52"/>
					
						<rect x="458.13" y="57.88" transform="matrix(0.8953 -0.4454 0.4454 0.8953 41.021 292.8132)" fill="#6A3DBF" width="370.71" height="2.51"/>
				</g>
				<g>
					
						<rect x="467.41" y="76.65" transform="matrix(0.8963 -0.4434 0.4434 0.8963 33.1377 297.5308)" fill="#6A3DBF" width="370.71" height="2.51"/>
					
						<rect x="476.69" y="95.43" transform="matrix(0.8962 -0.4436 0.4436 0.8962 25.8036 303.6863)" fill="#6A3DBF" width="370.71" height="2.52"/>
				</g>
			</g>
		</g>
	</g>
</g>
<polygon opacity="0.22" fill="#F7BAF4" points="700.73,127.03 685.01,65.25 650.81,106.84 "/>
<g opacity="0.22">
	<defs>
		<path id="SVGID_1_" opacity="0.22" d="M683.92,100.48c22.97,39.75,9.37,90.6-30.38,113.57c-39.75,22.97-90.6,9.38-113.57-30.37
			c-22.98-39.75-9.38-90.6,30.37-113.58C610.09,47.14,660.94,60.74,683.92,100.48z"/>
	</defs>
	<clipPath id="SVGID_22_">
		<use xlink:href="#SVGID_1_"  overflow="visible"/>
	</clipPath>
	<g clip-path="url(#SVGID_22_)">
		<g>
			<g>
				<g>
					<polygon fill="#6A3DBF" points="600.38,326.34 599.24,327 441.44,53.99 442.58,53.34 					"/>
					<polygon fill="#6A3DBF" points="613.96,318.49 612.83,319.14 455.03,46.14 456.17,45.48 					"/>
				</g>
				<g>
					<polygon fill="#6A3DBF" points="627.55,310.64 626.41,311.3 468.62,38.29 469.75,37.63 					"/>
					<polygon fill="#6A3DBF" points="641.13,302.79 640,303.44 482.21,30.43 483.33,29.78 					"/>
				</g>
			</g>
			<g>
				<g>
					<polygon fill="#6A3DBF" points="654.72,294.93 653.59,295.59 495.79,22.59 496.93,21.93 					"/>
					<polygon fill="#6A3DBF" points="668.31,287.08 667.17,287.74 509.38,14.72 510.51,14.08 					"/>
				</g>
				<g>
					<polygon fill="#6A3DBF" points="681.89,279.24 680.76,279.89 522.96,6.88 524.1,6.22 					"/>
					<polygon fill="#6A3DBF" points="695.48,271.38 694.35,272.03 536.56,-0.98 537.68,-1.63 					"/>
				</g>
			</g>
		</g>
		<g>
			<g>
				<g>
					<polygon fill="#6A3DBF" points="709.06,263.53 707.93,264.18 550.13,-8.84 551.26,-9.48 					"/>
					<polygon fill="#6A3DBF" points="722.65,255.67 721.51,256.33 563.72,-16.68 564.85,-17.34 					"/>
				</g>
				<g>
					
						<rect x="656.11" y="-46.02" transform="matrix(0.8674 -0.4976 0.4976 0.8674 31.531 341.614)" fill="#6A3DBF" width="1.31" height="315.33"/>
					<polygon fill="#6A3DBF" points="749.82,239.96 748.69,240.62 590.89,-32.38 592.02,-33.04 					"/>
				</g>
			</g>
			<g>
				<g>
					<polygon fill="#6A3DBF" points="763.41,232.12 762.27,232.77 604.47,-40.24 605.6,-40.89 					"/>
					<polygon fill="#6A3DBF" points="776.99,224.26 775.86,224.91 618.06,-48.08 619.2,-48.75 					"/>
				</g>
				<g>
					<polygon fill="#6A3DBF" points="790.57,216.41 789.44,217.06 631.65,-55.94 632.78,-56.6 					"/>
					
						<rect x="724.05" y="-85.28" transform="matrix(0.8658 -0.5004 0.5004 0.8658 61.0498 372.3795)" fill="#6A3DBF" width="1.3" height="315.33"/>
				</g>
			</g>
		</g>
	</g>
</g>
<polygon opacity="0.22" fill="#F7BAF4" points="190.12,799.6 174.31,737.45 139.9,779.29 "/>
<g opacity="0.22">
	<defs>
		<path id="SVGID_5_" opacity="0.22" d="M173.21,772.9c23.11,39.99,9.43,91.15-30.56,114.25c-39.98,23.11-91.14,9.43-114.25-30.55
			c-23.12-39.99-9.44-91.14,30.55-114.26C98.94,719.24,150.09,732.91,173.21,772.9z"/>
	</defs>
	<clipPath id="SVGID_23_">
		<use xlink:href="#SVGID_5_"  overflow="visible"/>
	</clipPath>
	<g clip-path="url(#SVGID_23_)">
		<g>
			<g>
				<g>
					<polygon fill="#6A3DBF" points="89.17,1000.1 88.02,1000.77 -70.72,726.13 -69.58,725.47 					"/>
					<polygon fill="#6A3DBF" points="102.83,992.21 101.69,992.86 -57.04,718.23 -55.9,717.57 					"/>
				</g>
				<g>
					<polygon fill="#6A3DBF" points="116.5,984.31 115.36,984.97 -43.38,710.33 -42.24,709.67 					"/>
					<polygon fill="#6A3DBF" points="130.16,976.41 129.03,977.07 -29.71,702.43 -28.58,701.77 					"/>
				</g>
			</g>
			<g>
				<g>
					<polygon fill="#6A3DBF" points="143.83,968.51 142.69,969.17 -16.04,694.54 -14.9,693.87 					"/>
					<polygon fill="#6A3DBF" points="157.5,960.6 156.36,961.27 -2.38,686.63 -1.24,685.98 					"/>
				</g>
				<g>
					<polygon fill="#6A3DBF" points="171.16,952.72 170.03,953.37 11.28,678.73 12.43,678.08 					"/>
					<polygon fill="#6A3DBF" points="184.84,944.81 183.7,945.47 24.96,670.83 26.09,670.18 					"/>
				</g>
			</g>
		</g>
		<g>
			<g>
				<g>
					<polygon fill="#6A3DBF" points="198.5,936.91 197.36,937.57 38.62,662.93 39.76,662.28 					"/>
					<polygon fill="#6A3DBF" points="212.17,929.01 211.03,929.68 52.29,655.04 53.43,654.37 					"/>
				</g>
				<g>
					
						<rect x="145.23" y="625.52" transform="matrix(0.8674 -0.4976 0.4976 0.8674 -370.8397 176.5685)" fill="#6A3DBF" width="1.32" height="317.21"/>
					<polygon fill="#6A3DBF" points="239.5,913.21 238.36,913.87 79.62,639.24 80.76,638.58 					"/>
				</g>
			</g>
			<g>
				<g>
					<polygon fill="#6A3DBF" points="253.17,905.32 252.02,905.98 93.29,631.34 94.42,630.68 					"/>
					<polygon fill="#6A3DBF" points="266.83,897.41 265.69,898.07 106.96,623.45 108.1,622.78 					"/>
				</g>
				<g>
					<polygon fill="#6A3DBF" points="280.49,889.52 279.36,890.17 120.63,615.54 121.76,614.88 					"/>
					
						<rect x="213.58" y="586.03" transform="matrix(0.8658 -0.5004 0.5004 0.8658 -343.8828 207.1559)" fill="#6A3DBF" width="1.31" height="317.21"/>
				</g>
			</g>
		</g>
	</g>
</g>
<polygon opacity="0.22" fill="#6A3DBF" points="736.38,121.58 732.33,125.58 728.33,121.53 724.98,124.84 728.97,128.89 
	724.92,132.89 728.23,136.23 732.28,132.24 736.27,136.29 739.63,132.98 735.63,128.93 739.68,124.93 "/>
<polygon opacity="0.22" fill="#6A3DBF" points="-84.8,176.23 -90.52,176.23 -90.52,170.51 -95.26,170.51 -95.26,176.23 
	-100.98,176.23 -100.98,180.96 -95.26,180.96 -95.26,186.69 -90.52,186.69 -90.52,180.96 -84.8,180.96 "/>
<path opacity="0.22" fill="#F7BAF4" d="M-44.79,668.17c-4.4,5.21-12.19,5.87-17.41,1.47c-5.21-4.4-5.87-12.2-1.47-17.41
	c4.4-5.22,12.2-5.87,17.41-1.47C-41.04,655.15-40.39,662.95-44.79,668.17z"/>
<path opacity="0.22" fill="#F7BAF4" d="M456.36,1180.03h18.42c0,24.33,19.8,44.14,44.13,44.13c24.33,0,44.13-19.8,44.13-44.13
	l18.42,0c0,34.49-28.06,62.55-62.55,62.55C484.43,1242.58,456.36,1214.52,456.36,1180.03z"/>
<path opacity="0.22" fill="#6FE2D1" d="M799.14,1052.32l-7.67,16.75c-22.13-10.13-48.37-0.37-58.5,21.76
	c-10.13,22.13-0.37,48.37,21.76,58.5l-7.67,16.74c-31.36-14.36-45.19-51.55-30.84-82.91
	C730.59,1051.8,767.78,1037.96,799.14,1052.32z"/>
<path opacity="0.22" fill="#FABA12" d="M613.74,1186.5c6.2-6.2,16.25-6.2,22.44,0c6.2,6.2,6.2,16.25,0,22.44
	c-6.2,6.2-16.25,6.2-22.44,0C607.55,1202.75,607.55,1192.7,613.74,1186.5z"/>
<path opacity="0.22" fill="#F7BAF4" d="M641.97,1187.09c-12.59,12.59-12.59,33.08,0,45.67c12.59,12.59,33.08,12.59,45.67,0
	c12.59-12.59,12.59-33.07,0-45.67C675.05,1174.5,654.56,1174.5,641.97,1187.09z M644.79,1189.91c11.04-11.04,28.99-11.03,40.03,0
	c11.04,11.04,11.04,29,0,40.03c-11.04,11.04-29,11.04-40.04,0C633.75,1218.91,633.75,1200.94,644.79,1189.91z"/>
<polygon opacity="0.22" fill="#F7BAF4" points="588.98,1114.95 550.58,1096.62 557.3,1131.94 "/>
<polygon opacity="0.22" fill="#F7BAF4" points="903.92,961.44 865.52,943.11 872.24,978.44 "/>
<path opacity="0.22" fill="#FABA12" d="M698.74,972.06c1.09,8.7-5.07,16.63-13.77,17.72c-8.7,1.1-16.63-5.07-17.72-13.76
	c-1.1-8.7,5.07-16.64,13.77-17.73C689.72,957.2,697.65,963.36,698.74,972.06z"/>
<path opacity="0.22" fill="#F7BAF4" d="M715.59,1000.39c-2.22-17.66-18.4-30.23-36.07-28.02c-17.67,2.22-30.23,18.4-28.01,36.07
	c2.22,17.66,18.4,30.23,36.07,28.02C705.24,1034.24,717.81,1018.06,715.59,1000.39z M711.63,1000.89
	c1.94,15.49-9.07,29.67-24.57,31.61c-15.48,1.94-29.67-9.07-31.61-24.56c-1.95-15.49,9.07-29.67,24.55-31.62
	C695.5,974.39,709.68,985.4,711.63,1000.89z"/>
<polygon opacity="0.22" fill="#6A3DBF" points="600.97,1056.06 606.88,1061.96 600.97,1067.87 605.86,1072.75 611.76,1066.85 
	617.67,1072.75 622.55,1067.87 616.65,1061.96 622.55,1056.06 617.67,1051.17 611.76,1057.08 605.86,1051.18 "/>
<path opacity="0.22" fill="#F7BAF4" d="M-151.5,815.01l18.53,0c0,24.48,19.92,44.4,44.4,44.4c24.48,0,44.4-19.92,44.4-44.4l18.53,0
	c0,34.7-28.23,62.92-62.92,62.92C-123.28,877.94-151.5,849.71-151.5,815.01z"/>
<polygon opacity="0.22" fill="#F7BAF4" points="-18.1,749.55 -56.73,731.11 -49.97,766.64 "/>
<path opacity="0.22" fill="#F7BAF4" d="M781.17,964.37c4.79-4.79,12.57-4.79,17.36,0s4.8,12.57,0,17.36c-4.8,4.8-12.58,4.8-17.37,0
	C776.37,976.94,776.37,969.17,781.17,964.37z"/>
<path opacity="0.22" fill="#F7BAF4" d="M82.72-4.97c0,2.71-2.19,4.91-4.91,4.91c-2.71,0-4.9-2.2-4.9-4.91c0-2.71,2.19-4.91,4.9-4.91
	C80.53-9.87,82.72-7.68,82.72-4.97z"/>
<g opacity="0.22">
	<defs>
		<polygon id="SVGID_9_" opacity="0.22" points="422.13,1231.64 321.44,1130.96 305.94,1247.14 		"/>
	</defs>
	<clipPath id="SVGID_24_">
		<use xlink:href="#SVGID_9_"  overflow="visible"/>
	</clipPath>
	<g clip-path="url(#SVGID_24_)">
		<g>
			<g>
				<g>
					
						<rect x="125.94" y="1103.02" transform="matrix(0.7071 -0.7072 0.7072 0.7071 -894.4948 476.0996)" fill="#6A3DBF" width="2.91" height="429.32"/>
					
						<rect x="143.09" y="1085.86" transform="matrix(0.7071 -0.7071 0.7071 0.7071 -877.2755 483.1253)" fill="#6A3DBF" width="2.91" height="429.33"/>
				</g>
				<g>
					
						<rect x="160.24" y="1068.72" transform="matrix(0.7066 -0.7076 0.7076 0.7066 -860.6967 490.9659)" fill="#6A3DBF" width="2.91" height="429.32"/>
					
						<rect x="177.39" y="1051.57" transform="matrix(0.7081 -0.7061 0.7061 0.7081 -841.9124 495.924)" fill="#6A3DBF" width="2.91" height="429.32"/>
				</g>
			</g>
			<g>
				<g>
					
						<rect x="194.54" y="1034.42" transform="matrix(0.7076 -0.7066 0.7066 0.7076 -825.2816 503.6957)" fill="#6A3DBF" width="2.91" height="429.32"/>
					
						<rect x="211.69" y="1017.27" transform="matrix(0.7066 -0.7076 0.7076 0.7066 -809.1965 512.2844)" fill="#6A3DBF" width="2.91" height="429.32"/>
				</g>
				<g>
					
						<rect x="228.85" y="1000.11" transform="matrix(0.7065 -0.7077 0.7077 0.7065 -792.0811 519.4702)" fill="#6A3DBF" width="2.91" height="429.32"/>
					
						<rect x="246" y="982.96" transform="matrix(0.7066 -0.7076 0.7076 0.7066 -774.8079 526.4185)" fill="#6A3DBF" width="2.91" height="429.32"/>
				</g>
			</g>
		</g>
		<g>
			<g>
				<g>
					
						<rect x="263.15" y="965.81" transform="matrix(0.7066 -0.7076 0.7076 0.7066 -757.684 533.5898)" fill="#6A3DBF" width="2.91" height="429.32"/>
					
						<rect x="280.3" y="948.66" transform="matrix(0.7071 -0.7072 0.7072 0.7071 -740.1125 540.0351)" fill="#6A3DBF" width="2.91" height="429.32"/>
				</g>
				<g>
					
						<rect x="297.45" y="931.51" transform="matrix(0.7066 -0.7076 0.7076 0.7066 -723.3118 547.739)" fill="#6A3DBF" width="2.91" height="429.32"/>
					
						<rect x="314.6" y="914.35" transform="matrix(0.7061 -0.7081 0.7081 0.7061 -706.5968 555.6529)" fill="#6A3DBF" width="2.91" height="429.33"/>
				</g>
			</g>
			<g>
				<g>
					
						<rect x="331.76" y="897.2" transform="matrix(0.7081 -0.7061 0.7061 0.7081 -687.8093 559.79)" fill="#6A3DBF" width="2.91" height="429.33"/>
					
						<rect x="348.91" y="880.05" transform="matrix(0.7071 -0.7071 0.7071 0.7071 -671.4633 568.3848)" fill="#6A3DBF" width="2.91" height="429.32"/>
				</g>
				<g>
					
						<rect x="366.06" y="862.9" transform="matrix(0.7071 -0.7071 0.7071 0.7071 -654.3113 575.4818)" fill="#6A3DBF" width="2.91" height="429.32"/>
					
						<rect x="383.21" y="845.75" transform="matrix(0.7066 -0.7076 0.7076 0.7066 -637.5009 583.3212)" fill="#6A3DBF" width="2.91" height="429.33"/>
				</g>
			</g>
		</g>
	</g>
</g>
<polygon opacity="0.22" fill="#6A3DBF" points="276.13,1205.95 276.13,1208.22 273.85,1208.22 273.85,1210.1 276.13,1210.1 
	276.13,1212.37 278.01,1212.37 278.01,1210.1 280.28,1210.1 280.28,1208.22 278.01,1208.22 278.01,1205.95 "/>
<path opacity="0.22" fill="#F7BAF4" d="M287.04,1084.35c2.71,0,4.91,2.19,4.91,4.91c0,2.71-2.2,4.9-4.91,4.9
	c-2.71,0-4.91-2.19-4.91-4.9C282.14,1086.54,284.33,1084.35,287.04,1084.35z"/>
<g opacity="0.22">
	<defs>
		<polygon id="SVGID_7_" opacity="0.22" points="755.63,522.83 855.72,422.73 740.23,407.33 		"/>
	</defs>
	<clipPath id="SVGID_25_">
		<use xlink:href="#SVGID_7_"  overflow="visible"/>
	</clipPath>
	<g clip-path="url(#SVGID_25_)">
		<g>
			<g>
				<g>
					
						<rect x="456.72" y="228.39" transform="matrix(0.7071 -0.7072 0.7072 0.7071 33.7708 541.2051)" fill="#6A3DBF" width="426.77" height="2.9"/>
					
						<rect x="473.77" y="245.45" transform="matrix(0.7071 -0.7071 0.7071 0.7071 26.6839 558.208)" fill="#6A3DBF" width="426.78" height="2.89"/>
				</g>
				<g>
					
						<rect x="490.82" y="262.5" transform="matrix(0.7066 -0.7076 0.7076 0.7066 19.8463 575.7494)" fill="#6A3DBF" width="426.78" height="2.89"/>
					
						<rect x="507.87" y="279.54" transform="matrix(0.7081 -0.7061 0.7061 0.7081 12.1314 591.3273)" fill="#6A3DBF" width="426.77" height="2.89"/>
				</g>
			</g>
			<g>
				<g>
					
						<rect x="524.92" y="296.6" transform="matrix(0.7076 -0.7066 0.7066 0.7076 5.2715 608.8225)" fill="#6A3DBF" width="426.77" height="2.89"/>
					
						<rect x="541.97" y="313.64" transform="matrix(0.7066 -0.7076 0.7076 0.7066 -1.3387 626.9516)" fill="#6A3DBF" width="426.77" height="2.89"/>
				</g>
				<g>
					
						<rect x="559.02" y="330.69" transform="matrix(0.7065 -0.7077 0.7077 0.7065 -8.3755 644.0834)" fill="#6A3DBF" width="426.78" height="2.89"/>
					
						<rect x="576.07" y="347.74" transform="matrix(0.7066 -0.7076 0.7076 0.7066 -15.4852 661.0294)" fill="#6A3DBF" width="426.78" height="2.89"/>
				</g>
			</g>
		</g>
		<g>
			<g>
				<g>
					
						<rect x="593.11" y="364.79" transform="matrix(0.7066 -0.7076 0.7076 0.7066 -22.5274 678.1476)" fill="#6A3DBF" width="426.77" height="2.89"/>
					
						<rect x="610.16" y="381.84" transform="matrix(0.7071 -0.7072 0.7072 0.7071 -29.7918 694.6637)" fill="#6A3DBF" width="426.77" height="2.9"/>
				</g>
				<g>
					
						<rect x="627.21" y="398.89" transform="matrix(0.7066 -0.7076 0.7076 0.7066 -36.6698 712.2301)" fill="#6A3DBF" width="426.77" height="2.89"/>
					
						<rect x="644.26" y="415.94" transform="matrix(0.7061 -0.7081 0.7081 0.7061 -43.4842 730.0118)" fill="#6A3DBF" width="426.78" height="2.89"/>
				</g>
			</g>
			<g>
				<g>
					
						<rect x="661.31" y="432.99" transform="matrix(0.7081 -0.7061 0.7061 0.7081 -51.4517 744.4089)" fill="#6A3DBF" width="426.78" height="2.89"/>
					
						<rect x="678.36" y="450.05" transform="matrix(0.7071 -0.7071 0.7071 0.7071 -58.0611 762.8082)" fill="#6A3DBF" width="426.78" height="2.89"/>
				</g>
				<g>
					
						<rect x="695.41" y="467.09" transform="matrix(0.7071 -0.7071 0.7071 0.7071 -65.1245 779.8489)" fill="#6A3DBF" width="426.78" height="2.9"/>
					
						<rect x="712.46" y="484.14" transform="matrix(0.7066 -0.7076 0.7076 0.7066 -71.9626 797.6184)" fill="#6A3DBF" width="426.78" height="2.9"/>
				</g>
			</g>
		</g>
	</g>
</g>
<g opacity="0.22">
	<defs>
		<path id="SVGID_6_" opacity="0.22" d="M1010.07,453.52c-8.81,33.85-43.4,54.15-77.25,45.34c-33.85-8.81-54.15-43.4-45.34-77.25
			c8.81-33.85,43.4-54.15,77.25-45.34C998.58,385.08,1018.88,419.67,1010.07,453.52z"/>
	</defs>
	<clipPath id="SVGID_26_">
		<use xlink:href="#SVGID_6_"  overflow="visible"/>
	</clipPath>
	<g clip-path="url(#SVGID_26_)">
		<g>
			<g>
				<g>
					
						<rect x="753.54" y="414.43" transform="matrix(0.2519 -0.9678 0.9678 0.2519 252.0549 1155.9189)" fill="#6A3DBF" width="240.26" height="1"/>
					
						<rect x="765.11" y="417.44" transform="matrix(0.2508 -0.968 0.968 0.2508 258.6234 1170.057)" fill="#6A3DBF" width="240.26" height="1"/>
				</g>
				<g>
					<polygon fill="#6A3DBF" points="867.03,537.34 866.07,537.08 926.58,304.57 927.55,304.82 					"/>
					<polygon fill="#6A3DBF" points="878.61,540.35 877.64,540.1 938.16,307.58 939.12,307.83 					"/>
				</g>
			</g>
			<g>
				<g>
					
						<rect x="799.82" y="426.48" transform="matrix(0.2508 -0.968 0.968 0.2508 275.8817 1210.4274)" fill="#6A3DBF" width="240.26" height="1"/>
					<polygon fill="#6A3DBF" points="901.75,546.37 900.78,546.12 961.3,313.61 962.26,313.86 					"/>
				</g>
				<g>
					<polygon fill="#6A3DBF" points="913.31,549.38 912.35,549.13 972.87,316.62 973.83,316.87 					"/>
					<polygon fill="#6A3DBF" points="924.89,552.39 923.92,552.14 984.44,319.63 985.41,319.88 					"/>
				</g>
			</g>
		</g>
		<g>
			<g>
				<g>
					<polygon fill="#6A3DBF" points="936.46,555.4 935.49,555.16 996.01,322.64 996.97,322.89 					"/>
					
						<rect x="857.67" y="441.54" transform="matrix(0.2533 -0.9674 0.9674 0.2533 302.4789 1275.9606)" fill="#6A3DBF" width="240.26" height="1"/>
				</g>
				<g>
					<polygon fill="#6A3DBF" points="959.6,561.43 958.63,561.18 1019.15,328.66 1020.11,328.91 					"/>
					<polygon fill="#6A3DBF" points="971.17,564.44 970.21,564.19 1030.72,331.68 1031.69,331.93 					"/>
				</g>
			</g>
			<g>
				<g>
					<polygon fill="#6A3DBF" points="982.74,567.45 981.77,567.2 1042.29,334.69 1043.25,334.94 					"/>
					<polygon fill="#6A3DBF" points="994.31,570.46 993.35,570.21 1053.86,337.7 1054.83,337.95 					"/>
				</g>
				<g>
					<polygon fill="#6A3DBF" points="1005.88,573.48 1004.91,573.23 1065.43,340.71 1066.4,340.96 					"/>
					
						<rect x="927.1" y="459.61" transform="matrix(0.2533 -0.9674 0.9674 0.2533 336.8352 1356.6089)" fill="#6A3DBF" width="240.26" height="0.99"/>
				</g>
			</g>
		</g>
	</g>
</g>
<polygon opacity="0.22" fill="#6A3DBF" points="781.18,377.69 778.92,377.69 778.92,375.43 777.05,375.43 777.05,377.69 
	774.79,377.69 774.79,379.56 777.05,379.56 777.05,381.82 778.92,381.82 778.92,379.56 781.18,379.56 "/>
<path opacity="0.22" fill="#F7BAF4" d="M902.06,388.54c0,2.69-2.18,4.88-4.88,4.88c-2.69,0-4.87-2.18-4.87-4.88
	c0-2.69,2.18-4.88,4.87-4.88C899.87,383.67,902.06,385.85,902.06,388.54z"/>
<g opacity="0.22">
	<defs>
		<polygon id="SVGID_4_" opacity="0.22" points="797.79,920.36 925.6,859.53 821.92,806.37 		"/>
	</defs>
	<clipPath id="SVGID_27_">
		<use xlink:href="#SVGID_4_"  overflow="visible"/>
	</clipPath>
	<g clip-path="url(#SVGID_27_)">
		<g>
			<g>
				<g>
					
						<rect x="601.83" y="614.2" transform="matrix(0.9029 -0.4298 0.4298 0.9029 -185.472 410.172)" fill="#6A3DBF" width="426.77" height="2.9"/>
					
						<rect x="612.2" y="635.97" transform="matrix(0.9029 -0.4298 0.4298 0.9029 -193.8078 416.6617)" fill="#6A3DBF" width="426.78" height="2.89"/>
				</g>
				<g>
					
						<rect x="622.56" y="657.75" transform="matrix(0.9026 -0.4304 0.4304 0.9026 -202.3279 423.9752)" fill="#6A3DBF" width="426.78" height="2.89"/>
					
						<rect x="632.92" y="679.52" transform="matrix(0.9035 -0.4285 0.4285 0.9035 -210.1609 428.3353)" fill="#6A3DBF" width="426.77" height="2.89"/>
				</g>
			</g>
			<g>
				<g>
					
						<rect x="643.28" y="701.29" transform="matrix(0.9033 -0.4291 0.4291 0.9033 -218.6656 435.5779)" fill="#6A3DBF" width="426.77" height="2.89"/>
					
						<rect x="653.64" y="723.06" transform="matrix(0.9026 -0.4304 0.4304 0.9026 -227.4137 443.7185)" fill="#6A3DBF" width="426.77" height="2.89"/>
				</g>
				<g>
					
						<rect x="664.01" y="744.83" transform="matrix(0.9026 -0.4305 0.4305 0.9026 -235.7996 450.3886)" fill="#6A3DBF" width="426.78" height="2.89"/>
					
						<rect x="674.37" y="766.6" transform="matrix(0.9027 -0.4303 0.4303 0.9027 -244.1151 456.797)" fill="#6A3DBF" width="426.78" height="2.89"/>
				</g>
			</g>
		</g>
		<g>
			<g>
				<g>
					
						<rect x="684.73" y="788.37" transform="matrix(0.9026 -0.4304 0.4304 0.9026 -252.4969 463.4497)" fill="#6A3DBF" width="426.77" height="2.89"/>
					
						<rect x="695.09" y="810.14" transform="matrix(0.9029 -0.4298 0.4298 0.9029 -260.6382 469.274)" fill="#6A3DBF" width="426.77" height="2.9"/>
				</g>
				<g>
					
						<rect x="705.45" y="831.92" transform="matrix(0.9027 -0.4303 0.4303 0.9027 -269.1993 476.5397)" fill="#6A3DBF" width="426.77" height="2.89"/>
					
						<rect x="715.82" y="853.69" transform="matrix(0.9023 -0.4311 0.4311 0.9023 -277.8548 484.0755)" fill="#6A3DBF" width="426.78" height="2.89"/>
				</g>
			</g>
			<g>
				<g>
					
						<rect x="726.18" y="875.46" transform="matrix(0.9036 -0.4284 0.4284 0.9036 -285.1014 487.1102)" fill="#6A3DBF" width="426.78" height="2.89"/>
					
						<rect x="736.54" y="897.24" transform="matrix(0.9029 -0.4298 0.4298 0.9029 -294.0195 495.4628)" fill="#6A3DBF" width="426.78" height="2.89"/>
				</g>
				<g>
					
						<rect x="746.9" y="919" transform="matrix(0.9029 -0.4298 0.4298 0.9029 -302.3665 502.0198)" fill="#6A3DBF" width="426.78" height="2.9"/>
					
						<rect x="757.26" y="940.78" transform="matrix(0.9026 -0.4304 0.4304 0.9026 -311.0294 509.5087)" fill="#6A3DBF" width="426.78" height="2.9"/>
				</g>
			</g>
		</g>
	</g>
</g>
<g opacity="0.22">
	<defs>
		<path id="SVGID_3_" opacity="0.22" d="M1060.75,940.19c-19.63,28.95-59.02,36.51-87.97,16.88
			c-28.95-19.63-36.51-59.02-16.88-87.97c19.63-28.95,59.02-36.51,87.97-16.88C1072.82,871.84,1080.37,911.23,1060.75,940.19z"/>
	</defs>
	<clipPath id="SVGID_28_">
		<use xlink:href="#SVGID_3_"  overflow="visible"/>
	</clipPath>
	<g clip-path="url(#SVGID_28_)">
		<g>
			<g>
				<g>
					
						<rect x="824.99" y="857.68" transform="matrix(0.5612 -0.8277 0.8277 0.5612 -295.57 1158.8687)" fill="#6A3DBF" width="240.26" height="1"/>
					
						<rect x="834.89" y="864.39" transform="matrix(0.5603 -0.8283 0.8283 0.5603 -296.4439 1171.3772)" fill="#6A3DBF" width="240.26" height="1"/>
				</g>
				<g>
					<polygon fill="#6A3DBF" points="897.91,971.31 897.09,970.75 1031.91,771.89 1032.74,772.45 					"/>
					<polygon fill="#6A3DBF" points="907.81,978.02 906.98,977.46 1041.81,778.6 1042.63,779.15 					"/>
				</g>
			</g>
			<g>
				<g>
					
						<rect x="864.57" y="884.52" transform="matrix(0.5603 -0.8283 0.8283 0.5603 -300.0623 1204.8187)" fill="#6A3DBF" width="240.26" height="1"/>
					<polygon fill="#6A3DBF" points="927.6,991.44 926.77,990.88 1061.61,792.02 1062.42,792.57 					"/>
				</g>
				<g>
					<polygon fill="#6A3DBF" points="937.49,998.15 936.67,997.59 1071.5,798.72 1072.32,799.28 					"/>
					<polygon fill="#6A3DBF" points="947.39,1004.86 946.56,1004.3 1081.4,805.44 1082.22,806 					"/>
				</g>
			</g>
		</g>
		<g>
			<g>
				<g>
					<polygon fill="#6A3DBF" points="957.29,1011.56 956.46,1011.01 1091.29,812.14 1092.11,812.7 					"/>
					
						<rect x="914.05" y="918.07" transform="matrix(0.5624 -0.8269 0.8269 0.5624 -306.976 1257.0718)" fill="#6A3DBF" width="240.26" height="1"/>
				</g>
				<g>
					<polygon fill="#6A3DBF" points="977.08,1024.98 976.25,1024.42 1111.08,825.56 1111.9,826.12 					"/>
					<polygon fill="#6A3DBF" points="986.98,1031.69 986.15,1031.14 1120.97,832.27 1121.8,832.83 					"/>
				</g>
			</g>
			<g>
				<g>
					<polygon fill="#6A3DBF" points="996.87,1038.4 996.04,1037.84 1130.87,838.98 1131.7,839.54 					"/>
					<polygon fill="#6A3DBF" points="1006.77,1045.11 1005.94,1044.55 1140.77,845.69 1141.59,846.25 					"/>
				</g>
				<g>
					<polygon fill="#6A3DBF" points="1016.66,1051.82 1015.84,1051.26 1150.66,852.4 1151.49,852.96 					"/>
					
						<rect x="973.43" y="958.32" transform="matrix(0.5624 -0.8269 0.8269 0.5624 -314.2796 1323.7814)" fill="#6A3DBF" width="240.26" height="0.99"/>
				</g>
			</g>
		</g>
	</g>
</g>
<polygon opacity="0.22" fill="#6A3DBF" points="870.42,792.14 868.29,791.39 869.05,789.26 867.29,788.63 866.53,790.76 864.4,790 
	863.78,791.76 865.91,792.52 865.15,794.65 866.91,795.28 867.67,793.15 869.8,793.9 "/>
<polygon opacity="0.22" fill="#6A3DBF" points="763.5,956.83 758.14,954.93 760.04,949.57 755.61,947.99 753.71,953.35 
	748.34,951.45 746.77,955.88 752.13,957.79 750.23,963.15 754.66,964.72 756.57,959.36 761.93,961.26 "/>
<path opacity="0.22" fill="#F7BAF4" d="M980.7,842.81c-0.9,2.54-3.69,3.87-6.23,2.96c-2.54-0.9-3.86-3.69-2.96-6.23
	c0.9-2.54,3.69-3.87,6.23-2.96C980.28,837.49,981.6,840.27,980.7,842.81z"/>
<g>
</g>
<g>
</g>
<g>
</g>
<g>
</g>
<g>
</g>
<g>
</g>
</svg>
